<?xml version="1.0" standalone="no"?>
<!DOCTYPE svg PUBLIC "-//W3C//DTD SVG 20010904//EN"
 "http://www.w3.org/TR/2001/REC-SVG-20010904/DTD/svg10.dtd">
<svg version="1.0" xmlns="http://www.w3.org/2000/svg"
 width="16.000000pt" height="16.000000pt" viewBox="0 0 16.000000 16.000000"
 preserveAspectRatio="xMidYMid meet">
<metadata>
Created by potrace 1.11, written by Peter Selinger 2001-2013
</metadata>
<g transform="translate(0.000000,16.000000) scale(0.005333,-0.005333)"
fill="#000000" stroke="none">
<path d="M1588 2995 c-2 -1 -27 -6 -57 -9 -493 -59 -946 -387 -1161 -842 -58
-123 -111 -291 -124 -394 -4 -25 -9 -58 -12 -75 -8 -42 -9 -280 -1 -340 24
-187 54 -293 130 -460 203 -450 639 -781 1127 -856 110 -17 332 -19 425 -4
135 23 144 25 259 62 128 41 230 88 333 152 l73 46 0 198 c0 108 -2 197 -4
197 -2 0 -32 -27 -67 -61 -352 -337 -880 -414 -1313 -191 -355 182 -594 531
-643 937 -12 103 -7 287 11 370 59 276 175 489 366 668 135 128 296 220 470
270 126 36 160 41 330 40 124 0 172 -4 241 -21 92 -23 213 -68 270 -100 19
-11 53 -31 77 -44 58 -34 195 -143 232 -184 16 -19 31 -30 33 -26 5 10 2 390
-3 395 -61 56 -362 198 -470 222 -200 44 -234 48 -372 50 -81 2 -148 2 -150 0z"/>
<path d="M1195 2446 l-30 -12 -1 -437 -1 -437 49 0 48 0 0 450 c0 500 5 466
-65 436z"/>
<path d="M1510 2010 l0 -450 50 0 50 0 0 334 0 333 99 -101 c54 -56 145 -150
202 -210 57 -59 161 -167 230 -239 l126 -131 0 457 0 458 -31 -7 c-71 -15 -66
10 -66 -344 0 -176 -2 -320 -5 -320 -4 0 -117 115 -231 236 -45 48 -383 401
-402 421 -7 7 -15 13 -18 13 -2 0 -4 -202 -4 -450z"/>
<path d="M1290 1429 c-150 -16 -241 -112 -234 -245 6 -117 70 -173 294 -256
171 -63 218 -106 206 -191 -11 -75 -61 -121 -146 -133 -25 -3 -54 -7 -65 -9
-48 -7 -196 46 -267 97 l-28 19 0 -56 c0 -55 0 -56 48 -86 70 -44 142 -62 252
-62 202 1 310 88 309 248 0 126 -61 187 -253 259 -203 76 -249 110 -248 186 1
52 25 96 65 117 52 28 197 23 267 -9 31 -14 63 -33 73 -43 23 -22 29 -15 31
35 2 29 -4 45 -19 60 -53 50 -180 81 -285 69z"/>
<path d="M1864 965 c0 -245 4 -445 8 -446 5 0 21 -1 36 -2 58 -2 57 -4 56 177
l-1 166 96 1 c125 1 137 3 197 23 66 22 127 74 149 128 20 49 27 171 12 208
-24 62 -34 77 -70 111 -64 60 -133 77 -322 78 l-161 2 0 -446z m369 330 c80
-38 117 -152 78 -241 -34 -76 -91 -101 -242 -103 l-106 -2 0 188 0 188 116 -6
c83 -4 127 -10 154 -24z"/>
</g>
</svg>
