<svg xmlns="http://www.w3.org/2000/svg" viewBox="0 0 167.18 242.86" version="1"><g fill="none" stroke="#17067a" stroke-width="1.32" stroke-linecap="round" stroke-linejoin="round"><path fill="#fff" stroke="#000" stroke-width=".5" d="M166.93 235.74c0 3.78-3.08 6.87-6.87 6.87H7.22c-3.78 0-6.87-3-6.87-6.8V7.3C.35 3.54 3.45.45 7.22.45h152.84c3.8 0 6.87 3.1 6.87 6.87v228.42z" stroke-linecap="butt" stroke-linejoin="miter" transform="matrix(1 0 0 .998 -.008 .232)"/><path fill="#fff" fill-rule="evenodd" stroke="none" d="M7.65 1.87c-3.22 0-5.8 2.52-5.8 5.64v228c0 3.15 2.58 5.67 5.8 5.67h152.07c3.22 0 5.8-2.52 5.8-5.64V7.5c0-3.1-2.58-5.63-5.8-5.63H7.65z" transform="matrix(1 0 0 .998 -.008 .232)"/><path stroke-width="2.85" stroke-miterlimit="10" d="M7.65 1.87c-3.22 0-5.8 2.52-5.8 5.64v228c0 3.15 2.58 5.67 5.8 5.67h152.07c3.22 0 5.8-2.52 5.8-5.64V7.5c0-3.1-2.58-5.63-5.8-5.63H7.65z" stroke-linecap="butt" stroke-linejoin="miter" transform="matrix(1 0 0 .998 -.008 .232)"/><path fill="#fff" fill-rule="evenodd" stroke="none" d="M9.3 7.4c-.82 0-1.47.64-1.47 1.43v225.3c0 .78.65 1.4 1.46 1.4h148.4c.8 0 1.4-.62 1.4-1.4V8.83c0-.8-.66-1.43-1.47-1.43H9.3z" transform="matrix(1 0 0 .998 -.008 .232)"/><path stroke-width="2.68" stroke-miterlimit="10" d="M9.3 7.4c-.82 0-1.47.64-1.47 1.43v225.3c0 .78.65 1.4 1.46 1.4h148.4c.8 0 1.4-.62 1.4-1.4V8.83c0-.8-.66-1.43-1.47-1.43H9.3z" stroke-linecap="butt" stroke-linejoin="miter" transform="matrix(1 0 0 .998 -.008 .232)"/><path fill="#313390" fill-rule="evenodd" stroke="none" d="M38.66 37.1c-.4 0-.7.32-.7.7v168.07c0 .38.3.68.7.68h88.2c.4 0 .7-.3.7-.68V37.8c0-.38-.3-.7-.7-.7h-88.2z" transform="matrix(1 0 0 .998 -.008 .232)"/><path stroke-width="1.64" stroke-miterlimit="10" d="M38.66 37.1c-.4 0-.7.32-.7.7v168.07c0 .38.3.68.7.68h88.2c.4 0 .7-.3.7-.68V37.8c0-.38-.3-.7-.7-.7h-88.2z" stroke-linecap="butt" stroke-linejoin="miter" transform="matrix(1 0 0 .998 -.008 .232)"/><path fill="#fff" fill-rule="evenodd" stroke="none" d="M52.62 43.07c-4.62 0-8.34 3.62-8.34 8.12v140.5c0 4.5 3.72 8.1 8.34 8.1h59.9c4.63 0 8.35-3.6 8.35-8.1V51.2c0-4.5-3.72-8.13-8.34-8.13h-59.9z" transform="matrix(1 0 0 .998 -.008 .232)"/><path stroke-width="2.07" stroke-miterlimit="10" d="M52.62 43.07c-4.62 0-8.34 3.62-8.34 8.12v140.5c0 4.5 3.72 8.1 8.34 8.1h59.9c4.63 0 8.35-3.6 8.35-8.1V51.2c0-4.5-3.72-8.13-8.34-8.13h-59.9z" stroke-linecap="butt" transform="matrix(1 0 0 .998 -.008 .232)"/><path fill="#313390" fill-rule="evenodd" stroke="none" d="M53.55 49.54c-1.56 0-2.8 1.2-2.8 2.73v138.4c0 1.52 1.24 2.74 2.8 2.74h57.68c1.55 0 2.8-1.2 2.8-2.7V52.3c0-1.53-1.25-2.74-2.8-2.74H53.55z" transform="matrix(1 0 0 .998 -.008 .232)"/><path stroke-width="1.8" stroke-miterlimit="10" d="M53.55 49.54c-1.56 0-2.8 1.2-2.8 2.73v138.4c0 1.52 1.24 2.74 2.8 2.74h57.68c1.55 0 2.8-1.2 2.8-2.7V52.3c0-1.53-1.25-2.74-2.8-2.74H53.55z" stroke-linecap="butt" transform="matrix(1 0 0 .998 -.008 .232)"/><path fill="#17067a" fill-rule="evenodd" stroke="none" d="M9.4 9.03h6.68l-6.6 6.4-.07-6.4z" transform="matrix(1 0 0 .998 -.008 .232)"/><path stroke-width=".86" stroke-miterlimit="10" d="M9.4 9.03h6.68l-6.6 6.4-.07-6.4z" stroke-linecap="butt" stroke-linejoin="miter" transform="matrix(1 0 0 .998 -.008 .232)"/><path fill="#17067a" fill-rule="evenodd" stroke="none" d="M157.48 9.1h-6.66l6.6 6.42.06-6.4z" transform="matrix(1 0 0 .998 -.008 .232)"/><path stroke-width=".86" stroke-miterlimit="10" d="M157.48 9.1h-6.66l6.6 6.42.06-6.4z" stroke-linecap="butt" stroke-linejoin="miter" transform="matrix(1 0 0 .998 -.008 .232)"/><path fill="#17067a" fill-rule="evenodd" stroke="none" d="M157.6 234.12h-6.66l6.6-6.4.06 6.4z" transform="matrix(1 0 0 .998 -.008 .232)"/><path stroke-width=".86" stroke-miterlimit="10" d="M157.6 234.12h-6.66l6.6-6.4.06 6.4z" stroke-linecap="butt" stroke-linejoin="miter" transform="matrix(1 0 0 .998 -.008 .232)"/><path fill="#17067a" fill-rule="evenodd" stroke="none" d="M9.4 234.08h6.67l-6.6-6.4-.06 6.4z" transform="matrix(1 0 0 .998 -.008 .232)"/><path stroke-width=".86" stroke-miterlimit="10" d="M9.4 234.08h6.67l-6.6-6.4-.06 6.4z" stroke-linecap="butt" stroke-linejoin="miter" transform="matrix(1 0 0 .998 -.008 .232)"/><path fill="#313390" fill-rule="evenodd" stroke="none" d="M11.97 130.63v6.14L34.4 125.3V119l-22.43 11.63z" transform="matrix(1 0 0 .998 -.008 .232)"/><path stroke-miterlimit="10" d="M11.97 130.63v6.14L34.4 125.3V119l-22.43 11.63z" transform="matrix(1 0 0 .998 -.008 .232)"/><path fill="#313390" fill-rule="evenodd" stroke="none" d="M12.08 142.23v6.14L34.5 136.9v-6.3l-22.4 11.64z" transform="matrix(1 0 0 .998 -.008 .232)"/><path stroke-miterlimit="10" d="M12.08 142.23v6.14L34.5 136.9v-6.3l-22.4 11.64z" transform="matrix(1 0 0 .998 -.008 .232)"/><path fill="#fff" fill-rule="evenodd" stroke="none" d="M11.85 136.8v-6.14l22.43 11.47v6.3L11.85 136.8z" transform="matrix(1 0 0 .998 -.008 .232)"/><path stroke-miterlimit="10" d="M11.85 136.8v-6.14l22.43 11.47v6.3L11.85 136.8z" transform="matrix(1 0 0 .998 -.008 .232)"/><path fill="#313390" fill-rule="evenodd" stroke="none" d="M12.13 118.87V125l22.43-11.47v-6.28l-22.43 11.62z" transform="matrix(1 0 0 .998 -.008 .232)"/><path stroke-miterlimit="10" d="M12.13 118.87V125l22.43-11.47v-6.28l-22.43 11.62z" transform="matrix(1 0 0 .998 -.008 .232)"/><path fill="#fff" fill-rule="evenodd" stroke="none" d="M12.02 125.26v-6.13l22.43 11.47v6.28l-22.43-11.62z" transform="matrix(1 0 0 .998 -.008 .232)"/><path stroke-miterlimit="10" d="M12.02 125.26v-6.13l22.43 11.47v6.28l-22.43-11.62z" transform="matrix(1 0 0 .998 -.008 .232)"/><path fill="#313390" fill-rule="evenodd" stroke="none" d="M12.02 107.27v6.14L34.44 102v-6.3l-22.42 11.6z" transform="matrix(1 0 0 .998 -.008 .232)"/><path stroke-miterlimit="10" d="M12.02 107.27v6.14L34.44 102v-6.3l-22.42 11.6z" transform="matrix(1 0 0 .998 -.008 .232)"/><path fill="#fff" fill-rule="evenodd" stroke="none" d="M11.9 113.44v-6.14l22.43 11.48v6.28L11.9 113.44z" transform="matrix(1 0 0 .998 -.008 .232)"/><path stroke-miterlimit="10" d="M11.9 113.44v-6.14l22.43 11.48v6.28L11.9 113.44z" transform="matrix(1 0 0 .998 -.008 .232)"/><path fill="#fff" fill-rule="evenodd" stroke="none" d="M12.07 101.9v-6.13l22.43 11.47v6.28L12.07 101.9z" transform="matrix(1 0 0 .998 -.008 .232)"/><path stroke-miterlimit="10" d="M12.07 101.9v-6.13l22.43 11.47v6.28L12.07 101.9z" transform="matrix(1 0 0 .998 -.008 .232)"/><path fill="#313390" fill-rule="evenodd" stroke="none" d="M12.1 153.94v6.13l22.44-11.47v-6.28L12.1 153.94z" transform="matrix(1 0 0 .998 -.008 .232)"/><path stroke-miterlimit="10" d="M12.1 153.94v6.13l22.44-11.47v-6.28L12.1 153.94z" transform="matrix(1 0 0 .998 -.008 .232)"/><path fill="#fff" fill-rule="evenodd" stroke="none" d="M11.88 148.5v-6.13l22.43 11.47v6.28L11.9 148.5z" transform="matrix(1 0 0 .998 -.008 .232)"/><path stroke-miterlimit="10" d="M11.88 148.5v-6.13l22.43 11.47v6.28L11.9 148.5z" transform="matrix(1 0 0 .998 -.008 .232)"/><path fill="#313390" fill-rule="evenodd" stroke="none" d="M11.88 72.2v6.12L34.3 66.85v-6.3L11.9 72.2z" transform="matrix(1 0 0 .998 -.008 .232)"/><path stroke-miterlimit="10" d="M11.88 72.2v6.12L34.3 66.85v-6.3L11.9 72.2z" transform="matrix(1 0 0 .998 -.008 .232)"/><path fill="#313390" fill-rule="evenodd" stroke="none" d="M12 83.78v6.14l22.43-11.47v-6.3L12 83.8z" transform="matrix(1 0 0 .998 -.008 .232)"/><path stroke-miterlimit="10" d="M12 83.78v6.14l22.43-11.47v-6.3L12 83.8z" transform="matrix(1 0 0 .998 -.008 .232)"/><path fill="#fff" fill-rule="evenodd" stroke="none" d="M11.77 78.35V72.2L34.2 83.7v6.27L11.77 78.35z" transform="matrix(1 0 0 .998 -.008 .232)"/><path stroke-miterlimit="10" d="M11.77 78.35V72.2L34.2 83.7v6.27L11.77 78.35z" transform="matrix(1 0 0 .998 -.008 .232)"/><path fill="#313390" fill-rule="evenodd" stroke="none" d="M12.05 60.42v6.14L34.48 55.1v-6.3L12.05 60.42z" transform="matrix(1 0 0 .998 -.008 .232)"/><path stroke-miterlimit="10" d="M12.05 60.42v6.14L34.48 55.1v-6.3L12.05 60.42z" transform="matrix(1 0 0 .998 -.008 .232)"/><path fill="#fff" fill-rule="evenodd" stroke="none" d="M11.94 66.8v-6.1l22.43 11.47v6.28L11.94 66.8z" transform="matrix(1 0 0 .998 -.008 .232)"/><path stroke-miterlimit="10" d="M11.94 66.8v-6.1l22.43 11.47v6.28L11.94 66.8z" transform="matrix(1 0 0 .998 -.008 .232)"/><path fill="#313390" fill-rule="evenodd" stroke="none" d="M11.93 48.83v6.13L34.36 43.5v-6.3L11.93 48.84z" transform="matrix(1 0 0 .998 -.008 .232)"/><path stroke-miterlimit="10" d="M11.93 48.83v6.13L34.36 43.5v-6.3L11.93 48.84z" transform="matrix(1 0 0 .998 -.008 .232)"/><path fill="#fff" fill-rule="evenodd" stroke="none" d="M11.82 55v-6.14l22.43 11.47v6.28L11.82 55z" transform="matrix(1 0 0 .998 -.008 .232)"/><path stroke-miterlimit="10" d="M11.82 55v-6.14l22.43 11.47v6.28L11.82 55z" transform="matrix(1 0 0 .998 -.008 .232)"/><path fill="#fff" fill-rule="evenodd" stroke="none" d="M12 43.45v-6.13L34.4 48.8v6.27L12 43.45z" transform="matrix(1 0 0 .998 -.008 .232)"/><path stroke-miterlimit="10" d="M12 43.45v-6.13L34.4 48.8v6.27L12 43.45z" transform="matrix(1 0 0 .998 -.008 .232)"/><path fill="#313390" fill-rule="evenodd" stroke="none" d="M12.03 95.5v6.12l22.43-11.47v-6.28L12.03 95.5z" transform="matrix(1 0 0 .998 -.008 .232)"/><path stroke-miterlimit="10" d="M12.03 95.5v6.12l22.43-11.47v-6.28L12.03 95.5z" transform="matrix(1 0 0 .998 -.008 .232)"/><path fill="#fff" fill-rule="evenodd" stroke="none" d="M11.8 90.05v-6.13L34.23 95.4v6.27L11.8 90.05z" transform="matrix(1 0 0 .998 -.008 .232)"/><path stroke-miterlimit="10" d="M11.8 90.05v-6.13L34.23 95.4v6.27L11.8 90.05z" transform="matrix(1 0 0 .998 -.008 .232)"/><path fill="#313390" fill-rule="evenodd" stroke="none" d="M11.97 188.92v6.13l22.42-11.47v-6.28l-22.5 11.62z" transform="matrix(1 0 0 .998 -.008 .232)"/><path stroke-miterlimit="10" d="M11.97 188.92v6.13l22.42-11.47v-6.28l-22.5 11.62z" transform="matrix(1 0 0 .998 -.008 .232)"/><path fill="#313390" fill-rule="evenodd" stroke="none" d="M12.08 200.52v6.13l22.43-11.47v-6.28l-22.4 11.62z" transform="matrix(1 0 0 .998 -.008 .232)"/><path stroke-miterlimit="10" d="M12.08 200.52v6.13l22.43-11.47v-6.28l-22.4 11.62z" transform="matrix(1 0 0 .998 -.008 .232)"/><path fill="#fff" fill-rule="evenodd" stroke="none" d="M11.85 195.08v-6.13l22.43 11.47v6.3l-22.43-11.64z" transform="matrix(1 0 0 .998 -.008 .232)"/><path stroke-miterlimit="10" d="M11.85 195.08v-6.13l22.43 11.47v6.3l-22.43-11.64z" transform="matrix(1 0 0 .998 -.008 .232)"/><path fill="#313390" fill-rule="evenodd" stroke="none" d="M12.13 177.16v6.13l22.43-11.5v-6.3l-22.43 11.6z" transform="matrix(1 0 0 .998 -.008 .232)"/><path stroke-miterlimit="10" d="M12.13 177.16v6.13l22.43-11.5v-6.3l-22.43 11.6z" transform="matrix(1 0 0 .998 -.008 .232)"/><path fill="#fff" fill-rule="evenodd" stroke="none" d="M12.02 183.55v-6.14l22.43 11.5v6.3l-22.43-11.6z" transform="matrix(1 0 0 .998 -.008 .232)"/><path stroke-miterlimit="10" d="M12.02 183.55v-6.14l22.43 11.5v6.3l-22.43-11.6z" transform="matrix(1 0 0 .998 -.008 .232)"/><path fill="#313390" fill-rule="evenodd" stroke="none" d="M12.02 165.56v6.13l22.42-11.5v-6.3l-22.42 11.6z" transform="matrix(1 0 0 .998 -.008 .232)"/><path stroke-miterlimit="10" d="M12.02 165.56v6.13l22.42-11.5v-6.3l-22.42 11.6z" transform="matrix(1 0 0 .998 -.008 .232)"/><path fill="#fff" fill-rule="evenodd" stroke="none" d="M11.9 171.72v-6.13L34.33 177v6.28L11.9 171.7z" transform="matrix(1 0 0 .998 -.008 .232)"/><path stroke-miterlimit="10" d="M11.9 171.72v-6.13L34.33 177v6.28L11.9 171.7z" transform="matrix(1 0 0 .998 -.008 .232)"/><path fill="#fff" fill-rule="evenodd" stroke="none" d="M12.07 160.2v-6.15l22.43 11.47v6.3L12.07 160.2z" transform="matrix(1 0 0 .998 -.008 .232)"/><path stroke-miterlimit="10" d="M12.07 160.2v-6.15l22.43 11.47v6.3L12.07 160.2z" transform="matrix(1 0 0 .998 -.008 .232)"/><path fill="#313390" fill-rule="evenodd" stroke="none" d="M131.94 113.32v-6.13l22.43 11.4v6.3l-22.43-11.66z" transform="matrix(1 0 0 .998 -.008 .232)"/><path stroke-miterlimit="10" d="M131.94 113.32v-6.13l22.43 11.4v6.3l-22.43-11.66z" transform="matrix(1 0 0 .998 -.008 .232)"/><path fill="#313390" fill-rule="evenodd" stroke="none" d="M132.05 101.72v-6.14l22.43 11.48v6.3l-22.43-11.64z" transform="matrix(1 0 0 .998 -.008 .232)"/><path stroke-miterlimit="10" d="M132.05 101.72v-6.14l22.43 11.48v6.3l-22.43-11.64z" transform="matrix(1 0 0 .998 -.008 .232)"/><path fill="#fff" fill-rule="evenodd" stroke="none" d="M131.83 107.16v6.13l22.42-11.5v-6.3l-22.42 11.6z" transform="matrix(1 0 0 .998 -.008 .232)"/><path stroke-miterlimit="10" d="M131.83 107.16v6.13l22.42-11.5v-6.3l-22.42 11.6z" transform="matrix(1 0 0 .998 -.008 .232)"/><path fill="#313390" fill-rule="evenodd" stroke="none" d="M132.1 125.1v-6.15l22.43 11.48v6.3L132.1 125.1z" transform="matrix(1 0 0 .998 -.008 .232)"/><path stroke-miterlimit="10" d="M132.1 125.1v-6.15l22.43 11.48v6.3L132.1 125.1z" transform="matrix(1 0 0 .998 -.008 .232)"/><path fill="#fff" fill-rule="evenodd" stroke="none" d="M132 118.7v6.13l22.42-11.47v-6.3L132 118.7z" transform="matrix(1 0 0 .998 -.008 .232)"/><path stroke-miterlimit="10" d="M132 118.7v6.13l22.42-11.47v-6.3L132 118.7z" transform="matrix(1 0 0 .998 -.008 .232)"/><path fill="#313390" fill-rule="evenodd" stroke="none" d="M132 136.7v-6.14l22.42 11.48v6.28L132 136.7z" transform="matrix(1 0 0 .998 -.008 .232)"/><path stroke-miterlimit="10" d="M132 136.7v-6.14l22.42 11.48v6.28L132 136.7z" transform="matrix(1 0 0 .998 -.008 .232)"/><path fill="#fff" fill-rule="evenodd" stroke="none" d="M131.88 130.53v6.13l22.42-11.47v-6.3l-22.43 11.6z" transform="matrix(1 0 0 .998 -.008 .232)"/><path stroke-miterlimit="10" d="M131.88 130.53v6.13l22.42-11.47v-6.3l-22.43 11.6z" transform="matrix(1 0 0 .998 -.008 .232)"/><path fill="#fff" fill-rule="evenodd" stroke="none" d="M132.04 142.07v6.14l22.43-11.4v-6.3l-22.43 11.65z" transform="matrix(1 0 0 .998 -.008 .232)"/><path stroke-miterlimit="10" d="M132.04 142.07v6.14l22.43-11.4v-6.3l-22.43 11.65z" transform="matrix(1 0 0 .998 -.008 .232)"/><path fill="#313390" fill-rule="evenodd" stroke="none" d="M132.08 90v-6.13l22.43 11.47v6.3L132.1 90z" transform="matrix(1 0 0 .998 -.008 .232)"/><path stroke-miterlimit="10" d="M132.08 90v-6.13l22.43 11.47v6.3L132.1 90z" transform="matrix(1 0 0 .998 -.008 .232)"/><path fill="#fff" fill-rule="evenodd" stroke="none" d="M131.86 95.44v6.14L154.3 90.1v-6.3l-22.44 11.64z" transform="matrix(1 0 0 .998 -.008 .232)"/><path stroke-miterlimit="10" d="M131.86 95.44v6.14L154.3 90.1v-6.3l-22.44 11.64z" transform="matrix(1 0 0 .998 -.008 .232)"/><path fill="#313390" fill-rule="evenodd" stroke="none" d="M131.85 171.8v-6.13l22.43 11.48v6.28l-22.43-11.62z" transform="matrix(1 0 0 .998 -.008 .232)"/><path stroke-miterlimit="10" d="M131.85 171.8v-6.13l22.43 11.48v6.28l-22.43-11.62z" transform="matrix(1 0 0 .998 -.008 .232)"/><path fill="#313390" fill-rule="evenodd" stroke="none" d="M131.97 160.2v-6.14l22.43 11.48v6.3l-22.43-11.64z" transform="matrix(1 0 0 .998 -.008 .232)"/><path stroke-miterlimit="10" d="M131.97 160.2v-6.14l22.43 11.48v6.3l-22.43-11.64z" transform="matrix(1 0 0 .998 -.008 .232)"/><path fill="#fff" fill-rule="evenodd" stroke="none" d="M131.74 165.64v6.14l22.43-11.48V154l-22.43 11.64z" transform="matrix(1 0 0 .998 -.008 .232)"/><path stroke-miterlimit="10" d="M131.74 165.64v6.14l22.43-11.48V154l-22.43 11.64z" transform="matrix(1 0 0 .998 -.008 .232)"/><path fill="#313390" fill-rule="evenodd" stroke="none" d="M132.02 183.57v-6.14l22.43 11.48v6.3l-22.43-11.6z" transform="matrix(1 0 0 .998 -.008 .232)"/><path stroke-miterlimit="10" d="M132.02 183.57v-6.14l22.43 11.48v6.3l-22.43-11.6z" transform="matrix(1 0 0 .998 -.008 .232)"/><path fill="#fff" fill-rule="evenodd" stroke="none" d="M131.9 177.18v6.14l22.44-11.48v-6.3L131.9 177.2z" transform="matrix(1 0 0 .998 -.008 .232)"/><path stroke-miterlimit="10" d="M131.9 177.18v6.14l22.44-11.48v-6.3L131.9 177.2z" transform="matrix(1 0 0 .998 -.008 .232)"/><path fill="#313390" fill-rule="evenodd" stroke="none" d="M131.9 195.18v-6.14l22.43 11.48v6.3l-22.43-11.64z" transform="matrix(1 0 0 .998 -.008 .232)"/><path stroke-miterlimit="10" d="M131.9 195.18v-6.14l22.43 11.48v6.3l-22.43-11.64z" transform="matrix(1 0 0 .998 -.008 .232)"/><path fill="#fff" fill-rule="evenodd" stroke="none" d="M131.8 189v6.15l22.42-11.48v-6.3L131.8 189z" transform="matrix(1 0 0 .998 -.008 .232)"/><path stroke-miterlimit="10" d="M131.8 189v6.15l22.42-11.48v-6.3L131.8 189z" transform="matrix(1 0 0 .998 -.008 .232)"/><path fill="#fff" fill-rule="evenodd" stroke="none" d="M131.96 200.56v6.13l22.43-11.5v-6.3l-22.5 11.6z" transform="matrix(1 0 0 .998 -.008 .232)"/><path stroke-miterlimit="10" d="M131.96 200.56v6.13l22.43-11.5v-6.3l-22.5 11.6z" transform="matrix(1 0 0 .998 -.008 .232)"/><path fill="#313390" fill-rule="evenodd" stroke="none" d="M132 148.5v-6.15l22.43 11.48v6.28L132 148.5z" transform="matrix(1 0 0 .998 -.008 .232)"/><path stroke-miterlimit="10" d="M132 148.5v-6.15l22.43 11.48v6.28L132 148.5z" transform="matrix(1 0 0 .998 -.008 .232)"/><path fill="#fff" fill-rule="evenodd" stroke="none" d="M131.77 153.93v6.13l22.43-11.48v-6.28l-22.43 11.63z" transform="matrix(1 0 0 .998 -.008 .232)"/><path stroke-miterlimit="10" d="M131.77 153.93v6.13l22.43-11.48v-6.28l-22.43 11.63z" transform="matrix(1 0 0 .998 -.008 .232)"/><path fill="#313390" fill-rule="evenodd" stroke="none" d="M131.94 55v-6.14l22.43 11.48v6.3L131.94 55z" transform="matrix(1 0 0 .998 -.008 .232)"/><path stroke-miterlimit="10" d="M131.94 55v-6.14l22.43 11.48v6.3L131.94 55z" transform="matrix(1 0 0 .998 -.008 .232)"/><path fill="#313390" fill-rule="evenodd" stroke="none" d="M132.05 43.4v-6.14l22.43 11.47v6.3L132.05 43.4z" transform="matrix(1 0 0 .998 -.008 .232)"/><path stroke-miterlimit="10" d="M132.05 43.4v-6.14l22.43 11.47v6.3L132.05 43.4z" transform="matrix(1 0 0 .998 -.008 .232)"/><path fill="#fff" fill-rule="evenodd" stroke="none" d="M131.83 48.83v6.14l22.42-11.48v-6.3l-22.42 11.6z" transform="matrix(1 0 0 .998 -.008 .232)"/><path stroke-miterlimit="10" d="M131.83 48.83v6.14l22.42-11.48v-6.3l-22.42 11.6z" transform="matrix(1 0 0 .998 -.008 .232)"/><path fill="#313390" fill-rule="evenodd" stroke="none" d="M132.1 66.77v-6.14l22.43 11.48v6.3L132.1 66.8z" transform="matrix(1 0 0 .998 -.008 .232)"/><path stroke-miterlimit="10" d="M132.1 66.77v-6.14l22.43 11.48v6.3L132.1 66.8z" transform="matrix(1 0 0 .998 -.008 .232)"/><path fill="#fff" fill-rule="evenodd" stroke="none" d="M132 60.38v6.13l22.42-11.4v-6.3L132 60.4z" transform="matrix(1 0 0 .998 -.008 .232)"/><path stroke-miterlimit="10" d="M132 60.38v6.13l22.42-11.4v-6.3L132 60.4z" transform="matrix(1 0 0 .998 -.008 .232)"/><path fill="#313390" fill-rule="evenodd" stroke="none" d="M132 78.37v-6.13l22.4 11.46V90L132 78.37z" transform="matrix(1 0 0 .998 -.008 .232)"/><path stroke-miterlimit="10" d="M132 78.37v-6.13l22.4 11.46V90L132 78.37z" transform="matrix(1 0 0 .998 -.008 .232)"/><path fill="#fff" fill-rule="evenodd" stroke="none" d="M131.88 72.2v6.14l22.42-11.47v-6.3L131.87 72.2z" transform="matrix(1 0 0 .998 -.008 .232)"/><path stroke-miterlimit="10" d="M131.88 72.2v6.14l22.42-11.47v-6.3L131.87 72.2z" transform="matrix(1 0 0 .998 -.008 .232)"/><path fill="#fff" fill-rule="evenodd" stroke="none" d="M132.04 83.75v6.14l22.43-11.5v-6.3l-22.43 11.6z" transform="matrix(1 0 0 .998 -.008 .232)"/><path stroke-miterlimit="10" d="M132.04 83.75v6.14l22.43-11.5v-6.3l-22.43 11.6z" transform="matrix(1 0 0 .998 -.008 .232)"/><path fill="#313390" fill-rule="evenodd" stroke="none" d="M68.55 11.5h-6.3l11.77 21.83h6.45L68.55 11.5z" transform="matrix(1 0 0 .998 -.008 .232)"/><path stroke-miterlimit="10" d="M68.55 11.5h-6.3l11.77 21.83h6.45L68.55 11.5z" transform="matrix(1 0 0 .998 -.008 .232)"/><path fill="#313390" fill-rule="evenodd" stroke="none" d="M56.65 11.62h-6.3l11.78 21.82h6.44L56.65 11.62z" transform="matrix(1 0 0 .998 -.008 .232)"/><path stroke-miterlimit="10" d="M56.65 11.62h-6.3l11.78 21.82h6.44L56.65 11.62z" transform="matrix(1 0 0 .998 -.008 .232)"/><path fill="#fff" fill-rule="evenodd" stroke="none" d="M62.23 11.4h6.3l-11.8 21.82H50.3L62.24 11.4z" transform="matrix(1 0 0 .998 -.008 .232)"/><path stroke-miterlimit="10" d="M62.23 11.4h6.3l-11.8 21.82H50.3L62.24 11.4z" transform="matrix(1 0 0 .998 -.008 .232)"/><path fill="#313390" fill-rule="evenodd" stroke="none" d="M80.6 11.67h-6.28l11.76 21.8h6.45L80.6 11.67z" transform="matrix(1 0 0 .998 -.008 .232)"/><path stroke-miterlimit="10" d="M80.6 11.67h-6.28l11.76 21.8h6.45L80.6 11.67z" transform="matrix(1 0 0 .998 -.008 .232)"/><path fill="#fff" fill-rule="evenodd" stroke="none" d="M74.06 11.57h6.3L68.6 33.37h-6.47l11.92-21.8z" transform="matrix(1 0 0 .998 -.008 .232)"/><path stroke-miterlimit="10" d="M74.06 11.57h6.3L68.6 33.37h-6.47l11.92-21.8z" transform="matrix(1 0 0 .998 -.008 .232)"/><path fill="#313390" fill-rule="evenodd" stroke="none" d="M116.46 11.66h-6.3l11.77 21.82h6.45l-11.92-21.82z" transform="matrix(1 0 0 .998 -.008 .232)"/><path stroke-miterlimit="10" d="M116.46 11.66h-6.3l11.77 21.82h6.45l-11.92-21.82z" transform="matrix(1 0 0 .998 -.008 .232)"/><path fill="#313390" fill-rule="evenodd" stroke="none" d="M92.5 11.56h-6.3L98 33.38h6.44L92.5 11.56z" transform="matrix(1 0 0 .998 -.008 .232)"/><path stroke-miterlimit="10" d="M92.5 11.56h-6.3L98 33.38h6.44L92.5 11.56z" transform="matrix(1 0 0 .998 -.008 .232)"/><path fill="#fff" fill-rule="evenodd" stroke="none" d="M86.18 11.45h6.3L80.7 33.27h-6.43l11.9-21.82z" transform="matrix(1 0 0 .998 -.008 .232)"/><path stroke-miterlimit="10" d="M86.18 11.45h6.3L80.7 33.27h-6.43l11.9-21.82z" transform="matrix(1 0 0 .998 -.008 .232)"/><path fill="#313390" fill-rule="evenodd" stroke="none" d="M104.56 11.77h-6.3l11.78 21.82h6.44l-11.92-21.9z" transform="matrix(1 0 0 .998 -.008 .232)"/><path stroke-miterlimit="10" d="M104.56 11.77h-6.3l11.78 21.82h6.44l-11.92-21.9z" transform="matrix(1 0 0 .998 -.008 .232)"/><path fill="#fff" fill-rule="evenodd" stroke="none" d="M98.02 11.6h6.3l-11.8 21.84H86.1L98.02 11.6z" transform="matrix(1 0 0 .998 -.008 .232)"/><path stroke-miterlimit="10" d="M98.02 11.6h6.3l-11.8 21.84H86.1L98.02 11.6z" transform="matrix(1 0 0 .998 -.008 .232)"/><path fill="#fff" fill-rule="evenodd" stroke="none" d="M110.14 11.55h6.3l-11.77 21.82h-6.45l11.92-21.82z" transform="matrix(1 0 0 .998 -.008 .232)"/><path stroke-miterlimit="10" d="M110.14 11.55h6.3l-11.77 21.82h-6.45l11.92-21.82z" transform="matrix(1 0 0 .998 -.008 .232)"/><path fill="#313390" fill-rule="evenodd" stroke="none" d="M128.5 11.72h-6.3l11.76 21.8h6.44l-11.9-21.8z" transform="matrix(1 0 0 .998 -.008 .232)"/><path stroke-miterlimit="10" d="M128.5 11.72h-6.3l11.76 21.8h6.44l-11.9-21.8z" transform="matrix(1 0 0 .998 -.008 .232)"/><path fill="#fff" fill-rule="evenodd" stroke="none" d="M121.97 11.7h6.3L116.5 33.54h-6.45l11.92-21.82z" transform="matrix(1 0 0 .998 -.008 .232)"/><path stroke-miterlimit="10" d="M121.97 11.7h6.3L116.5 33.54h-6.45l11.92-21.82z" transform="matrix(1 0 0 .998 -.008 .232)"/><path fill="#313390" fill-rule="evenodd" stroke="none" d="M44.65 11.65h-6.3l11.77 21.82h6.45L44.65 11.65z" transform="matrix(1 0 0 .998 -.008 .232)"/><path stroke-miterlimit="10" d="M44.65 11.65h-6.3l11.77 21.82h6.45L44.65 11.65z" transform="matrix(1 0 0 .998 -.008 .232)"/><path fill="#313390" fill-rule="evenodd" stroke="none" d="M32.87 11.43h-6.3l11.77 21.82h6.45l-12-21.82z" transform="matrix(1 0 0 .998 -.008 .232)"/><path stroke-miterlimit="10" d="M32.87 11.43h-6.3l11.77 21.82h6.45l-12-21.82z" transform="matrix(1 0 0 .998 -.008 .232)"/><path fill="#fff" fill-rule="evenodd" stroke="none" d="M50.22 11.43h6.3L44.74 33.25H38.3l11.92-21.82z" transform="matrix(1 0 0 .998 -.008 .232)"/><path stroke-miterlimit="10" d="M50.22 11.43h6.3L44.74 33.25H38.3l11.92-21.82z" transform="matrix(1 0 0 .998 -.008 .232)"/><path fill="#313390" fill-rule="evenodd" stroke="none" d="M20.96 11.43h-6.3l11.77 21.82h6.45L20.96 11.43z" transform="matrix(1 0 0 .998 -.008 .232)"/><path stroke-miterlimit="10" d="M20.96 11.43h-6.3l11.77 21.82h6.45L20.96 11.43z" transform="matrix(1 0 0 .998 -.008 .232)"/><path fill="#fff" fill-rule="evenodd" stroke="none" d="M38.34 11.43h6.3L32.86 33.25H26.4l11.93-21.82z" transform="matrix(1 0 0 .998 -.008 .232)"/><path stroke-miterlimit="10" d="M38.34 11.43h6.3L32.86 33.25H26.4l11.93-21.82z" transform="matrix(1 0 0 .998 -.008 .232)"/><path fill="#fff" fill-rule="evenodd" stroke="none" d="M26.58 11.43h6.3L21.1 33.25h-6.43l11.9-21.82z" transform="matrix(1 0 0 .998 -.008 .232)"/><path stroke-miterlimit="10" d="M26.58 11.43h6.3L21.1 33.25h-6.43l11.9-21.82z" transform="matrix(1 0 0 .998 -.008 .232)"/><path fill="#313390" fill-rule="evenodd" stroke="none" d="M140.38 11.6h-6.3l11.78 21.82h6.44l-11.92-21.8z" transform="matrix(1 0 0 .998 -.008 .232)"/><path stroke-miterlimit="10" d="M140.38 11.6h-6.3l11.78 21.82h6.44l-11.92-21.8z" transform="matrix(1 0 0 .998 -.008 .232)"/><path fill="#fff" fill-rule="evenodd" stroke="none" d="M134.06 11.5h6.3L128.6 33.3h-6.47l11.92-21.8z" transform="matrix(1 0 0 .998 -.008 .232)"/><path stroke-miterlimit="10" d="M134.06 11.5h6.3L128.6 33.3h-6.47l11.92-21.8z" transform="matrix(1 0 0 .998 -.008 .232)"/><path fill="#fff" fill-rule="evenodd" stroke="none" d="M145.9 11.66h6.28l-11.76 21.82h-6.45l11.92-21.82z" transform="matrix(1 0 0 .998 -.008 .232)"/><path stroke-miterlimit="10" d="M145.9 11.66h6.28l-11.76 21.82h-6.45l11.92-21.82z" transform="matrix(1 0 0 .998 -.008 .232)"/><path fill="#313390" fill-rule="evenodd" stroke="none" d="M68.9 209.93h-6.3l11.76 21.82h6.45l-11.9-21.82z" transform="matrix(1 0 0 .998 -.008 .232)"/><path stroke-miterlimit="10" d="M68.9 209.93h-6.3l11.76 21.82h6.45l-11.9-21.82z" transform="matrix(1 0 0 .998 -.008 .232)"/><path fill="#313390" fill-rule="evenodd" stroke="none" d="M57 210.04h-6.3l11.77 21.82h6.44L57 210.04z" transform="matrix(1 0 0 .998 -.008 .232)"/><path stroke-miterlimit="10" d="M57 210.04h-6.3l11.77 21.82h6.44L57 210.04z" transform="matrix(1 0 0 .998 -.008 .232)"/><path fill="#fff" fill-rule="evenodd" stroke="none" d="M62.57 209.83h6.3l-11.78 21.8h-6.5l11.9-21.8z" transform="matrix(1 0 0 .998 -.008 .232)"/><path stroke-miterlimit="10" d="M62.57 209.83h6.3l-11.78 21.8h-6.5l11.9-21.8z" transform="matrix(1 0 0 .998 -.008 .232)"/><path fill="#313390" fill-rule="evenodd" stroke="none" d="M80.95 210.1h-6.3l11.77 21.8h6.45l-11.92-21.8z" transform="matrix(1 0 0 .998 -.008 .232)"/><path stroke-miterlimit="10" d="M80.95 210.1h-6.3l11.77 21.8h6.45l-11.92-21.8z" transform="matrix(1 0 0 .998 -.008 .232)"/><path fill="#fff" fill-rule="evenodd" stroke="none" d="M74.4 210h6.3l-11.77 21.8h-6.45L74.4 210z" transform="matrix(1 0 0 .998 -.008 .232)"/><path stroke-miterlimit="10" d="M74.4 210h6.3l-11.77 21.8h-6.45L74.4 210z" transform="matrix(1 0 0 .998 -.008 .232)"/><path fill="#313390" fill-rule="evenodd" stroke="none" d="M116.8 210.08h-6.3l11.78 21.82h6.44l-11.92-21.82z" transform="matrix(1 0 0 .998 -.008 .232)"/><path stroke-miterlimit="10" d="M116.8 210.08h-6.3l11.78 21.82h6.44l-11.92-21.82z" transform="matrix(1 0 0 .998 -.008 .232)"/><path fill="#313390" fill-rule="evenodd" stroke="none" d="M92.85 209.98h-6.3l11.77 21.82h6.44l-11.9-21.82z" transform="matrix(1 0 0 .998 -.008 .232)"/><path stroke-miterlimit="10" d="M92.85 209.98h-6.3l11.77 21.82h6.44l-11.9-21.82z" transform="matrix(1 0 0 .998 -.008 .232)"/><path fill="#fff" fill-rule="evenodd" stroke="none" d="M86.52 209.87h6.3L81.05 231.7H74.6l11.92-21.83z" transform="matrix(1 0 0 .998 -.008 .232)"/><path stroke-miterlimit="10" d="M86.52 209.87h6.3L81.05 231.7H74.6l11.92-21.83z" transform="matrix(1 0 0 .998 -.008 .232)"/><path fill="#313390" fill-rule="evenodd" stroke="none" d="M104.9 210.2h-6.3l11.8 21.8h6.44l-11.9-21.8z" transform="matrix(1 0 0 .998 -.008 .232)"/><path stroke-miterlimit="10" d="M104.9 210.2h-6.3l11.8 21.8h6.44l-11.9-21.8z" transform="matrix(1 0 0 .998 -.008 .232)"/><path fill="#fff" fill-rule="evenodd" stroke="none" d="M98.36 210.04h6.3l-11.78 21.8h-6.44l11.92-21.8z" transform="matrix(1 0 0 .998 -.008 .232)"/><path stroke-miterlimit="10" d="M98.36 210.04h6.3l-11.78 21.8h-6.44l11.92-21.8z" transform="matrix(1 0 0 .998 -.008 .232)"/><path fill="#fff" fill-rule="evenodd" stroke="none" d="M110.48 209.97h6.3L105 231.8h-6.44l11.92-21.83z" transform="matrix(1 0 0 .998 -.008 .232)"/><path stroke-miterlimit="10" d="M110.48 209.97h6.3L105 231.8h-6.44l11.92-21.83z" transform="matrix(1 0 0 .998 -.008 .232)"/><path fill="#313390" fill-rule="evenodd" stroke="none" d="M128.65 210.2h-6.3l11.78 21.82h6.44l-11.92-21.8z" transform="matrix(1 0 0 .998 -.008 .232)"/><path stroke-miterlimit="10" d="M128.65 210.2h-6.3l11.78 21.82h6.44l-11.92-21.8z" transform="matrix(1 0 0 .998 -.008 .232)"/><path fill="#fff" fill-rule="evenodd" stroke="none" d="M122.3 210.14h6.3l-11.76 21.8h-6.45l11.9-21.8z" transform="matrix(1 0 0 .998 -.008 .232)"/><path stroke-miterlimit="10" d="M122.3 210.14h6.3l-11.76 21.8h-6.45l11.9-21.8z" transform="matrix(1 0 0 .998 -.008 .232)"/><path fill="#313390" fill-rule="evenodd" stroke="none" d="M45 210.07h-6.3l11.76 21.82h6.45L45 210z" transform="matrix(1 0 0 .998 -.008 .232)"/><path stroke-miterlimit="10" d="M45 210.07h-6.3l11.76 21.82h6.45L45 210z" transform="matrix(1 0 0 .998 -.008 .232)"/><path fill="#313390" fill-rule="evenodd" stroke="none" d="M33 210.12h-6.3l11.77 21.8h6.45L33 210.12z" transform="matrix(1 0 0 .998 -.008 .232)"/><path stroke-miterlimit="10" d="M33 210.12h-6.3l11.77 21.8h6.45L33 210.12z" transform="matrix(1 0 0 .998 -.008 .232)"/><path fill="#fff" fill-rule="evenodd" stroke="none" d="M50.56 209.85h6.3L45.1 231.67h-6.46l11.9-21.82z" transform="matrix(1 0 0 .998 -.008 .232)"/><path stroke-miterlimit="10" d="M50.56 209.85h6.3L45.1 231.67h-6.46l11.9-21.82z" transform="matrix(1 0 0 .998 -.008 .232)"/><path fill="#313390" fill-rule="evenodd" stroke="none" d="M140.55 210.1h-6.3l11.77 21.82h6.45l-11.92-21.82z" transform="matrix(1 0 0 .998 -.008 .232)"/><path stroke-miterlimit="10" d="M140.55 210.1h-6.3l11.77 21.82h6.45l-11.92-21.82z" transform="matrix(1 0 0 .998 -.008 .232)"/><path fill="#fff" fill-rule="evenodd" stroke="none" d="M134.23 210h6.3l-11.78 21.8h-6.44l12-21.8z" transform="matrix(1 0 0 .998 -.008 .232)"/><path stroke-miterlimit="10" d="M134.23 210h6.3l-11.78 21.8h-6.44l12-21.8z" transform="matrix(1 0 0 .998 -.008 .232)"/><path fill="#fff" fill-rule="evenodd" stroke="none" d="M146.06 210.15h6.3l-11.78 21.82h-6.44l11.92-21.82z" transform="matrix(1 0 0 .998 -.008 .232)"/><path stroke-miterlimit="10" d="M146.06 210.15h6.3l-11.78 21.82h-6.44l11.92-21.82z" transform="matrix(1 0 0 .998 -.008 .232)"/><path fill="#fff" fill-rule="evenodd" stroke="none" d="M38.57 209.9h6.3L33.1 231.7h-6.44l11.9-21.8z" transform="matrix(1 0 0 .998 -.008 .232)"/><path stroke-miterlimit="10" d="M38.57 209.9h6.3L33.1 231.7h-6.44l11.9-21.8z" transform="matrix(1 0 0 .998 -.008 .232)"/><path fill="#313390" fill-rule="evenodd" stroke="none" d="M21 210.15h-6.3l11.77 21.8h6.44L21 210.15z" transform="matrix(1 0 0 .998 -.008 .232)"/><path stroke-miterlimit="10" d="M21 210.15h-6.3l11.77 21.8h6.44L21 210.15z" transform="matrix(1 0 0 .998 -.008 .232)"/><path fill="#fff" fill-rule="evenodd" stroke="none" d="M26.57 209.93h6.3l-11.77 21.8h-6.45l11.92-21.8z" transform="matrix(1 0 0 .998 -.008 .232)"/><path stroke-miterlimit="10" d="M26.57 209.93h6.3l-11.77 21.8h-6.45l11.92-21.8z" transform="matrix(1 0 0 .998 -.008 .232)"/><path stroke="#000" stroke-width=".5" d="M166.83 235.54c0 3.78-3.1 6.88-6.87 6.88H7.1c-3.76 0-6.85-3.1-6.85-6.88V7.12C.25 3.34 3.35.25 7.1.25h152.86c3.78 0 6.87 3.1 6.87 6.87v228.42z" stroke-linecap="butt" stroke-linejoin="miter" transform="matrix(1 0 0 .998 -.008 .232)"/></g></svg>
