<?xml version="1.0" encoding="UTF-8" standalone="no"?>
<!DOCTYPE svg PUBLIC "-//W3C//DTD SVG 1.1//EN" "http://www.w3.org/Graphics/SVG/1.1/DTD/svg11.dtd">
<svg width="100%" height="100%" viewBox="0 0 5000 2500" version="1.1" xmlns="http://www.w3.org/2000/svg" xmlns:xlink="http://www.w3.org/1999/xlink" xml:space="preserve" style="fill-rule:evenodd;clip-rule:evenodd;stroke-linejoin:round;stroke-miterlimit:1.41421;">
    <g id="Layer-1" transform="matrix(4.16667,0,0,4.16667,0,0)">
        <g transform="matrix(0.978792,0,0,0.974482,-8.80864,-95.9861)">
            <path d="M111.334,201.667L9.001,255.953L160.666,301.667L111.334,201.667Z" style="fill:rgb(206,205,205);fill-opacity:0.501961;fill-rule:nonzero;"/>
        </g>
        <g transform="matrix(0.978792,0,0,0.974482,-8.80864,-95.9861)">
            <path d="M212.333,149.792L215.666,252.334L111.333,201.667L212.333,149.792Z" style="fill:rgb(225,225,225);fill-opacity:0.501961;fill-rule:nonzero;"/>
        </g>
        <g transform="matrix(0.978792,0,0,0.974482,-8.80864,-95.9861)">
            <path d="M314.501,201.412L416.501,151.25L364.095,98.5L261.01,98.5L314.501,201.412Z" style="fill:rgb(206,205,205);fill-opacity:0.501961;fill-rule:nonzero;"/>
        </g>
        <g transform="matrix(0.978792,0,0,0.974482,-8.80864,-95.9861)">
            <path d="M416.5,151.25L523,203L468.868,98.5L364.094,98.5L416.5,151.25Z" style="fill:rgb(185,185,186);fill-opacity:0.501961;fill-rule:nonzero;"/>
        </g>
        <g transform="matrix(0.978792,0,0,0.974482,-8.80864,-95.9861)">
            <path d="M468.868,98.5L523,203L618,147.5L573.641,98.5L468.868,98.5Z" style="fill:rgb(206,205,205);fill-opacity:0.501961;fill-rule:nonzero;"/>
        </g>
        <g transform="matrix(0.978792,0,0,0.974482,-8.80864,-95.9861)">
            <path d="M825.742,150.75L724.303,201.412L675.036,98.5L777.275,98.5L825.742,150.75Z" style="fill:rgb(206,205,205);fill-opacity:0.501961;fill-rule:nonzero;"/>
        </g>
        <g transform="matrix(0.978792,0,0,0.974482,-8.80864,-95.9861)">
            <path d="M927.183,201.412L1029.25,147.5L979.219,98.5L874.445,98.5L927.183,201.412Z" style="fill:rgb(225,225,225);fill-opacity:0.501961;fill-rule:nonzero;"/>
        </g>
        <g transform="matrix(0.978792,0,0,0.974482,-8.80864,-95.9861)">
            <path d="M1080.6,98.5L1029.25,147.5L979.219,98.5L1080.6,98.5Z" style="fill:rgb(185,185,186);fill-opacity:0.501961;fill-rule:nonzero;"/>
        </g>
        <g transform="matrix(0.978792,0,0,0.974482,-8.80864,-95.9861)">
            <path d="M1186.29,98.5L1235,149.956L1137.58,201.412L1080.6,98.5L1186.29,98.5Z" style="fill:rgb(206,205,205);fill-opacity:0.501961;fill-rule:nonzero;"/>
        </g>
        <g transform="matrix(0.978792,0,0,0.974482,-8.80864,-95.9861)">
            <path d="M1235,98.5L1186.29,98.5L1235,149.956L1235,98.5Z" style="fill:rgb(165,164,165);fill-opacity:0.501961;fill-rule:nonzero;"/>
        </g>
        <g transform="matrix(0.978792,0,0,0.974482,-8.80864,-95.9861)">
            <path d="M1137.58,201.412L1183.91,302.916L1235,255.954L1235,149.956L1137.58,201.412Z" style="fill:rgb(225,225,225);fill-opacity:0.501961;fill-rule:nonzero;"/>
        </g>
        <g transform="matrix(0.978792,0,0,0.974482,-8.80864,-95.9861)">
            <path d="M1235,255.953L1183.91,302.916L1235,357.393L1235,255.953Z" style="fill:rgb(165,164,165);fill-opacity:0.501961;fill-rule:nonzero;"/>
        </g>
        <g transform="matrix(0.978792,0,0,0.974482,-8.80864,-95.9861)">
            <path d="M1235,357.393L1127.09,405C1127.09,405 1182.97,505.508 1186.29,505.508C1189.61,505.508 1235,459.88 1235,459.88L1235,357.393Z" style="fill:rgb(225,225,225);fill-opacity:0.501961;fill-rule:nonzero;"/>
        </g>
        <g transform="matrix(0.978792,0,0,0.974482,-8.80864,-95.9861)">
            <path d="M1186.29,505.508L1235,557.05L1235,459.88L1186.29,505.508Z" style="fill:rgb(165,164,165);fill-opacity:0.501961;fill-rule:nonzero;"/>
        </g>
        <g transform="matrix(0.978792,0,0,0.974482,-8.80864,-95.9861)">
            <path d="M1235,557.05L1132.15,606.902L1186.29,714.211L1235,665.203L1235,557.05Z" style="fill:rgb(225,225,225);fill-opacity:0.501961;fill-rule:nonzero;"/>
        </g>
        <g transform="matrix(0.978792,0,0,0.974482,-8.80864,-95.9861)">
            <path d="M1235,665.203L1186.29,714.211L1235,714.211L1235,665.203Z" style="fill:rgb(185,185,186);fill-opacity:0.501961;fill-rule:nonzero;"/>
        </g>
        <g transform="matrix(0.978792,0,0,0.974482,-8.80864,-95.9861)">
            <path d="M1132.15,606.901C1127.93,609.436 1031.61,660.556 1031.61,660.556L1080.61,714.211L1186.29,714.211L1132.15,606.901Z" style="fill:rgb(165,164,165);fill-opacity:0.501961;fill-rule:nonzero;"/>
        </g>
        <g transform="matrix(0.978792,0,0,0.974482,-8.80864,-95.9861)">
            <path d="M979.219,714.211L1031.61,660.557L1080.61,714.211L979.219,714.211Z" style="fill:rgb(185,185,186);fill-opacity:0.501961;fill-rule:nonzero;"/>
        </g>
        <g transform="matrix(0.978792,0,0,0.974482,-8.80864,-95.9861)">
            <path d="M927.676,611.128L827.127,665.203L874.445,714.211L979.219,714.211L927.676,611.128Z" style="fill:rgb(206,205,205);fill-opacity:0.501961;fill-rule:nonzero;"/>
        </g>
        <g transform="matrix(0.978792,0,0,0.974482,-8.80864,-95.9861)">
            <path d="M777.275,714.211L874.444,714.211L827.127,665.203L777.275,714.211Z" style="fill:rgb(165,164,165);fill-opacity:0.501961;fill-rule:nonzero;"/>
        </g>
        <g transform="matrix(0.978792,0,0,0.974482,-8.80864,-95.9861)">
            <path d="M722.353,611.128L621.999,662.67L675.036,714.211L777.276,714.211L722.353,611.128Z" style="fill:rgb(165,164,165);fill-opacity:0.501961;fill-rule:nonzero;"/>
        </g>
        <g transform="matrix(0.978792,0,0,0.974482,-8.80864,-95.9861)">
            <path d="M573.642,714.211L622,662.67L675.037,714.211" style="fill:rgb(185,185,186);fill-opacity:0.501961;fill-rule:nonzero;"/>
        </g>
        <g transform="matrix(0.978792,0,0,0.974482,-8.80864,-95.9861)">
            <path d="M519.565,611.128L417.326,665.203L468.868,714.211L573.641,714.211L519.565,611.128Z" style="fill:rgb(165,164,165);fill-opacity:0.501961;fill-rule:nonzero;"/>
        </g>
        <g transform="matrix(0.978792,0,0,0.974482,-8.80864,-95.9861)">
            <path d="M417.326,665.203L364.094,714.211L468.868,714.211L417.326,665.203Z" style="fill:rgb(185,185,186);fill-opacity:0.501961;fill-rule:nonzero;"/>
        </g>
        <g transform="matrix(0.978792,0,0,0.974482,-8.80864,-95.9861)">
            <path d="M315.087,611.128C308.327,615.354 213.693,662.67 213.693,662.67L261.01,714.211L364.094,714.211L315.087,611.128Z" style="fill:rgb(225,225,225);fill-opacity:0.501961;fill-rule:nonzero;"/>
        </g>
        <g transform="matrix(0.978792,0,0,0.974482,-8.80864,-95.9861)">
            <path d="M213.693,662.67C212.003,665.205 161.968,714.211 161.968,714.211L261.01,714.211L213.693,662.67Z" style="fill:rgb(165,164,165);fill-opacity:0.501961;fill-rule:nonzero;"/>
        </g>
        <g transform="matrix(0.978792,0,0,0.974482,-8.80864,-95.9861)">
            <path d="M110.608,616.197L9,665.203L64.135,714.211L161.968,714.211L110.608,616.197Z" style="fill:rgb(165,164,165);fill-opacity:0.501961;fill-rule:nonzero;"/>
        </g>
        <g transform="matrix(0.978792,0,0,0.974482,-8.80864,-95.9861)">
            <path d="M9,665.203L64.136,714.211L9,714.211" style="fill:rgb(206,205,205);fill-opacity:0.501961;fill-rule:nonzero;"/>
        </g>
        <g transform="matrix(0.978792,0,0,0.974482,-8.80864,-95.9861)">
            <path d="M58.667,511.023L9,557.049L9,665.203L110.608,616.197L58.667,511.023Z" style="fill:rgb(185,185,186);fill-opacity:0.501961;fill-rule:nonzero;"/>
        </g>
        <g transform="matrix(0.978792,0,0,0.974482,-8.80864,-95.9861)">
            <path d="M9,459.88L9,557.05L58.667,511.024L9,459.88Z" style="fill:rgb(206,205,205);fill-opacity:0.501961;fill-rule:nonzero;"/>
        </g>
        <g transform="matrix(0.978792,0,0,0.974482,-8.80864,-95.9861)">
            <path d="M110.608,405L9,459.88L9,356.667L58.666,301.667L110.608,405Z" style="fill:rgb(185,185,186);fill-opacity:0.501961;fill-rule:nonzero;"/>
        </g>
        <g transform="matrix(0.978792,0,0,0.974482,-8.80864,-95.9861)">
            <path d="M9,255.953L9,357.393L58.667,301.667L9,255.953Z" style="fill:rgb(165,164,165);fill-opacity:0.501961;fill-rule:nonzero;"/>
        </g>
        <g transform="matrix(0.978792,0,0,0.974482,-8.80864,-95.9861)">
            <path d="M777.275,98.5L825.742,150.75L927.182,201.412L874.444,98.5L777.275,98.5Z" style="fill:rgb(165,164,165);fill-opacity:0.501961;fill-rule:nonzero;"/>
        </g>
        <g transform="matrix(0.978792,0,0,0.974482,-8.80864,-95.9861)">
            <path d="M261.01,98.5L212.333,149.792C212.333,149.792 214.426,252.333 215.666,252.333C216.907,252.333 314.501,201.412 314.501,201.412L261.01,98.5Z" style="fill:rgb(165,164,165);fill-opacity:0.501961;fill-rule:nonzero;"/>
        </g>
        <g transform="matrix(0.978792,0,0,0.974482,-8.80864,-95.9861)">
            <path d="M215.666,252.334L160.666,301.667L215.666,353.891L215.666,252.334Z" style="fill:rgb(185,185,186);fill-opacity:0.501961;fill-rule:nonzero;"/>
        </g>
        <g transform="matrix(0.978792,0,0,0.974482,-8.80864,-95.9861)">
            <path d="M58.667,301.667L110.609,405L215.667,353.891L160.667,301.667L58.667,301.667Z" style="fill:rgb(206,205,205);fill-opacity:0.501961;fill-rule:nonzero;"/>
        </g>
        <g transform="matrix(0.978792,0,0,0.974482,-8.80864,-95.9861)">
            <path d="M110.608,405L9,459.88L161.968,506.521L110.608,405Z" style="fill:rgb(185,185,186);fill-opacity:0.501961;fill-rule:nonzero;"/>
        </g>
        <g transform="matrix(0.978792,0,0,0.974482,-8.80864,-95.9861)">
            <path d="M9,459.88C10.732,462.776 58.667,511.024 58.667,511.024L161.968,506.522L9,459.88Z" style="fill:rgb(206,205,205);fill-opacity:0.501961;fill-rule:nonzero;"/>
        </g>
        <g transform="matrix(0.978792,0,0,0.974482,-8.80864,-95.9861)">
            <path d="M58.667,511.023L110.608,616.197L213.693,560.293L161.968,506.521L58.667,511.023Z" style="fill:rgb(225,225,225);fill-opacity:0.501961;fill-rule:nonzero;"/>
        </g>
        <g transform="matrix(0.978792,0,0,0.974482,-8.80864,-95.9861)">
            <path d="M110.608,616.197L161.968,714.211L213.692,662.67L110.608,616.197Z" style="fill:rgb(185,185,186);fill-opacity:0.501961;fill-rule:nonzero;"/>
        </g>
        <g transform="matrix(0.978792,0,0,0.974482,-8.80864,-95.9861)">
            <path d="M213.693,560.293L110.609,616.197L213.693,662.67L315.087,611.128L213.693,560.293Z" style="fill:rgb(206,205,205);fill-opacity:0.501961;fill-rule:nonzero;"/>
        </g>
        <g transform="matrix(0.978792,0,0,0.974482,-8.80864,-95.9861)">
            <path d="M315.087,611.128L364.094,714.211L417.326,665.203L413.538,611.128L315.087,611.128Z" style="fill:rgb(165,164,165);fill-opacity:0.501961;fill-rule:nonzero;"/>
        </g>
        <g transform="matrix(0.978792,0,0,0.974482,-8.80864,-95.9861)">
            <path d="M417.326,458.127L413.537,611.128L417.326,665.203L519.565,611.128L417.326,458.127Z" style="fill:rgb(185,185,186);fill-opacity:0.501961;fill-rule:nonzero;"/>
        </g>
        <g transform="matrix(0.978792,0,0,0.974482,-8.80864,-95.9861)">
            <path d="M519.565,611.128L670.817,507.349L624.338,661.469L573.641,714.211L519.565,611.128Z" style="fill:rgb(225,225,225);fill-opacity:0.501961;fill-rule:nonzero;"/>
        </g>
        <g transform="matrix(0.978792,0,0,0.974482,-8.80864,-95.9861)">
            <path d="M670.817,507.349L622,662.67L722.353,611.128L825.859,561.665L670.817,507.349Z" style="fill:rgb(206,205,205);fill-opacity:0.501961;fill-rule:nonzero;"/>
        </g>
        <g transform="matrix(0.978792,0,0,0.974482,-8.80864,-95.9861)">
            <path d="M722.353,611.128L777.276,714.211L827.127,665.203L722.353,611.128Z" style="fill:rgb(185,185,186);fill-opacity:0.501961;fill-rule:nonzero;"/>
        </g>
        <g transform="matrix(0.978792,0,0,0.974482,-8.80864,-95.9861)">
            <path d="M825.859,561.665L722.353,611.128L827.127,665.203L825.859,561.665Z" style="fill:rgb(185,185,186);fill-opacity:0.501961;fill-rule:nonzero;"/>
        </g>
        <g transform="matrix(0.978792,0,0,0.974482,-8.80864,-95.9861)">
            <path d="M825.859,561.665L827.127,665.203L927.675,611.128L825.859,561.665Z" style="fill:rgb(206,205,205);fill-opacity:0.501961;fill-rule:nonzero;"/>
        </g>
        <g transform="matrix(0.978792,0,0,0.974482,-8.80864,-95.9861)">
            <path d="M1033.57,555.744L927.676,611.128L979.219,714.211L1031.61,660.557L1033.57,555.744Z" style="fill:rgb(225,225,225);fill-opacity:0.501961;fill-rule:nonzero;"/>
        </g>
        <g transform="matrix(0.978792,0,0,0.974482,-8.80864,-95.9861)">
            <path d="M1080.61,507.349L1033.57,555.745L1031.61,660.557L1132.15,606.902L1080.61,507.349Z" style="fill:rgb(185,185,186);fill-opacity:0.501961;fill-rule:nonzero;"/>
        </g>
        <g transform="matrix(0.978792,0,0,0.974482,-8.80864,-95.9861)">
            <path d="M1080.61,507.349L1031.61,461.851L1186.29,505.508L1235,557.05L1132.15,606.902L1080.61,507.349Z" style="fill:rgb(206,205,205);fill-opacity:0.501961;fill-rule:nonzero;"/>
        </g>
        <g transform="matrix(0.978792,0,0,0.974482,-8.80864,-95.9861)">
            <path d="M1031.61,461.851L979.219,510.83L1033.58,555.745L1080.61,507.349L1031.61,461.851Z" style="fill:rgb(165,164,165);fill-opacity:0.501961;fill-rule:nonzero;"/>
        </g>
        <g transform="matrix(0.978792,0,0,0.974482,-8.80864,-95.9861)">
            <path d="M1127.09,405L1031.61,461.851L1186.29,505.508L1127.09,405Z" style="fill:rgb(165,164,165);fill-opacity:0.501961;fill-rule:nonzero;"/>
        </g>
        <g transform="matrix(0.978792,0,0,0.974482,-8.80864,-95.9861)">
            <path d="M1056.28,295.928L1127.09,405L1235,357.393L1183.91,302.916L1056.28,295.928Z" style="fill:rgb(206,205,205);fill-opacity:0.501961;fill-rule:nonzero;"/>
        </g>
        <g transform="matrix(0.978792,0,0,0.974482,-8.80864,-95.9861)">
            <path d="M1137.58,201.412C1135.05,203.245 1045.29,259.271 1045.29,259.271L1056.28,295.928L1183.91,302.916L1137.58,201.412Z" style="fill:rgb(165,164,165);fill-opacity:0.501961;fill-rule:nonzero;"/>
        </g>
        <g transform="matrix(0.978792,0,0,0.974482,-8.80864,-95.9861)">
            <path d="M1080.6,98.5L1029.25,147.5L1045.29,259.271L1137.58,201.412L1080.6,98.5Z" style="fill:rgb(185,185,186);fill-opacity:0.501961;fill-rule:nonzero;"/>
        </g>
        <g transform="matrix(0.978792,0,0,0.974482,-8.80864,-95.9861)">
            <path d="M1029.25,147.5L980.625,298.218L1045.29,259.271L1029.25,147.5Z" style="fill:rgb(206,205,205);fill-opacity:0.501961;fill-rule:nonzero;"/>
        </g>
        <g transform="matrix(0.978792,0,0,0.974482,-8.80864,-95.9861)">
            <path d="M1045.29,259.271L980.625,298.218L1056.28,295.928L1045.29,259.271Z" style="fill:rgb(206,205,205);fill-opacity:0.501961;fill-rule:nonzero;"/>
        </g>
        <g transform="matrix(0.978792,0,0,0.974482,-8.80864,-95.9861)">
            <path d="M1033.57,357.393L1031.61,461.851L1127.09,405L1056.28,295.928L1033.57,357.393Z" style="fill:rgb(185,185,186);fill-opacity:0.501961;fill-rule:nonzero;"/>
        </g>
        <g transform="matrix(0.978792,0,0,0.974482,-8.80864,-95.9861)">
            <path d="M1056.28,295.928C1053.99,297.303 980.625,298.219 980.625,298.219L1033.57,357.393L1056.28,295.928Z" style="fill:rgb(185,185,186);fill-opacity:0.501961;fill-rule:nonzero;"/>
        </g>
        <g transform="matrix(0.978792,0,0,0.974482,-8.80864,-95.9861)">
            <path d="M1029.25,147.5C1025.21,151.166 927.183,201.412 927.183,201.412L902.785,300.511L980.625,298.218L1029.25,147.5Z" style="fill:rgb(185,185,186);fill-opacity:0.501961;fill-rule:nonzero;"/>
        </g>
        <g transform="matrix(0.978792,0,0,0.974482,-8.80864,-95.9861)">
            <path d="M980.625,298.218C979.217,298.676 902.785,300.51 902.785,300.51L897.286,381.614L945.856,461.85L980.625,298.218Z" style="fill:rgb(206,205,205);fill-opacity:0.501961;fill-rule:nonzero;"/>
        </g>
        <g transform="matrix(0.978792,0,0,0.974482,-8.80864,-95.9861)">
            <path d="M980.625,298.218L945.856,461.85L1033.57,357.393L980.625,298.218Z" style="fill:rgb(206,205,205);fill-opacity:0.501961;fill-rule:nonzero;"/>
        </g>
        <g transform="matrix(0.978792,0,0,0.974482,-8.80864,-95.9861)">
            <path d="M1033.57,357.393L945.856,461.851L979.219,510.829L1031.61,461.851L1033.57,357.393Z" style="fill:rgb(225,225,225);fill-opacity:0.501961;fill-rule:nonzero;"/>
        </g>
        <g transform="matrix(0.978792,0,0,0.974482,-8.80864,-95.9861)">
            <path d="M883.539,510.829L927.676,611.128L1033.57,555.744L979.219,510.829L883.539,510.829Z" style="fill:rgb(206,205,205);fill-opacity:0.501961;fill-rule:nonzero;"/>
        </g>
        <g transform="matrix(0.978792,0,0,0.974482,-8.80864,-95.9861)">
            <path d="M883.539,510.829L825.859,561.665L927.676,611.128L883.539,510.829Z" style="fill:rgb(165,164,165);fill-opacity:0.501961;fill-rule:nonzero;"/>
        </g>
        <g transform="matrix(0.978792,0,0,0.974482,-8.80864,-95.9861)">
            <path d="M825.859,459.968L945.856,461.851L883.539,510.829L825.859,459.968Z" style="fill:rgb(165,164,165);fill-opacity:0.501961;fill-rule:nonzero;"/>
        </g>
        <g transform="matrix(0.978792,0,0,0.974482,-8.80864,-95.9861)">
            <path d="M897.286,381.614L825.859,459.968L945.856,461.851L897.286,381.614Z" style="fill:rgb(165,164,165);fill-opacity:0.501961;fill-rule:nonzero;"/>
        </g>
        <g transform="matrix(0.978792,0,0,0.974482,-8.80864,-95.9861)">
            <path d="M777.275,505.508L883.539,510.829L825.859,561.665L777.275,505.508Z" style="fill:rgb(165,164,165);fill-opacity:0.501961;fill-rule:nonzero;"/>
        </g>
        <g transform="matrix(0.978792,0,0,0.974482,-8.80864,-95.9861)">
            <path d="M777.275,505.508L825.859,459.968L883.539,510.829L777.275,505.508Z" style="fill:rgb(185,185,186);fill-opacity:0.501961;fill-rule:nonzero;"/>
        </g>
        <g transform="matrix(0.978792,0,0,0.974482,-8.80864,-95.9861)">
            <path d="M979.219,510.829L883.539,510.829L945.857,461.85L979.219,510.829Z" style="fill:rgb(165,164,165);fill-opacity:0.501961;fill-rule:nonzero;"/>
        </g>
        <g transform="matrix(0.978792,0,0,0.974482,-8.80864,-95.9861)">
            <path d="M777.275,505.508L670.817,507.349L825.859,561.665L777.275,505.508Z" style="fill:rgb(185,185,186);fill-opacity:0.501961;fill-rule:nonzero;"/>
        </g>
        <g transform="matrix(0.978792,0,0,0.974482,-8.80864,-95.9861)">
            <path d="M902.785,300.511L825.859,459.968L897.286,381.614L902.785,300.511Z" style="fill:rgb(165,164,165);fill-opacity:0.501961;fill-rule:nonzero;"/>
        </g>
        <g transform="matrix(0.978792,0,0,0.974482,-8.80864,-95.9861)">
            <path d="M723.93,408.667L617.334,455.254L670.818,507.349L777.276,505.508L723.93,408.667Z" style="fill:rgb(185,185,186);fill-opacity:0.501961;fill-rule:nonzero;"/>
        </g>
        <g transform="matrix(0.978792,0,0,0.974482,-8.80864,-95.9861)">
            <path d="M842.667,350.464L723.93,408.667L777.275,505.508L825.859,459.968L842.667,350.464Z" style="fill:rgb(225,225,225);fill-opacity:0.501961;fill-rule:nonzero;"/>
        </g>
        <g transform="matrix(0.978792,0,0,0.974482,-8.80864,-95.9861)">
            <path d="M832.667,252.164L842.667,350.464L902.785,300.511L832.667,252.164Z" style="fill:rgb(206,205,205);fill-opacity:0.501961;fill-rule:nonzero;"/>
        </g>
        <g transform="matrix(0.978792,0,0,0.974482,-8.80864,-95.9861)">
            <path d="M902.785,300.511L842.667,350.464L825.859,459.968L902.785,300.511Z" style="fill:rgb(206,205,205);fill-opacity:0.501961;fill-rule:nonzero;"/>
        </g>
        <g transform="matrix(0.978792,0,0,0.974482,-8.80864,-95.9861)">
            <path d="M825.742,150.75L832.667,252.164L902.785,300.511L927.182,201.412L825.742,150.75Z" style="fill:rgb(225,225,225);fill-opacity:0.501961;fill-rule:nonzero;"/>
        </g>
        <g transform="matrix(0.978792,0,0,0.974482,-8.80864,-95.9861)">
            <path d="M832.667,252.164L777.275,300.511L842.667,350.464L832.667,252.164Z" style="fill:rgb(165,164,165);fill-opacity:0.501961;fill-rule:nonzero;"/>
        </g>
        <g transform="matrix(0.978792,0,0,0.974482,-8.80864,-95.9861)">
            <path d="M825.742,150.75L777.275,300.511L832.667,252.164L825.742,150.75Z" style="fill:rgb(165,164,165);fill-opacity:0.501961;fill-rule:nonzero;"/>
        </g>
        <g transform="matrix(0.978792,0,0,0.974482,-8.80864,-95.9861)">
            <path d="M777.275,300.511L676.525,302.916L723.929,408.667L842.667,350.464L777.275,300.511Z" style="fill:rgb(206,205,205);fill-opacity:0.501961;fill-rule:nonzero;"/>
        </g>
        <g transform="matrix(0.978792,0,0,0.974482,-8.80864,-95.9861)">
            <path d="M724.303,201.412L625.771,252.164L622,350.464L676.526,302.916L777.276,300.511L724.303,201.412Z" style="fill:rgb(185,185,186);fill-opacity:0.501961;fill-rule:nonzero;"/>
        </g>
        <g transform="matrix(0.978792,0,0,0.974482,-8.80864,-95.9861)">
            <path d="M825.742,150.75L724.303,201.412L777.275,300.511L825.742,150.75Z" style="fill:rgb(225,225,225);fill-opacity:0.501961;fill-rule:nonzero;"/>
        </g>
        <g transform="matrix(0.978792,0,0,0.974482,-8.80864,-95.9861)">
            <path d="M618,147.5L625.771,252.164L724.303,201.412L618,147.5Z" style="fill:rgb(165,164,165);fill-opacity:0.501961;fill-rule:nonzero;"/>
        </g>
        <g transform="matrix(0.978792,0,0,0.974482,-8.80864,-95.9861)">
            <path d="M675.036,98.5L618,147.5L724.303,201.412L675.036,98.5Z" style="fill:rgb(185,185,186);fill-opacity:0.501961;fill-rule:nonzero;"/>
        </g>
        <g transform="matrix(0.978792,0,0,0.974482,-8.80864,-95.9861)">
            <path d="M618,147.5C618,147.5 523,201.692 523,203C523,204.308 625.771,252.164 625.771,252.164L618,147.5Z" style="fill:rgb(225,225,225);fill-opacity:0.501961;fill-rule:nonzero;"/>
        </g>
        <g transform="matrix(0.978792,0,0,0.974482,-8.80864,-95.9861)">
            <path d="M523,203L622,350.464L625.771,252.164L523,203Z" style="fill:rgb(225,225,225);fill-opacity:0.501961;fill-rule:nonzero;"/>
        </g>
        <g transform="matrix(0.978792,0,0,0.974482,-8.80864,-95.9861)">
            <path d="M676.525,302.916C676.525,302.916 622,348.853 622,350.464C622,352.075 617.333,455.254 617.333,455.254L723.929,408.667L676.525,302.916Z" style="fill:rgb(165,164,165);fill-opacity:0.501961;fill-rule:nonzero;"/>
        </g>
        <g transform="matrix(0.978792,0,0,0.974482,-8.80864,-95.9861)">
            <path d="M519.565,405L417.326,458.127L519.565,611.128L670.817,507.349L617.333,455.254L519.565,405Z" style="fill:rgb(206,205,205);fill-opacity:0.501961;fill-rule:nonzero;"/>
        </g>
        <g transform="matrix(0.978792,0,0,0.974482,-8.80864,-95.9861)">
            <path d="M468.868,304.633L519.565,405L617.333,455.254L622,350.464L468.868,304.633Z" style="fill:rgb(185,185,186);fill-opacity:0.501961;fill-rule:nonzero;"/>
        </g>
        <g transform="matrix(0.978792,0,0,0.974482,-8.80864,-95.9861)">
            <path d="M468.868,304.633L523,203L416.5,151.25L407.844,263.143L468.868,304.633Z" style="fill:rgb(165,164,165);fill-opacity:0.501961;fill-rule:nonzero;"/>
        </g>
        <g transform="matrix(0.978792,0,0,0.974482,-8.80864,-95.9861)">
            <path d="M523,203C523,203 468.868,302.109 468.868,304.633C468.868,307.157 622,350.464 622,350.464L523,203Z" style="fill:rgb(165,164,165);fill-opacity:0.501961;fill-rule:nonzero;"/>
        </g>
        <g transform="matrix(0.978792,0,0,0.974482,-8.80864,-95.9861)">
            <path d="M416.5,151.25C414.486,153.264 314.5,201.412 314.5,201.412L407.844,263.143L416.5,151.25Z" style="fill:rgb(225,225,225);fill-opacity:0.501961;fill-rule:nonzero;"/>
        </g>
        <g transform="matrix(0.978792,0,0,0.974482,-8.80864,-95.9861)">
            <path d="M314.501,201.412L364.793,304.633L468.869,304.633L314.501,201.412Z" style="fill:rgb(206,205,205);fill-opacity:0.501961;fill-rule:nonzero;"/>
        </g>
        <g transform="matrix(0.978792,0,0,0.974482,-8.80864,-95.9861)">
            <path d="M315.087,401C314.281,406.64 280.15,535.854 280.15,535.854L413.538,611.128L417.326,458.127L315.087,401Z" style="fill:rgb(206,205,205);fill-opacity:0.501961;fill-rule:nonzero;"/>
        </g>
        <g transform="matrix(0.978792,0,0,0.974482,-8.80864,-95.9861)">
            <path d="M213.693,433.538L213.693,560.293L280.15,535.853L213.693,433.538Z" style="fill:rgb(225,225,225);fill-opacity:0.501961;fill-rule:nonzero;"/>
        </g>
        <g transform="matrix(0.978792,0,0,0.974482,-8.80864,-95.9861)">
            <path d="M215.666,353.891C216.069,356.711 213.693,433.538 213.693,433.538L280.15,535.854L315.087,401L215.666,353.891Z" style="fill:rgb(165,164,165);fill-opacity:0.501961;fill-rule:nonzero;"/>
        </g>
        <g transform="matrix(0.978792,0,0,0.974482,-8.80864,-95.9861)">
            <path d="M213.693,433.538C213.693,433.538 162.371,507.729 161.968,506.521C161.566,505.313 110.609,405 110.609,405L215.666,353.891L213.693,433.538Z" style="fill:rgb(225,225,225);fill-opacity:0.501961;fill-rule:nonzero;"/>
        </g>
        <g transform="matrix(0.978792,0,0,0.974482,-8.80864,-95.9861)">
            <path d="M213.693,433.538L161.968,506.521L213.693,560.293L213.693,433.538Z" style="fill:rgb(165,164,165);fill-opacity:0.501961;fill-rule:nonzero;"/>
        </g>
        <g transform="matrix(0.978792,0,0,0.974482,-8.80864,-95.9861)">
            <path d="M280.15,535.853L213.693,560.292L315.087,611.127L413.538,611.127L280.15,535.853Z" style="fill:rgb(206,205,205);fill-opacity:0.501961;fill-rule:nonzero;"/>
        </g>
        <g transform="matrix(0.978792,0,0,0.974482,-8.80864,-95.9861)">
            <path d="M468.868,304.633C466.854,305.439 315.087,401 315.087,401L417.326,458.127L519.565,405L468.868,304.633Z" style="fill:rgb(225,225,225);fill-opacity:0.501961;fill-rule:nonzero;"/>
        </g>
        <g transform="matrix(0.978792,0,0,0.974482,-8.80864,-95.9861)">
            <path d="M215.666,252.334C215.264,253.542 215.666,353.891 215.666,353.891L263.417,304.633L215.666,252.334Z" style="fill:rgb(225,225,225);fill-opacity:0.501961;fill-rule:nonzero;"/>
        </g>
        <g transform="matrix(0.978792,0,0,0.974482,-8.80864,-95.9861)">
            <path d="M263.417,304.633C263.014,306.244 215.666,353.891 215.666,353.891L315.087,401L263.417,304.633Z" style="fill:rgb(185,185,186);fill-opacity:0.501961;fill-rule:nonzero;"/>
        </g>
        <g transform="matrix(0.978792,0,0,0.974482,-8.80864,-95.9861)">
            <path d="M314.501,201.412C314.501,201.412 215.458,252.33 215.666,252.334C215.875,252.337 263.418,304.633 263.418,304.633L364.793,304.633L314.501,201.412Z" style="fill:rgb(185,185,186);fill-opacity:0.501961;fill-rule:nonzero;"/>
        </g>
        <g transform="matrix(0.978792,0,0,0.974482,-8.80864,-95.9861)">
            <path d="M468.868,304.633L263.417,304.633L315.087,401L468.868,304.633Z" style="fill:rgb(206,205,205);fill-opacity:0.501961;fill-rule:nonzero;"/>
        </g>
    </g>
    <g id="Layer-2" transform="matrix(4.16667,0,0,4.16667,0,0)">
        <g transform="matrix(0.978792,0,0,0.974482,-8.80864,-95.9861)">
            <path d="M9,98.5L64.136,98.5L9,149.956L9,98.5Z" style="fill:rgb(225,225,225);fill-opacity:0.501961;fill-rule:nonzero;"/>
        </g>
        <g transform="matrix(0.978792,0,0,0.974482,-8.80864,-95.9861)">
            <path d="M64.136,98.5L111.334,201.667L212.333,149.792L161.969,98.5L64.136,98.5Z" style="fill:rgb(206,205,205);fill-opacity:0.501961;fill-rule:nonzero;"/>
        </g>
        <g transform="matrix(0.978792,0,0,0.974482,-8.80864,-95.9861)">
            <path d="M161.968,98.5L212.333,149.792L261.01,98.5" style="fill:rgb(185,185,186);fill-opacity:0.501961;fill-rule:nonzero;"/>
        </g>
        <g transform="matrix(0.978792,0,0,0.974482,-8.80864,-95.9861)">
            <path d="M160.666,301.667L8.999,255.953L58.666,301.667L160.666,301.667Z" style="fill:rgb(206,205,205);fill-opacity:0.501961;fill-rule:nonzero;"/>
        </g>
        <g transform="matrix(0.978792,0,0,0.974482,-8.80864,-95.9861)">
            <path d="M215.666,252.334L160.666,301.667L111.333,201.667L215.666,252.334Z" style="fill:rgb(225,225,225);fill-opacity:0.501961;fill-rule:nonzero;"/>
        </g>
        <g transform="matrix(0.978792,0,0,0.974482,-8.80864,-95.9861)">
            <path d="M573.642,98.5L618,147.5L675.037,98.5" style="fill:rgb(165,164,165);fill-opacity:0.501961;fill-rule:nonzero;"/>
        </g>
        <g transform="matrix(0.978792,0,0,0.974482,-8.80864,-95.9861)">
            <path d="M9,255.953L9,149.956L64.136,98.5L111.333,201.667L9,255.953Z" style="fill:rgb(165,164,165);fill-opacity:0.501961;fill-rule:nonzero;"/>
        </g>
    </g>
</svg>
