<svg xmlns="http://www.w3.org/2000/svg" viewBox="0 0 167.08 242.67" version="1"><g fill="#fb0f0c" stroke="#000"><path fill="#fff" stroke-width=".5" d="M166.83 235.55c0 3.77-3.1 6.87-6.87 6.87H7.1c-3.76 0-6.85-3.1-6.85-6.87V7.12C.25 3.34 3.35.25 7.1.25h152.86c3.78 0 6.87 3.1 6.87 6.87v228.43z" transform="matrix(1 0 0 1.003 0 -.363)"/><path fill-rule="evenodd" stroke="#fb0f0c" stroke-width=".03" stroke-miterlimit="10" d="M27.63 32.6h103.45c.8 0 8.63-.36 8.63.3v174.87c0 .26.2 1.42-.1 1.42H28.3c-1.45 0-.67-4.1-.67-5.3V32.6" transform="matrix(1 0 0 1.003 0 -.363)"/><path fill="#fff" fill-rule="evenodd" stroke="#fff" stroke-width=".03" stroke-miterlimit="10" d="M61.66 96.1c4.47 0 44.03-.33 44.03.3v50.27c0 .5-44.1.06-44.1.2V96.1" transform="matrix(1 0 0 1.003 0 -.363)"/><path fill="#fff" fill-rule="evenodd" stroke="#fff" stroke-width=".03" stroke-miterlimit="10" d="M83.67 91.47l-13 15-8.78 10.12c-.7.7-4.3 3.8-4.3 4.8s3.3 3.7 3.9 4.5c3 3.5 6.1 7 9.1 10.5 4.3 5 8.7 10 13 15l13-15 8.8-10.1c.7-.8 4.2-3.8 4.2-4.9 0-1-3.3-3.8-3.9-4.5l-9.1-10.5-13-15" transform="matrix(1 0 0 1.003 0 -.363)"/><path fill-rule="evenodd" stroke="#fb0f0c" stroke-width=".03" stroke-miterlimit="10" d="M63.66 98.4h38.23c2.3 0 1.7.2 1.7 2.5v42.33c0 2.1-1.2 1.33-3.2 1.33H64.6c-1.6 0-1-1.02-1-2.5V98.4" transform="matrix(1 0 0 1.003 0 -.363)"/><path fill-rule="evenodd" stroke="#fb0f0c" stroke-width=".03" stroke-miterlimit="10" d="M83.67 93.78l-11.78 13.6-8.4 9.67c-.7.7-3.9 3.44-3.9 4.43 0 .9 2.9 3.4 3.5 4.04l8.3 9.55 12.2 14.1 11.8-13.57 8.4-9.7c.6-.7 3.8-3.5 3.8-4.47 0-.9-3-3.4-3.5-4.04l-8.3-9.6-12.2-14.1" transform="matrix(1 0 0 1.003 0 -.363)"/><path fill="#fff" fill-rule="evenodd" stroke="#fff" stroke-width=".03" stroke-miterlimit="10" d="M67.66 103h26.07c1.1 0 5.95-.72 5.95.6v11.75c0 1.73.02 24.6-.02 24.6h-26.6c-1.06 0-5.4.72-5.4-.6V103" transform="matrix(1 0 0 1.003 0 -.363)"/><path fill="#fff" fill-rule="evenodd" stroke="#fff" stroke-width=".03" stroke-miterlimit="10" d="M83.67 98.4l-10 11.54-6.7 7.73c-.54.6-3.3 2.96-3.3 3.8 0 .77 2.47 2.88 2.95 3.42l7.05 8.1 10 11.5 10-11.6 6.7-7.8c.54-.6 3.3-3 3.3-3.8 0-.8-2.47-2.9-2.94-3.4l-7.05-8.2-10-11.6" transform="matrix(1 0 0 1.003 0 -.363)"/><path fill-rule="evenodd" stroke="#fb0f0c" stroke-width=".03" stroke-miterlimit="10" d="M69.66 105.32h25.6c3.1 0 2.42.27 2.42 3.36v28.3c0 1.5-5.24.66-6.46.66H74.98c-1.9 0-5.32 1.1-5.32-1.17v-31.15" transform="matrix(1 0 0 1.003 0 -.363)"/><path fill-rule="evenodd" stroke="#fb0f0c" stroke-width=".03" stroke-miterlimit="10" d="M83.67 100.7l-8.78 10.13-6.4 7.3c-.5.54-2.9 2.6-2.9 3.35 0 .66 2.1 2.48 2.5 2.95l6.2 7.17 9.2 10.65 8.7-10.12 6.3-7.3c.4-.54 2.9-2.6 2.9-3.35 0-.66-2.2-2.48-2.6-2.95l-6.2-7.17-9.3-10.65" transform="matrix(1 0 0 1.003 0 -.363)"/><path fill="#fff" fill-rule="evenodd" stroke="#fff" stroke-width=".03" stroke-miterlimit="10" d="M83.67 103l-7.78 9-5.5 6.3c-.5.5-2.8 2.47-2.8 3.18 0 .62 2 2.34 2.4 2.8 1.8 2.05 3.5 4.1 5.3 6.17l8.2 9.5 7.8-8.98 5.4-6.3c.4-.52 2.7-2.48 2.7-3.2 0-.6-2.1-2.33-2.4-2.78l-5.4-6.2-8.3-9.5" transform="matrix(1 0 0 1.003 0 -.363)"/><path fill="#fff" fill-rule="evenodd" stroke="#fff" stroke-width=".03" stroke-miterlimit="10" d="M71.66 107.63h23.92c.2 0 .1 22.66.1 24.82 0 .44.3 2.54 0 2.88-.35.38-3.26 0-3.75 0H71.77c-.24 0-.1-2.2-.1-2.45v-25.25" transform="matrix(1 0 0 1.003 0 -.363)"/><path fill-rule="evenodd" stroke="none" d="M83.67 107.63l-6 6.92-4.13 4.77c-.3.34-1.88 1.68-1.88 2.16 0 .48 1.58 1.82 1.88 2.16l4.13 4.76 6 6.93 6-6.93 4.13-4.76c.3-.34 1.88-1.68 1.88-2.16 0-.48-1.58-1.82-1.88-2.16l-4.12-4.77-6-6.92" transform="matrix(1 0 0 1.003 0 -.363)"/><path fill="#fff" fill-rule="evenodd" stroke="#fff" stroke-width=".03" stroke-miterlimit="10" d="M113.7 93.78h-4c1.32 1.54 2.66 3.08 4 4.62v-4.62m0 6.92l-4-4.6v4.48c0 .27 3.48.13 4 .13m-60.05-6.9h4l-4 4.7v-4.7m0 7l4-4.6v4.5c0 .3-3.48.2-4 .2m4 41.6h-4l4 4.6v-4.6m0 7l-4-4.6v4.5c0 .3 3.5.1 4 .1m52.05-6.9h4l-4 4.6v-4.6m0 7l4-4.6v4.5c0 .3-3.5.1-4 .1m-52.05-23.1h-4l4 4.6v-4.6m0 6.9l-4-4.6v4.5c0 .3 3.5.1 4 .1m-4-23.1h4l-4 4.6V110m0 6.9l4-4.6v4.47c0 .27-3.48.13-4 .13m60.05-6.94h-4c1.32 1.54 2.66 3.08 4 4.6v-4.6m0 6.92l-4-4.6v4.46c0 .27 3.48.13 4 .13m-4 9.23h4l-4 4.6v-4.6m0 6.92c1.32-1.54 2.66-3.08 4-4.62v4.5c0 .26-3.5.12-4 .12" transform="matrix(1 0 0 1.003 0 -.363)"/><path fill-rule="evenodd" stroke="none" d="M69.7 24.82c-.8-2.02-1.67-4.1-2.23-6.2-.5-1.9-.9-6.56 1.63-7.48 2.43-.87 3.3 3.33 3.28 5-.05 2.47-1.23 5-2.12 7.3l-.55 1.38" transform="matrix(1 0 0 1.003 0 -.363)"/><path fill-rule="evenodd" stroke="none" d="M69.7 24.87c-2-.85-4.25-1.68-6.03-2.96-1.58-1.1-4.1-4.5-2.63-6.6 1.48-2 4.57.4 5.57 1.8 1.5 2 2.2 4.8 2.9 7.1l.3.7" transform="matrix(1 0 0 1.003 0 -.363)"/><path fill-rule="evenodd" stroke="none" d="M69.7 24.87c2.02-.85 4.26-1.68 6.04-2.96 1.58-1.1 4.1-4.5 2.62-6.6-1.48-2-4.57.4-5.57 1.8-1.5 2.1-2.2 4.9-3 7.3l-.2.6m-5.2.3c-1.7-.5-3.7-.3-4.7 1.2-.6.8-.7 3.9 1 3.3.3-.1.6-1.4.9-1.8.7-.6 2-.6 2.9-.6 1.1-.1 2.4.1 3.5-.1-1.1-.8-2.5-1.5-3.8-1.9m10.2 0c1.6-.5 3.6-.3 4.7 1.2.5.8.6 3.9-1.1 3.3-.3-.1-.6-1.4-1-1.8-.7-.6-2.1-.5-2.9-.6-1.2-.1-2.4.1-3.6-.1h-.1c1.1-.8 2.5-1.5 3.8-1.9M68 30c.27 2 3.8 1 2.1-1.8-1.16-1.95-1.84-.1-2.05 1.77m29.4-4.8c-.8-2.02-1.7-4.1-2.25-6.2-.53-1.9-.93-6.56 1.6-7.5 2.44-.85 3.3 3.35 3.3 5-.06 2.5-1.24 5-2.13 7.3l-.53 1.4" transform="matrix(1 0 0 1.003 0 -.363)"/><path fill-rule="evenodd" stroke="none" d="M97.72 24.87c-2-.85-4.25-1.68-6.03-2.96-1.6-1.1-4.1-4.5-2.7-6.6 1.5-2 4.5.4 5.5 1.8 1.4 2 2.1 4.8 2.8 7.1l.2.7m0 0c2-.8 4.2-1.7 6-2.9 1.6-1.1 4.1-4.5 2.6-6.6-1.5-2-4.6.4-5.6 1.8-1.5 2.1-2.1 4.9-2.9 7.3l-.2.6m-5.2.3c-1.7-.5-3.7-.3-4.7 1.2-.6.8-.7 3.9 1 3.3.3-.1.5-1.4.9-1.8.7-.6 2-.5 2.9-.6 1.1-.1 2.4.1 3.5-.1-1.1-.8-2.5-1.5-3.8-1.9m10.2 0c1.6-.5 3.6-.3 4.6 1.2.5.8.7 3.9-1.1 3.3-.3-.1-.6-1.5-1-1.8-.7-.6-2.1-.6-2.9-.6-1.2-.1-2.4.1-3.5-.1 1.1-.8 2.4-1.5 3.8-1.9M96 29.9c.23 2.04 3.76 1.05 2.07-1.74-1.2-1.97-1.88-.1-2.1 1.75m29.4-4.8c-.8-2-1.7-4.1-2.24-6.2-.5-1.9-.9-6.6 1.6-7.5 2.42-.9 3.3 3.3 3.3 5-.07 2.5-1.25 5-2.14 7.3l-.6 1.4m0 0c-2-.8-4.3-1.6-6.1-2.9-1.6-1.1-4.1-4.5-2.6-6.6 1.5-2 4.6.4 5.6 1.8 1.4 2.1 2.1 4.9 2.9 7.3l.2.6" transform="matrix(1 0 0 1.003 0 -.363)"/><path fill-rule="evenodd" stroke="none" d="M125.74 24.87c2-.85 4.25-1.68 6.03-2.96 1.58-1.1 4.1-4.5 2.63-6.6-1.48-2-4.57.4-5.57 1.8-1.46 2.1-2.15 4.9-2.9 7.3l-.2.6m-5.13.3c-1.64-.5-3.65-.3-4.7 1.2-.55.8-.67 3.9 1.1 3.3.3-.1.55-1.4.92-1.8.72-.6 2.06-.6 2.93-.6 1.16-.1 2.38.1 3.52-.1-1.08-.8-2.46-1.5-3.78-1.9m10.2 0c1.6-.5 3.6-.3 4.7 1.2.5.8.6 3.9-1.1 3.3-.3-.1-.6-1.4-1-1.8-.7-.6-2.1-.5-2.9-.6-1.2-.1-2.4.1-3.6-.1 1.1-.8 2.4-1.5 3.8-1.9m-6.5 4.5c.2 2.1 3.7 1.1 2.1-1.7-1.2-1.9-1.9-.1-2.1 1.8m-82.6-5c-.9-2-1.7-4.1-2.3-6.2-.5-1.9-.9-6.5 1.6-7.5 2.4-.8 3.3 3.4 3.2 5-.1 2.5-1.2 5-2.1 7.3l-.6 1.4" transform="matrix(1 0 0 1.003 0 -.363)"/><path fill-rule="evenodd" stroke="none" d="M41.68 24.87c-2-.85-4.25-1.68-6.03-2.96-1.58-1.1-4.1-4.5-2.63-6.6 1.48-2 4.58.4 5.58 1.8 1.43 2 2.1 4.8 2.85 7.1l.23.7m.02 0c2-.8 4.24-1.7 6.02-2.9 1.58-1.1 4.1-4.5 2.63-6.6-1.5-2-4.58.4-5.58 1.8-1.43 2-2.1 4.8-2.86 7.1l-.2.7m-5.1.3c-1.6-.4-3.6-.3-4.7 1.2-.5.8-.7 3.9 1.1 3.3.3-.1.6-1.4.9-1.7.7-.6 2.1-.6 2.9-.7 1.2-.1 2.4.1 3.5-.1-1-.8-2.4-1.5-3.8-1.9m10.3 0c1.7-.5 3.7-.3 4.7 1.2.6.8.7 3.9-1.1 3.3-.3-.1-.5-1.5-.9-1.8-.7-.6-2-.6-2.9-.7-1.1-.1-2.3.1-3.5-.1 1.1-.8 2.5-1.5 3.8-1.9m-6.5 4.5c.3 2 3.8 1.1 2.1-1.7-1.2-2-1.8-.1-2.1 1.8m29.1 187c-.8 2.1-1.7 4.1-2.2 6.2-.5 1.9-.9 6.6 1.7 7.5 2.5.9 3.3-3.3 3.3-4.9 0-2.5-1.2-5-2.1-7.3-.1-.4-.3-.9-.5-1.4" transform="matrix(1 0 0 1.003 0 -.363)"/><path fill-rule="evenodd" stroke="none" d="M69.45 216.94c-2 .84-4.25 1.67-6.03 2.96-1.58 1.14-4.1 4.52-2.63 6.6 1.4 2.08 4.5-.3 5.5-1.72 1.4-2.03 2.1-4.8 2.8-7.13l.2-.7" transform="matrix(1 0 0 1.003 0 -.363)"/><path fill-rule="evenodd" stroke="none" d="M69.46 216.94c2 .84 4.25 1.67 6.03 2.96 1.5 1.14 4 4.52 2.6 6.6-1.5 2.08-4.6-.3-5.6-1.72-1.5-2.07-2.2-4.9-2.9-7.28l-.2-.56m-5.2-.28c-1.7.48-3.7.32-4.7-1.18-.6-.8-.7-3.92 1.1-3.32.3.1.5 1.47.9 1.8.7.6 2 .57 2.9.64 1.1.1 2.3-.03 3.5.13v.02c-1.1.84-2.5 1.5-3.8 1.9m10.2 0c1.6.5 3.6.33 4.7-1.17.5-.8.7-3.92-1.1-3.32-.3.1-.6 1.47-.9 1.8-.8.6-2.1.57-3 .64-1.2.1-2.4-.03-3.5.13v.02c1 .84 2.4 1.5 3.7 1.9m-6.4-4.47c.2-2.04 3.7-1.05 2.1 1.75-1.2 1.97-1.9.13-2.1-1.75m29.4 4.8c-.8 2.03-1.7 4.1-2.3 6.2-.5 1.9-.9 6.57 1.6 7.48 2.4.88 3.3-3.33 3.3-4.98-.1-2.48-1.3-5.02-2.1-7.3l-.6-1.4" transform="matrix(1 0 0 1.003 0 -.363)"/><path fill-rule="evenodd" stroke="none" d="M97.47 216.94c-2 .84-4.25 1.67-6.03 2.96-1.58 1.14-4.1 4.52-2.63 6.6 1.5 2.08 4.6-.3 5.6-1.72 1.5-2.07 2.2-4.9 2.9-7.28l.2-.56" transform="matrix(1 0 0 1.003 0 -.363)"/><path fill-rule="evenodd" stroke="none" d="M97.47 216.94c2.02.84 4.25 1.67 6.03 2.96 1.6 1.14 4.1 4.52 2.63 6.6-1.48 2.08-4.57-.3-5.57-1.72-1.46-2.07-2.15-4.9-2.9-7.28l-.2-.56m-5.14-.28c-1.63.48-3.64.32-4.68-1.18-.56-.8-.68-3.92 1.08-3.32.3.1.56 1.47.94 1.8.7.6 2.05.57 2.92.64 1.16.1 2.38-.03 3.53.13v.02c-1 .84-2.4 1.5-3.7 1.9m10.2 0c1.7.5 3.7.33 4.7-1.17.6-.8.7-3.92-1.1-3.32-.3.1-.5 1.47-.9 1.8-.7.6-2 .57-2.9.64-1.1.1-2.4-.03-3.5.13v.02c1.1.84 2.5 1.5 3.8 1.9m-6.4-4.47c.3-2.04 3.8-1.05 2.1 1.75-1.2 1.97-1.8.13-2-1.75m29.4 4.8c-.8 2.03-1.7 4.1-2.2 6.2-.5 1.9-.9 6.57 1.7 7.48 2.5.88 3.3-3.33 3.3-4.98 0-2.48-1.2-5.02-2.1-7.3l-.6-1.4" transform="matrix(1 0 0 1.003 0 -.363)"/><path fill-rule="evenodd" stroke="none" d="M125.5 216.94c-2.03.84-4.27 1.67-6.05 2.96-1.58 1.14-4.1 4.52-2.62 6.6 1.48 2.08 4.57-.3 5.57-1.72 1.43-2.03 2.1-4.8 2.86-7.13l.23-.7" transform="matrix(1 0 0 1.003 0 -.363)"/><path fill-rule="evenodd" stroke="none" d="M125.5 216.94c2 .84 4.24 1.67 6.02 2.96 1.58 1.14 4.1 4.52 2.63 6.6-1.48 2.08-4.57-.3-5.57-1.72-1.44-2.03-2.1-4.8-2.86-7.13l-.23-.7m-5.2-.3c-1.7.5-3.7.33-4.7-1.17-.6-.8-.7-3.92 1.1-3.32.3.1.5 1.47.9 1.8.7.6 2 .57 2.9.64 1.1.1 2.3-.03 3.5.13v.02c-1.1.84-2.5 1.5-3.8 1.9m10.2 0c1.6.5 3.6.33 4.6-1.17.6-.8.7-3.92-1.1-3.32-.3.1-.6 1.47-1 1.8-.7.6-2 .57-2.9.64-1.2.1-2.4-.03-3.5.13v.02c1.1.84 2.4 1.5 3.8 1.9m-6.5-4.47c.2-2.04 3.7-1.05 2.1 1.75-1.2 1.97-1.9.13-2.1-1.75m-82.7 4.8c-.8 2.03-1.7 4.1-2.2 6.2-.5 1.9-.9 6.57 1.6 7.48 2.4.88 3.3-3.33 3.3-4.98-.1-2.5-1.2-5.02-2.1-7.3l-.6-1.4" transform="matrix(1 0 0 1.003 0 -.363)"/><path fill-rule="evenodd" stroke="none" d="M41.43 216.94c-2 .84-4.25 1.67-6.03 2.96-1.58 1.14-4.1 4.52-2.63 6.6 1.48 2.08 4.58-.3 5.58-1.72 1.43-2.03 2.1-4.8 2.85-7.13l.23-.7m0 0c2 .83 4.26 1.67 6.04 2.95 1.58 1.14 4.1 4.52 2.63 6.6-1.5 2.08-4.58-.3-5.58-1.72-1.46-2.07-2.14-4.9-2.9-7.28l-.18-.56m-5.16-.28c-1.62.48-3.64.32-4.68-1.18-.55-.8-.68-3.92 1.08-3.32.3.1.56 1.47.94 1.8.7.6 2.05.57 2.92.64 1.17.1 2.38-.03 3.53.13v.02c-1.08.84-2.47 1.5-3.8 1.9m10.23 0c1.63.5 3.65.33 4.7-1.17.54-.8.67-3.92-1.1-3.32-.3.1-.56 1.47-.93 1.8-.72.6-2.05.57-2.92.64-1.17.1-2.38-.03-3.53.13v.02c1.08.84 2.47 1.5 3.78 1.9m-6.44-4.47c.24-2.04 3.76-1.05 2.08 1.75-1.2 1.97-1.86.13-2.08-1.75m106.47 6.18c1.9 1.02 3.96 2.28 6.07 2.82 1.92.5 5.56.02 5.9-2.52.35-2.45-3.12-3.55-5-3.33-2.32.27-4.76 1.84-6.8 2.93l-.17.1" transform="matrix(1 0 0 1.003 0 -.363)"/><path fill-rule="evenodd" stroke="none" d="M146.5 218.37c.8 2.6 3.35 12.52 7.94 10.18 2.23-1.14.43-4.92-.74-6.2-1.64-1.82-4.38-2.77-6.6-3.7-.2-.1-.4-.2-.6-.28m0 0c.8-2.6 3.35-12.53 7.94-10.18 2.23 1.1.43 4.9-.74 6.2-1.65 1.8-4.38 2.7-6.6 3.7l-.6.2m-.25 5.9c.37 1.6.44 4.2-1.03 5.4-.96.8-3.45.5-2.87-1.3.1-.4 1.26-.7 1.54-1.1.6-.9.5-2.4.5-3.4 0-1.4-.1-2.7.1-4.1.7 1.3 1.3 2.9 1.6 4.4m0-11.8c.4-1.7.4-4.2-1-5.4-1-.8-3.5-.6-2.9 1.2.1.3 1.2.7 1.5 1.1.6.8.5 2.4.5 3.4 0 1.3-.1 2.7.1 4 .7-1.3 1.3-2.9 1.6-4.4m-3.9 7.4c-1.9-.5-1.1-4.4 1.5-2.4 1.5 1.2.4 2.1-1.5 2.4m4.1-33.9c1.9 1 4 2.2 6.1 2.8 1.9.5 5.6 0 5.9-2.5.3-2.5-3.1-3.6-5-3.3-2.3.3-4.8 1.8-6.8 2.9l-.2.1" transform="matrix(1 0 0 1.003 0 -.363)"/><path fill-rule="evenodd" stroke="none" d="M146.5 186.06c.8 2.6 3.35 12.52 7.94 10.17 2.23-1.14.43-4.9-.74-6.2-1.65-1.8-4.38-2.76-6.6-3.7-.2-.1-.4-.2-.6-.27m0 0c.8-2.6 3.35-12.53 7.94-10.2 2.23 1.16.43 4.93-.74 6.2-1.65 1.83-4.38 2.78-6.6 3.73l-.6.2m-.25 5.9c.37 1.6.45 4.1-1.03 5.4-.96.7-3.45.5-2.87-1.3.1-.3 1.26-.7 1.54-1.1.6-.9.5-2.4.5-3.4 0-1.4-.1-2.8.1-4.1.7 1.3 1.3 2.8 1.6 4.3m0-11.8c.4-1.7.4-4.2-1-5.4-1-.8-3.5-.6-2.9 1.2.1.3 1.2.7 1.5 1.1.6.8.5 2.4.5 3.4 0 1.3-.1 2.7.1 4 .7-1.3 1.3-2.9 1.6-4.4m-3.9 7.4c-1.9-.5-1.1-4.4 1.5-2.4 1.5 1.2.4 2-1.5 2.4m4.1-33.9c1.9 1 4 2.2 6.1 2.8 1.9.5 5.6 0 5.9-2.5.3-2.5-3.1-3.6-5-3.4-2.3.2-4.8 1.8-6.8 2.9l-.2.1" transform="matrix(1 0 0 1.003 0 -.363)"/><path fill-rule="evenodd" stroke="none" d="M146.5 153.74c.8 2.6 3.35 12.52 7.94 10.18 2.23-1.14.43-4.92-.74-6.2-1.65-1.82-4.38-2.77-6.6-3.72l-.6-.26m0 0c.8-2.6 3.35-12.53 7.94-10.18 2.23 1.14.43 4.92-.74 6.2-1.65 1.8-4.38 2.76-6.6 3.7-.2.1-.4.2-.6.27m-.25 5.95c.37 1.67.44 4.18-1.03 5.4-.96.8-3.45.53-2.87-1.25.1-.33 1.26-.67 1.54-1.08.6-.84.5-2.4.5-3.37 0-1.34-.1-2.76.1-4.07.8 1.3 1.3 2.9 1.6 4.4m0-11.8c.4-1.6.4-4.2-1-5.4-1-.8-3.5-.5-2.9 1.3.1.4 1.2.7 1.5 1.1.6.9.5 2.4.5 3.4 0 1.4-.1 2.8.1 4.1.7-1.2 1.3-2.9 1.6-4.3m-3.9 7.5c-1.9-.4-1.1-4.4 1.5-2.4 1.5 1.2.3 2.1-1.5 2.4m4.1-66.2c1.9 1.1 4 2.3 6.1 2.9 1.9.5 5.5.1 5.9-2.5.3-2.4-3.1-3.5-5-3.3-2.3.3-4.8 1.9-6.8 3l-.2.1" transform="matrix(1 0 0 1.003 0 -.363)"/><path fill-rule="evenodd" stroke="none" d="M146.5 89.1c.8 2.6 3.35 12.53 7.94 10.2 2.23-1.16.43-4.94-.74-6.22-1.64-1.8-4.38-2.76-6.6-3.7l-.6-.27m0 0c.8-2.6 3.35-12.5 7.94-10.1 2.23 1.2.43 4.9-.74 6.2-1.65 1.8-4.38 2.8-6.6 3.7l-.6.3m-.25 6c.37 1.7.44 4.2-1.03 5.4-1.02.9-3.4.5-2.85-1.3.08-.2 1.32-.7 1.6-1.1.55-.9.45-2.4.5-3.4.06-1.2-.08-2.6.1-3.9.78 1.3 1.34 2.9 1.68 4.4m0-11.8c.37-1.6.45-4.1-1.03-5.4-.96-.8-3.45-.5-2.87 1.3.1.4 1.26.7 1.54 1.1.6.9.5 2.4.5 3.4 0 1.4-.1 2.8.1 4.1.7-1.3 1.3-2.9 1.6-4.3m-3.9 7.4c-1.9-.4-1.1-4.4 1.5-2.4 1.5 1.2.4 2.1-1.5 2.4m4.1-34c1.9 1 3.9 2.3 6.1 2.8 1.9.5 5.5.1 5.9-2.5.3-2.4-3.1-3.5-5-3.3-2.3.3-4.8 1.9-6.8 2.9l-.2.1" transform="matrix(1 0 0 1.003 0 -.363)"/><path fill-rule="evenodd" stroke="none" d="M146.5 56.8c.8 2.6 3.35 12.52 7.94 10.17 2.23-1.14.43-4.92-.74-6.2-1.65-1.8-4.38-2.77-6.6-3.7-.2-.1-.4-.2-.6-.28" transform="matrix(1 0 0 1.003 0 -.363)"/><path fill-rule="evenodd" stroke="none" d="M146.5 56.8c.8-2.6 3.35-12.53 7.94-10.2 2.23 1.15.43 4.93-.74 6.2-1.65 1.82-4.38 2.78-6.6 3.73l-.6.26m-.25 5.9c.37 1.6.45 4.1-1.03 5.4-.96.8-3.45.5-2.87-1.3.1-.4 1.26-.7 1.54-1.1.6-.9.5-2.4.5-3.4 0-1.4-.1-2.8.1-4.1.7 1.3 1.3 2.8 1.6 4.3m0-11.8c.4-1.7.4-4.2-1-5.4-1-.8-3.5-.6-2.9 1.2.1.3 1.2.6 1.5 1 .6.8.5 2.4.5 3.4 0 1.3-.1 2.7.1 4 .7-1.3 1.3-2.9 1.6-4.4M142 58c-1.84-.46-1.06-4.4 1.5-2.4 1.54 1.2.4 2.05-1.5 2.4m4.15-33.94c1.9 1.06 4 2.3 6.1 2.86 1.95.5 5.6 0 5.9-2.53.36-2.5-3.1-3.6-5-3.4-2.3.2-4.74 1.8-6.8 2.9l-.15.1" transform="matrix(1 0 0 1.003 0 -.363)"/><path fill-rule="evenodd" stroke="none" d="M146.5 24.48c.8 2.6 3.35 12.52 7.94 10.17 2.23-1.14.43-4.9-.74-6.2-1.65-1.8-4.38-2.76-6.6-3.7l-.6-.27m0 0c.8-2.6 3.35-12.53 7.94-10.18 2.23 1.14.43 4.9-.74 6.2-1.65 1.8-4.38 2.76-6.6 3.7l-.6.27m-.25 5.95c.37 1.67.44 4.17-1.03 5.4-.96.8-3.45.53-2.87-1.25.1-.33 1.26-.68 1.54-1.08.6-.9.5-2.5.5-3.4 0-1.4-.1-2.8.1-4.1.8 1.3 1.3 2.9 1.6 4.4m0-11.8c.4-1.7.4-4.2-1-5.4-1-.8-3.5-.6-2.9 1.2.1.3 1.2.6 1.5 1 .6.8.5 2.4.5 3.3 0 1.3-.1 2.7.1 4.1.7-1.3 1.3-2.9 1.6-4.4m-3.8 7.5c-1.9-.5-1.1-4.4 1.5-2.4 1.5 1.2.4 2-1.5 2.4m4.1 95.3c1.9 1 4 2.3 6.1 2.8 1.9.5 5.6 0 5.9-2.5.3-2.4-3.1-3.5-5-3.3-2.3.2-4.8 1.8-6.8 2.9l-.2.1" transform="matrix(1 0 0 1.003 0 -.363)"/><path fill-rule="evenodd" stroke="none" d="M146.5 121.43c.8 2.6 3.35 12.52 7.94 10.17 2.23-1.14.43-4.92-.74-6.2-1.65-1.8-4.38-2.76-6.6-3.7-.2-.1-.4-.2-.6-.27m0 0c.8-2.6 3.35-12.53 7.94-10.2 2.23 1.15.43 4.93-.74 6.2-1.65 1.83-4.38 2.78-6.6 3.73-.2.1-.4.17-.6.26m-.25 5.94c.37 1.67.44 4.18-1.03 5.4-.96.8-3.45.54-2.87-1.25.1-.3 1.26-.6 1.54-1 .6-.8.5-2.4.5-3.3 0-1.3-.1-2.7.1-4 .7 1.3 1.3 2.9 1.6 4.4m0-11.8c.4-1.6.4-4.1-1-5.4-1-.8-3.5-.5-2.9 1.3.1.4 1.2.7 1.5 1.1.6.9.5 2.4.5 3.4 0 1.3-.1 2.8.1 4.1.7-1.3 1.3-2.9 1.6-4.4m-3.9 7.5c-1.9-.4-1.1-4.4 1.5-2.4 1.5 1.2.3 2.1-1.5 2.4m-121.2 95c-1.9 1-4 2.3-6.1 2.8-1.9.5-5.6 0-5.9-2.5-.4-2.4 3.1-3.5 5-3.3 2.3.3 4.7 1.9 6.8 3l.2.1" transform="matrix(1 0 0 1.003 0 -.363)"/><path fill-rule="evenodd" stroke="none" d="M20.85 218.37c-.82 2.6-3.36 12.52-7.94 10.18-2.2-1.14-.4-4.92.8-6.2 1.7-1.82 4.4-2.77 6.6-3.7.2-.1.4-.2.6-.28m0 0c-.8-2.6-3.3-12.53-7.9-10.18-2.2 1.1-.4 4.9.8 6.2 1.7 1.8 4.4 2.7 6.6 3.7.2.1.4.1.6.2m.3 5.9c-.3 1.6-.4 4.2 1 5.4 1 .8 3.5.5 2.9-1.3-.1-.4-1.2-.7-1.5-1.1-.6-.9-.5-2.4-.5-3.4 0-1.4.1-2.7-.1-4.1-.7 1.3-1.3 2.9-1.6 4.4m0-11.8c-.4-1.7-.4-4.2 1-5.4 1-.8 3.5-.6 2.9 1.2-.1.3-1.2.7-1.5 1.1-.6.8-.5 2.4-.5 3.4 0 1.3.1 2.7-.1 4-.8-1.3-1.3-2.9-1.7-4.4m3.9 7.4c1.8-.5 1-4.4-1.5-2.4-1.5 1.2-.4 2.1 1.5 2.4M20.8 186c-1.9 1-3.95 2.28-6.06 2.83-1.92.5-5.56 0-5.9-2.52-.34-2.4 3.12-3.5 5-3.3 2.32.3 4.76 1.9 6.8 3l.17.1" transform="matrix(1 0 0 1.003 0 -.363)"/><path fill-rule="evenodd" stroke="none" d="M20.86 186.06c-.83 2.6-3.37 12.52-7.95 10.17-2.2-1.14-.4-4.9.8-6.2 1.7-1.8 4.4-2.76 6.6-3.7.2-.1.4-.2.6-.27m0 0c-.8-2.6-3.3-12.53-7.9-10.2-2.2 1.16-.4 4.93.8 6.2 1.7 1.83 4.4 2.78 6.6 3.73l.6.2m.3 5.9c-.4 1.6-.4 4.1 1 5.4 1 .7 3.5.5 2.9-1.3-.1-.3-1.3-.7-1.5-1.1-.6-.9-.5-2.4-.6-3.4 0-1.4.1-2.8-.1-4.1-.7 1.3-1.3 2.8-1.6 4.3m0-11.8c-.3-1.7-.4-4.2 1-5.4 1-.8 3.5-.6 2.9 1.2-.1.3-1.2.7-1.5 1.1-.6.8-.5 2.4-.5 3.4-.1 1.3.1 2.7-.1 4-.8-1.3-1.3-2.9-1.7-4.4m3.9 7.4c1.8-.5 1.1-4.4-1.5-2.4-1.5 1.2-.4 2 1.5 2.4m-4.3-33.8c-1.9 1-4 2.3-6.1 2.8-1.9.5-5.5 0-5.9-2.5-.3-2.5 3.1-3.6 5-3.4 2.3.3 4.8 1.9 6.8 3l.2.1" transform="matrix(1 0 0 1.003 0 -.363)"/><path fill-rule="evenodd" stroke="none" d="M20.86 153.74c-.83 2.6-3.37 12.52-7.95 10.18-2.2-1.14-.4-4.92.8-6.2 1.7-1.82 4.4-2.77 6.6-3.72l.6-.26m0 0c-.8-2.6-3.4-12.53-7.9-10.18-2.2 1.14-.4 4.92.8 6.2 1.7 1.8 4.4 2.76 6.6 3.7.2.1.4.2.6.27m.3 5.95c-.3 1.67-.4 4.18 1 5.4 1 .8 3.5.53 2.9-1.25-.1-.33-1.3-.67-1.5-1.08-.6-.84-.5-2.4-.5-3.37 0-1.34.1-2.76-.1-4.07-.8 1.3-1.3 2.9-1.6 4.4m0-11.8c-.4-1.6-.4-4.2 1-5.4 1-.8 3.5-.5 2.9 1.3-.1.4-1.2.7-1.5 1.1-.6.9-.5 2.4-.5 3.4 0 1.4.1 2.8-.1 4.1-.8-1.3-1.3-2.9-1.7-4.3m3.9 7.5c1.8-.4 1-4.4-1.5-2.4-1.6 1.2-.4 2.1 1.5 2.4M21 89.2c-1.92 1.07-4 2.3-6.12 2.87-1.92.5-5.55 0-5.9-2.52-.34-2.43 3.1-3.53 5-3.3 2.3.27 4.76 1.84 6.8 2.93l.18.1" transform="matrix(1 0 0 1.003 0 -.363)"/><path fill-rule="evenodd" stroke="none" d="M20.85 89.1c-.82 2.6-3.36 12.53-7.94 10.2-2.2-1.16-.4-4.94.8-6.22 1.7-1.8 4.4-2.76 6.6-3.7l.6-.27m0 0c-.8-2.6-3.3-12.5-7.9-10.1-2.2 1.2-.4 4.9.8 6.2 1.7 1.8 4.4 2.8 6.6 3.7l.6.3m.3 6c-.3 1.7-.4 4.2 1 5.4 1 .9 3.4.5 2.9-1.3-.1-.2-1.3-.7-1.6-1.1-.5-.9-.5-2.4-.5-3.4 0-1.2.1-2.6-.1-3.9-.7 1.3-1.3 2.9-1.6 4.4m0-11.8c-.4-1.6-.5-4.1 1-5.4 1-.8 3.5-.5 2.9 1.3-.1.4-1.3.7-1.6 1.1-.6.9-.5 2.4-.5 3.4 0 1.4.1 2.8-.1 4.1-.7-1.3-1.3-2.9-1.6-4.3m3.9 7.4c1.8-.5 1-4.4-1.5-2.4-1.5 1.2-.4 2.1 1.5 2.4m-4.2-34c-1.9 1-3.9 2.3-6.1 2.8-1.9.5-5.5 0-5.9-2.5-.3-2.4 3.1-3.5 5-3.3 2.3.3 4.8 1.9 6.8 3l.2.1" transform="matrix(1 0 0 1.003 0 -.363)"/><path fill-rule="evenodd" stroke="none" d="M20.86 56.8c-.83 2.6-3.37 12.52-7.95 10.17-2.2-1.14-.4-4.92.8-6.2 1.7-1.8 4.4-2.77 6.6-3.7.2-.1.4-.2.6-.28m0 0c-.8-2.6-3.3-12.6-7.9-10.2-2.2 1.1-.4 4.9.8 6.2 1.7 1.8 4.4 2.7 6.6 3.7l.6.2m.3 5.9c-.3 1.6-.4 4.1 1.1 5.4 1 .8 3.5.5 2.9-1.3-.1-.4-1.2-.7-1.5-1.1-.6-.9-.5-2.4-.5-3.4-.1-1.4.1-2.8-.1-4.1H23c-.77 1.3-1.33 2.9-1.66 4.3m0-11.8c-.35-1.7-.43-4.2 1.04-5.4.96-.8 3.45-.6 2.88 1.2-.1.3-1.2.6-1.5 1-.6.8-.5 2.4-.55 3.4-.1 1.3.1 2.7-.1 4.1v.1c-.7-1.3-1.3-2.9-1.6-4.4m3.9 7.4c1.8-.5 1.1-4.4-1.5-2.4-1.5 1.2-.3 2 1.6 2.4M21 24.3c-1.9 1-4 2.26-6.1 2.8-1.93.47-5.56 0-5.9-2.54-.35-2.45 3.1-3.55 5-3.34 2.3.27 4.75 1.84 6.8 2.94l.17.1" transform="matrix(1 0 0 1.003 0 -.363)"/><path fill-rule="evenodd" stroke="none" d="M20.86 24.48c-.83 2.6-3.37 12.52-7.95 10.17-2.2-1.14-.4-4.9.8-6.2 1.7-1.8 4.4-2.76 6.6-3.7l.6-.27m0 0c-.8-2.6-3.4-12.53-7.9-10.18-2.2 1.14-.4 4.9.8 6.2 1.7 1.8 4.4 2.76 6.6 3.7l.6.27m.3 5.95c-.3 1.67-.4 4.17 1 5.4 1 .8 3.5.53 2.9-1.25-.1-.33-1.3-.68-1.5-1.08-.6-.9-.5-2.5-.5-3.4 0-1.4.1-2.8-.1-4.1-.8 1.3-1.3 2.9-1.6 4.4m0-11.8c-.4-1.7-.4-4.2 1-5.4 1-.8 3.5-.6 2.9 1.2-.1.3-1.2.6-1.5 1-.6.8-.5 2.4-.5 3.3 0 1.3.1 2.7-.1 4.1-.8-1.3-1.3-2.9-1.7-4.4m3.9 7.5c1.8-.5 1.1-4.4-1.5-2.4-1.5 1.2-.4 2 1.5 2.4M21 121.2c-1.9 1-4 2.3-6.1 2.8-1.9.5-5.54.03-5.9-2.5-.33-2.4 3.13-3.5 5-3.3 2.33.26 4.77 1.83 6.8 2.92l.2.1" transform="matrix(1 0 0 1.003 0 -.363)"/><path fill-rule="evenodd" stroke="none" d="M20.86 121.43c-.83 2.6-3.37 12.52-7.95 10.17-2.2-1.14-.4-4.92.8-6.2 1.7-1.8 4.4-2.76 6.6-3.7.2-.1.4-.2.6-.27m0 0c-.8-2.6-3.4-12.53-7.9-10.2-2.2 1.15-.4 4.93.8 6.2 1.7 1.83 4.4 2.78 6.6 3.73.2.1.4.17.6.26m.3 5.94c-.3 1.68-.4 4.18 1 5.4 1 .8 3.5.54 2.9-1.25-.1-.3-1.3-.6-1.5-1-.6-.8-.5-2.4-.5-3.3 0-1.3.1-2.7-.1-4-.7 1.3-1.3 2.9-1.6 4.4m0-11.8c-.4-1.6-.4-4.1 1-5.4 1-.8 3.5-.5 2.9 1.3-.1.4-1.2.7-1.5 1.1-.6.9-.5 2.4-.5 3.4 0 1.3.1 2.8-.1 4.1-.8-1.3-1.3-2.9-1.7-4.4M25 123c1.8-.43 1.03-4.4-1.53-2.4-1.54 1.2-.38 2.08 1.52 2.4" transform="matrix(1 0 0 1.003 0 -.363)"/><path fill="none" stroke-width=".03" stroke-miterlimit="10" d="M73.15 146.58h.03" transform="matrix(1 0 0 1.003 0 -.363)"/><path fill-rule="evenodd" stroke="#fb0f0c" stroke-width=".03" stroke-miterlimit="10" d="M75.67 112.25c1.64 0 16-.14 16 .13v15.45c0 .43.32 2.55 0 2.88-1 1.1-16-.6-16-.1v-18.3" transform="matrix(1 0 0 1.003 0 -.363)"/><path fill="#fff" fill-rule="evenodd" stroke="none" d="M76.67 115.7l2-2.3 1 3.46-3-1.15m12-2.3l2 2.3-3 1.2 1-3.4m.07 16.1l2-2.3-3-1.1 1 3.5m-10.07.1l-2-2.3c1-.4 2-.8 3-1.1l-1 3.5" transform="matrix(1 0 0 1.003 0 -.363)"/><path fill="#fff" fill-rule="evenodd" stroke="none" d="M83.67 112.25l-1.98 6.84c-.3.8-5.1 2-6.1 2.3.9.3 5.8 1.5 6 2.4l1.9 6.8 2-6.9c.2-.9 5-2 6-2.4-1-.4-5.8-1.6-6.1-2.4l-2-6.9" transform="matrix(1 0 0 1.003 0 -.363)"/><path fill="#fff" fill-rule="evenodd" stroke="#fff" stroke-width=".03" stroke-miterlimit="10" d="M132.7 115.7l-.97 4.52c-.12.52-3.42 1.08-4.03 1.26.6.18 3.9.74 4.03 1.26l.97 4.5.98-4.5c.1-.52 3.4-1.08 4.03-1.26-.6-.18-3.9-.74-4-1.26l-1-4.5m0-16.18l-.9 4.5c-.1.54-3.4 1.1-4 1.27.6.2 3.9.8 4 1.3l1 4.5 1-4.5c.1-.5 3.4-1.1 4.1-1.2-.6-.1-3.9-.7-4-1.2l-1-4.5m.1 32.3l-1 4.5c-.1.5-3.4 1.1-4 1.3.6.2 3.9.8 4 1.3l1 4.5 1-4.5c.1-.5 3.4-1.1 4-1.2-.6-.2-3.9-.7-4-1.3l-.9-4.5M119 115.9l-1 4.6c-.1.57-3.4 1.1-4 1.3.6.2 3.9.75 4 1.27l.93 4.5 1-4.5c.1-.55 3.4-1.1 4.04-1.3-.6-.2-3.9-.74-4-1.26l-.9-4.5m0-16.1l-.96 4.5c-.1.6-3.4 1.1-4 1.3.6.2 3.9.8 4 1.3l1 4.5 1-4.5c.1-.5 3.4-1.1 4-1.2-.6-.1-3.9-.7-4-1.2l-1-4.5m0 32.3c-.3 1.5-.6 3-1 4.5-.1.5-3.4 1.1-4 1.3.7.2 4 .7 4.1 1.3l1 4.5 1-4.5c.1-.6 3.4-1.1 4-1.3-.6-.2-3.9-.7-4-1.3l-1-4.5m-28.2 31l-1 4.5c-.1.5-3.4 1.1-4 1.3.7.2 4 .8 4.1 1.3l1 4.5 1-4.5c.1-.5 3.4-1.1 4.1-1.2-.6-.2-3.9-.8-4-1.3l-1-4.5m-14 0l-1 4.5c-.1.5-3.4 1.1-4 1.2.6.1 3.9.7 4.1 1.2l.9 4.5 1-4.5c.2-.6 3.5-1.1 4.1-1.3-.6-.2-3.9-.8-4-1.3l-.9-4.5m28 0l-1 4.5c-.1.5-3.4 1.1-4 1.3.6.2 3.9.7 4 1.3l1 4.5 1-4.5c.1-.5 3.4-1 4.1-1.2-.6-.2-3.9-.7-4-1.3l-1-4.5m-42 .1l-1 4.5c-.1.5-3.4 1.1-4 1.3.6.2 3.9.7 4 1.3l1 4.5 1-4.5c.1-.6 3.4-1.1 4-1.3-.6-.2-3.9-.7-4-1.3l-1-4.5m70 0l-1 4.5c-.1.6-3.4 1.1-4 1.3.6.2 3.9.8 4.1 1.3l1 4.5 1-4.5c.1-.5 3.4-1.1 4-1.2-.6-.2-3.9-.7-4-1.3l-1-4.5m-14 0l-.9 4.5c-.1.5-3.4 1.1-4 1.3.6.2 3.9.7 4.1 1.3.3 1.5.7 3 1 4.5l1-4.5c.1-.5 3.4-1.1 4-1.3-.6-.2-3.9-.7-4-1.3l-1-4.5m-28 16.3l-1 4.5c-.1.5-3.4 1.1-4.03 1.3.6.1 3.9.7 4 1.2l1 4.5.9-4.5c.1-.5 3.4-1.1 4-1.2-.6-.2-3.9-.7-4.1-1.3l-1-4.5m-14 0l-1 4.5c-.1.5-3.4 1.1-4 1.3.6.18 3.9.7 4 1.27l.9 4.5 1-4.5c.1-.5 3.4-1.1 4-1.2-.6-.2-3.9-.8-4-1.3l-.96-4.5m28 0l-1 4.5c-.1.5-3.4 1.1-4 1.2.6.2 3.9.7 4 1.3l1 4.5.9-4.5c.14-.6 3.4-1.1 4.1-1.3-.6-.2-3.9-.8-4-1.3l-1-4.5m-42 0l-.95 4.5c-.1.5-3.4 1.1-4 1.2.6.2 3.9.7 4 1.3l1 4.5.93-4.5c.1-.6 3.4-1.1 4-1.3-.6-.2-3.9-.8-4-1.3l-1-4.5m70 0l-1 4.5c-.1.5-3.4 1.1-4 1.2.6.2 3.9.7 4 1.24l.96 4.54 1-4.5c.1-.5 3.4-1.1 4.1-1.3-.62-.1-3.92-.7-4.03-1.2l-.93-4.5m-14 0l-1 4.5c-.15.5-3.45 1.1-4.06 1.26.6.2 3.9.72 4 1.24l.9 4.5 1-4.5c.1-.5 3.4-1.1 4-1.22-.6-.2-3.9-.8-4-1.3l-.9-4.6m-28 16.26l-1 4.5c-.1.5-3.4 1.1-4.05 1.2.67.2 3.97.8 4.08 1.3l1 4.5 1-4.5c.17-.5 3.47-1.1 4.1-1.3-.6-.2-3.9-.7-4.1-1.3l-1-4.5m-14 0l-1 4.5c-.1.6-3.4 1.1-4.02 1.3.64.2 3.94.75 4.1 1.3l1 4.5 1-4.5c.1-.55 3.4-1.1 4-1.3-.6-.15-3.9-.7-4-1.24l-1-4.5m28.05-.07l-1 4.5c-.1.5-3.4 1.1-4 1.26.6.2 3.9.73 4.03 1.3l1 4.5.9-4.5c.17-.5 3.4-1.1 4.08-1.3-.6-.2-3.9-.7-4-1.27l-.9-4.5m-42 .06l-1 4.5c-.1.5-3.4 1.1-4.03 1.3.6.2 3.9.7 4 1.2l1 4.5 1-4.5c.1-.5 3.4-1.1 4-1.2-.6-.2-3.9-.73-4.06-1.25l-1-4.5m70-.1l-1 4.5c-.1.5-3.4 1.1-4 1.3.6.2 3.9.7 4 1.3l1 4.5 1-4.5c.1-.6 3.4-1.1 4-1.3-.6-.2-3.9-.72-4-1.3l-1-4.5m-14 0l-1 4.5c-.1.6-3.4 1.1-4.07 1.3.6.2 3.9.8 4 1.3.3 1.5.7 3 1 4.5l1-4.5c.1-.5 3.4-1.1 4.03-1.22-.7-.2-3.9-.7-4.1-1.2l-1-4.5m-28-47.4l-1 4.5c-.1.5-3.4 1.1-4 1.3.6.1 3.9.7 4 1.2l1 4.5 1-4.5c.1-.5 3.4-1.1 4-1.2-.6-.17-3.9-.7-4.06-1.26l-1-4.5m-14 0l-1 4.5c-.1.5-3.4 1.1-4 1.2.6.2 3.9.7 4.1 1.3l.9 4.5 1-4.5c.1-.6 3.4-1.1 4-1.3-.6-.16-3.9-.7-4-1.2l-1-4.5m28.1-.07l-1 4.5c-.1.6-3.4 1.1-4 1.3.6.2 3.9.7 4 1.2l1 4.5.9-4.5c.1-.5 3.4-1.1 4-1.2-.63-.2-3.9-.8-4.1-1.3l-1-4.5m-42 0l-1 4.5c-.1.55-3.4 1.1-4 1.3.6.2 3.9.8 4 1.3l1 4.5 1-4.5c.1-.5 3.4-1.1 4-1.24-.6-.1-3.9-.7-4-1.2l-.95-4.5m70 0l-1 4.5c-.1.5-3.4 1.1-4.05 1.22.6.2 3.9.8 4.03 1.3l.98 4.5.98-4.5c.1-.54 3.4-1.1 4.1-1.3-.6-.2-3.9-.7-4-1.22l-.96-4.5m-14 0l-1 4.5c-.2.5-3.5 1.1-4.1 1.3.6.2 3.9.7 4 1.3l.9 4.5 1-4.5c.1-.52 3.4-1.1 4.02-1.26-.65-.2-3.9-.8-4.06-1.3l-1-4.5M77 83.6l-1 4.5c-.1.5-3.4 1.1-4 1.23.6.2 3.9.74 4 1.3l.9 4.5.9-4.5c.1-.58 3.4-1.1 4-1.3-.6-.2-3.9-.77-4.1-1.3l-1-4.5m-14 0l-1 4.5c-.1.53-3.4 1.1-4.1 1.26.6.2 3.9.7 4 1.2l1 4.5.9-4.5c.1-.5 3.4-1.1 4-1.2-.6-.1-3.9-.7-4-1.2l-1-4.5m42 0l-1 4.5c-.1.6-3.4 1.1-4 1.3.6.2 3.9.8 4 1.3l.9 4.5 1-4.5c.1-.5 3.4-1.1 4-1.2-.7-.2-4-.7-4.1-1.3l-1-4.5m-14 0l-.9 4.5c-.2.5-3.5 1.1-4.1 1.3.6.2 3.9.8 4 1.3l1 4.5 1-4.5c.1-.5 3.4-1.1 4-1.3-.6-.1-3.9-.7-4-1.2l-1-4.5M62 67.6l-.96 4.5c-.16.5-3.46 1.1-4.07 1.2.6.14 3.9.7 4.1 1.2.3 1.5.7 3 1 4.5l1-4.5c.1-.5 3.4-1.1 4.04-1.24-.6-.2-3.9-.8-4-1.3l-1-4.5m14 0l-1 4.5c-.1.5-3.4 1.1-4 1.25.7.2 4 .8 4.1 1.3l1 4.5 1-4.5c.1-.5 3.4-1.1 4-1.2-.6-.1-3.9-.7-4-1.2l-.9-4.5m14 0l-1 4.5c-.1.6-3.4 1.1-4 1.3.6.2 3.9.8 4.1 1.3l1 4.5 1-4.5c.2-.5 3.5-1.1 4.1-1.3-.6-.1-3.9-.7-4-1.2l-.9-4.5m14 0l-1 4.5c-.1.6-3.4 1.1-4 1.3.6.2 3.9.8 4 1.3l1 4.5.9-4.5c.1-.5 3.4-1.1 4.1-1.3-.6-.1-3.9-.7-4-1.2l-.9-4.5m28 16.1l-1 4.5c-.1.6-3.4 1.1-4 1.3.6.2 3.9.7 4 1.3l1 4.5 1-4.5c.1-.5 3.4-1.1 4-1.3-.6-.2-3.9-.7-4-1.3l-1-4.5m0-16.1l-1 4.5c-.1.5-3.4 1.1-4 1.3.6.2 3.9.8 4.06 1.3l1 4.5 1-4.5c.1-.5 3.4-1.1 4.1-1.2-.6-.2-3.9-.7-4-1.3l-1-4.5m-14 16.1l-.93 4.5c-.1.6-3.4 1.1-4 1.3.6.2 3.9.7 4.06 1.3l.9 4.5 1-4.5c.1-.5 3.4-1.1 4.1-1.2-.6-.2-3.9-.7-4.06-1.2l-.95-4.5m0-16.1l-1 4.5c-.1.5-3.4 1.1-4 1.3.6.2 3.9.8 4 1.3l1 4.5 1-4.5c.1-.5 3.4-1.1 4.1-1.2-.7-.2-4-.8-4.1-1.3l-1-4.5M76.8 52l-1 4.5c-.1.5-3.4 1.1-4 1.24.6.2 3.9.7 4 1.2l1 4.56 1-4.5c.1-.5 3.4-1.1 4-1.3-.6-.15-3.9-.7-4-1.2l-1-4.5m-14 0l-.9 4.5c-.1.5-3.4 1.1-4 1.22.7.2 4 .7 4.1 1.2l1 4.5 1-4.5c.17-.56 3.47-1.1 4.1-1.3-.6-.2-3.9-.75-4.07-1.27l-1-4.5m42 0l-.9 4.5c-.1.56-3.4 1.1-4 1.3.6.2 3.9.8 4.04 1.3l1 4.5 1-4.5c.1-.5 3.4-1.1 4-1.2-.7-.2-4-.8-4.1-1.3l-1-4.5m-14 0l-1 4.5c-.1.5-3.4 1.1-4.1 1.25.6.18 3.9.7 4 1.26l1 4.5.9-4.5c.1-.5 3.4-1.1 4-1.3-.6-.13-3.9-.7-4-1.2l-1-4.54M62.6 35l-1 4.5c-.14.53-3.44 1.1-4.05 1.27.6.18 3.9.74 4.05 1.26.3 1.5.64 3 .96 4.5l1-4.5c.1-.52 3.4-1.08 4-1.26-.6-.18-3.9-.74-4.1-1.26l-.9-4.5m14 0l-.97 4.5c-.2.6-3.5 1.1-4.1 1.3.6.2 3.9.7 4 1.3l1 4.5.9-4.5c.1-.5 3.4-1.1 4-1.2-.6-.2-3.9-.7-4-1.2l-1-4.5m14 0l-1 4.5c-.1.6-3.4 1.1-4.1 1.3.6.2 3.9.7 4 1.3l1 4.5 1-4.5c.1-.5 3.4-1.1 4-1.2-.6-.2-3.9-.7-4-1.3l-1-4.5m14 0l-1 4.5c-.1.6-3.4 1.1-4 1.3.6.2 3.9.7 4 1.3l1 4.5.9-4.5c.1-.5 3.4-1 4-1.2-.6-.2-3.9-.7-4-1.2l-1-4.5m28 16.2l-1 4.5c-.1.6-3.4 1.1-4 1.3.6.2 3.9.8 4 1.3l1 4.5.9-4.5c.1-.5 3.4-1.1 4-1.2-.7-.2-4-.8-4.1-1.3l-1-4.5m0-16.1l-1 4.5c-.1.6-3.4 1.1-4.1 1.3.6.2 3.9.7 4 1.3l.9 4.5 1-4.5c.1-.5 3.4-1 4-1.2-.6-.2-3.9-.8-4-1.3l-1-4.5m-13.8 16l-1 4.5c-.1.5-3.4 1.1-4 1.3.6.2 3.9.7 4 1.3l.9 4.5 1-4.5c.1-.6 3.4-1.1 4-1.3-.6-.2-3.9-.7-4-1.3l-1-4.5m0-16.2l-1 4.5c-.1.6-3.4 1.1-4.1 1.3.6.2 3.9.7 4 1.3l1 4.5 1-4.5c.1-.5 3.4-1 4-1.2-.6-.2-3.9-.7-4-1.3l-1-4.5M34.5 132l-1 4.5c-.1.52-3.4 1.1-4 1.25.6.17 3.9.73 4.02 1.26l.96 4.5 1-4.5c.12-.5 3.42-1.1 4.03-1.3-.6-.2-3.9-.7-4-1.2l-1-4.5m0-16.1l-.9 4.5c-.1.5-3.4 1.1-4.1 1.3.6.2 3.9.8 4.1 1.3l1 4.5 1-4.5c.2-.5 3.5-1.1 4.1-1.2-.6-.1-3.9-.7-4-1.2l-.9-4.5m0-16.2l-1 4.5c-.1.5-3.4 1.1-4 1.3.6.2 3.9.8 4 1.3l1 4.5 1-4.5c.1-.5 3.4-1.1 4-1.2-.6-.2-3.9-.8-4-1.3l-.9-4.5m-.1 63.5l-.9 4.5c-.1.5-3.4 1.1-4 1.3.6.2 3.9.8 4 1.3l1 4.5 1-4.5c.1-.5 3.4-1 4-1.2-.6-.1-3.9-.7-4-1.2l-1-4.5m0 16.2l-1 4.5c-.1.6-3.4 1.1-4 1.3.6.2 3.9.8 4 1.3l1 4.5 1-4.5c.1-.5 3.4-1.1 4-1.3-.6-.1-3.9-.7-4-1.2L35 180m0 16.2l-1 4.5c-.1.6-3.4 1.1-4 1.3.6.2 3.9.8 4 1.3l1 4.5.95-4.5c.1-.5 3.4-1.1 4.07-1.3-.6-.2-3.9-.7-4.1-1.2l-.93-4.5m0-47.4l-1 4.5c-.1.5-3.4 1.1-4 1.28.6.2 3.9.8 4 1.3l1 4.5 1-4.5c.1-.5 3.4-1.1 4.1-1.23-.6-.2-3.9-.73-4-1.26l-1-4.5m0-64.6l-1 4.5c-.1.5-3.4 1.1-4 1.3.6.2 3.9.7 4 1.2l1 4.5 1-4.5c.1-.5 3.4-1.1 4-1.3-.6-.2-3.9-.8-4-1.3l-1-4.5m0-16.2l-1 4.5c-.1.5-3.4 1.1-4 1.3.6.2 3.9.7 4 1.2l1 4.5 1-4.5c.1-.5 3.4-1.1 4-1.3-.6-.1-3.9-.7-4-1.2l-1-4.5m0-16.2l-1 4.5c-.1.5-3.4 1.1-4 1.3.6.2 3.9.7 4 1.3l1 4.5.9-4.5c.1-.5 3.4-1.1 4-1.3-.6-.1-3.9-.7-4-1.2L35 52m0-16.2l-1 4.5c-.1.5-3.4 1.1-4 1.3.6.2 3.9.8 4 1.3l1 4.5.9-4.5c.1-.54 3.4-1.1 4-1.3-.6-.2-3.9-.7-4-1.25l-1-4.76m14 97l-.9 4.5c-.1.5-3.4 1.1-4.1 1.3.67.2 3.97.7 4.08 1.2l1 4.5 1-4.5c.1-.5 3.4-1.1 4-1.2-.6-.2-3.9-.7-4-1.3l-1-4.5m0-16.1L48 121c-.1.58-3.4 1.1-4.03 1.3.6.2 3.9.76 4 1.28.3 1.5.68 3 1 4.5l.97-4.5c.1-.5 3.4-1.07 4-1.25-.6-.2-3.9-.8-4-1.3l-.96-4.5m0-16.2l-1 4.5c-.1.5-3.4 1.1-4 1.3.6.2 3.9.7 4 1.3l1 4.5 1-4.5c.1-.6 3.4-1.1 4-1.3-.7-.2-4-.8-4.1-1.3l-1-4.5m-.05 63.5l-.97 4.5c-.1.5-3.4 1.1-4 1.3.6.2 3.9.76 4 1.3l.94 4.5 1-4.5c.1-.5 3.4-1.1 4-1.3-.6-.2-3.9-.74-4-1.3l-1-4.5m0 16.2l-1 4.5c-.1.52-3.4 1.1-4 1.26.6.1 3.9.7 4.1 1.2l1 4.5 1-4.5c.1-.5 3.4-1.1 4-1.3-.6-.2-3.9-.8-4-1.3l-1-4.5m0 16.1l-1 4.5c-.1.5-3.4 1.1-4 1.3.6.2 3.9.7 4.02 1.3l.96 4.5 1-4.5c.1-.6 3.4-1.1 4-1.3-.6-.2-3.9-.7-4-1.3l-1-4.5m0-47.4l-.95 4.5c-.1.5-3.4 1.1-4 1.3.6.1 3.9.7 4 1.2l1 4.5 1-4.5c.1-.6 3.4-1.1 4-1.3-.6-.2-3.9-.8-4-1.3l-1-4.5m0-64.6l-.7 4.4c-.1.5-3.4 1.1-4 1.2.6.1 3.9.7 4.06 1.2l.9 4.5 1-4.5c.1-.5 3.4-1.1 4-1.3-.6-.2-3.9-.8-4-1.3l-1-4.5m0-16.1l-1 4.5c-.1.5-3.4 1.1-4 1.3.6.2 3.9.7 4 1.3l1 4.5 1-4.5c.1-.6 3.4-1.1 4-1.3-.6-.1-3.9-.7-4-1.2l-1-4.5m0-16.2l-1 4.1c-.1.5-3.4 1.1-4.1 1.2.6.2 3.9.8 4 1.3l.9 5 1-4.5c.1-.5 3.4-1.1 4-1.28-.6-.2-3.9-.73-4-1.26l-1-4.5m0-16.2l-1 4.5c-.1.5-3.4 1.1-4 1.3.6.1 3.9.7 4 1.2l1 4.5.94-4.5c.1-.5 3.4-1.1 4-1.25-.6-.2-3.9-.8-4-1.3l-1-4.5" transform="matrix(1 0 0 1.003 0 -.363)"/><path fill="none" stroke="#fb0f0c" stroke-width="1.29" stroke-miterlimit="10" d="M8.37 6.64c-2.35 0-1.5 6.42-1.5 7.7v215.9c0 1.75-.66 5.5 1.93 5.5H158c2.76 0 2.22-2.95 2.22-4.93V15.1c0-2.04.47-4.72 0-6.72 0-2.98-8.46-1.74-10.12-1.74H8.37" transform="matrix(1 0 0 1.003 0 -.363)"/></g></svg>
