<svg xmlns="http://www.w3.org/2000/svg" fill-rule="evenodd" stroke-miterlimit="10" viewBox="0 0 170 247" clip-rule="evenodd"><path fill="#fff" d="M7.455 1.512c-3.285 0-5.917 2.57-5.917 5.75v232.386c0 3.21 2.632 5.78 5.917 5.78H162.58c3.286 0 5.918-2.57 5.918-5.75V7.25c0-3.16-2.632-5.738-5.917-5.738H7.46z"/><path fill="#17067A" d="M162.676.06l.094.002.095.002.094.004.09.006.09.006.09.007.09.01.09.01.09.01.09.01.09.014.09.02.09.02.09.02.09.02.09.02.09.02.09.02.08.02.09.03.09.03.09.03.09.03.08.03.08.03.08.03.08.03.08.03.08.03.08.03.08.03.08.04.08.04.08.04.08.04.08.04.08.04.08.04.07.04.08.05.08.04.08.04.07.05.07.05.07.05.07.05.07.05.07.05.07.05.07.05.07.05.07.06.07.05.07.06.07.05.07.06.07.05.07.06.06.06.07.06.06.06.07.06.06.06.06.07.06.06.06.07.06.06.05.06.06.07.06.07.05.07.06.07.05.07.05.07.05.07.05.07.05.07.05.07.05.07.05.07.05.07.04.08.05.07.04.07.05.07.04.08.04.07.04.08.04.08.04.08.04.08.04.08.04.09.03.08.03.08.03.08.03.08.03.08.03.08.03.08.03.09.03.09.03.08.03.09.03.09.02.08.03.09.02.09.02.09.02.09.02.09.013.09.014.09.01.09.017.09.01.09.01.09.01.09.01.09.01.09.01.09.005.1V7l.01.096V239.88l-.01.09v.09l-.01.09-.005.09-.01.09-.01.09-.01.09-.01.09-.01.09-.01.09-.018.09-.016.09-.02.09-.01.09-.02.09-.02.09-.02.09-.02.09-.02.08-.03.08-.023.09-.024.09-.02.09-.03.08-.03.09-.03.09-.03.082-.03.08-.03.08-.03.08-.03.08-.04.09-.03.08-.04.08-.04.08-.04.074-.04.076-.04.08-.04.07-.04.08-.05.08-.05.076-.04.07-.05.07-.05.07-.05.07-.05.074-.05.07-.05.07-.05.07-.054.07-.05.06-.05.07-.06.07-.05.07-.06.07-.06.07-.06.063-.06.065-.06.062-.06.06-.06.07-.065.06-.06.06-.07.06-.07.06-.07.06-.07.06-.06.06-.07.06-.07.05-.07.06-.07.05-.07.05-.07.05-.07.05-.07.05-.07.05-.07.05-.08.04-.07.04-.07.043-.07.05-.07.05-.08.04-.08.05-.08.04-.08.04-.08.04-.08.04-.08.04-.08.04-.08.04-.08.032-.08.03-.082.03-.08.04-.09.03-.08.03-.08.03-.08.02-.087.03-.09.026-.085.023-.09.03-.09.02-.09.02-.09.02-.09.03-.09.02-.09.01-.09.02-.09.02-.09.014-.09.013-.09.01-.09.01-.09.01-.09.01-.09.01H163l-.09.005h-.09l-.09.01H6.99l-.09-.01-.09-.01-.09-.01-.09-.01-.09-.01-.09-.01-.09-.02-.09-.01-.09-.02-.09-.02-.09-.02-.09-.02-.09-.02-.09-.02-.08-.02-.09-.02-.09-.027-.09-.02-.08-.02-.087-.02-.084-.03-.08-.02-.09-.03-.08-.03-.09-.03-.09-.03-.09-.03-.08-.03-.09-.04-.08-.03-.08-.04-.08-.04-.08-.04-.08-.04-.08-.04-.07-.06-.08-.04-.08-.05-.08-.05-.08-.04-.08-.04-.08-.05-.08-.05-.08-.05-.07-.05-.07-.05-.07-.05-.07-.05-.07-.05-.07-.05-.07-.05-.06-.06-.07-.05-.07-.05-.06-.06-.06-.06-.06-.052-.06-.06-.06-.06-.07-.06-.06-.06-.06-.066-.06-.06-.06-.062-.05-.06-.06-.066-.06-.06-.05-.06-.06-.07-.05-.07-.06-.07-.05-.07-.05-.07-.05-.07-.05-.08-.05-.07-.05-.07-.05-.08-.05-.07-.05-.08-.04-.08-.05-.07-.05-.07-.04-.08-.04-.08-.04-.08-.04-.08-.04-.08-.04-.08-.04-.08-.04-.08-.04-.08-.03-.08-.03-.086-.03-.09-.03-.09-.03-.09-.03-.09-.03-.08-.02-.08-.03-.083-.02-.09-.02-.09-.02-.09-.03-.09-.02-.08-.02-.09-.02-.09-.02-.09-.01-.09-.02-.09-.01-.09-.01-.09-.01-.1-.01-.09-.01-.09-.01-.09-.01-.09-.01-.09-.01-.09v-.09l-.01-.09V6.8l.01-.097.01-.09.01-.093.01-.09.01-.09.01-.09.01-.09.01-.09.02-.09.02-.088.02-.09.02-.087.02-.088.02-.09.02-.086.02-.08.02-.08.01-.09.03-.08.03-.09.03-.08.03-.08.03-.08.032-.08.03-.08.03-.08.035-.08.04-.08.04-.08.03-.08.04-.08.04-.08.04-.08.04-.08.04-.08.04-.07.04-.07.04-.07.04-.07.05-.07.05-.07.05-.07.05-.07.05-.07.05-.07.06-.08.05-.07.06-.07.06-.06.06-.07.06-.06.06-.07.06-.07.06-.07.06-.06.06-.07.06-.06.06-.06.06-.06.06-.06.06-.06.06-.06.06-.06.07-.05.065-.05.07-.06.07-.06.07-.05.07-.05.07-.05.07-.05.07-.05.08-.05.07-.05.07-.05.07-.04.07-.05.08-.05.08-.05.08-.04.08-.05.07-.04.08-.04.08-.04.08-.04.08-.04.1-.04.08-.04.08-.04.08-.04.08-.05.08-.03.09-.03.082-.03.09-.03L5 .5l.08-.04.08-.02.1-.03.09-.03.09-.024.09-.03.09-.02.09-.02.09-.02.09-.02.09-.02.1-.01.09-.02.09-.02.09-.01.09-.01.09-.01.09-.01.09-.01.09-.01.09-.01L7 .07l.094-.01.097-.005h155.5zM7.46 2.966h-.124l-.058.003H6.93l-.06.02-.06.01-.058.01-.056.01-.057.01-.06.01-.06.01-.06.01-.06.01-.06.01-.06.01-.05.01-.06.01-.06.02-.05.01-.05.02-.05.01-.05.02-.05.01-.05.02-.05.01-.06.02-.05.02-.05.02-.05.02-.05.02-.05.02-.05.02-.05.02-.05.02-.05.02-.05.02-.05.02-.05.02-.05.03-.05.02-.05.03-.04.02-.05.03-.05.03-.04.03-.05.03-.04.03-.05.03-.05.03-.04.03-.04.03-.04.03V4l-.04.033-.04.033-.04.036-.04.03-.04.038-.04.036-.04.03-.04.038-.04.036-.04.04-.04.034-.04.04-.03.04-.03.04-.03.036-.04.044-.03.04-.03.04-.03.04-.03.043-.03.04-.03.046-.03.045-.03.04-.03.048-.03.047-.03.045-.03.044-.03.047-.03.04-.03.04-.03.05-.03.04-.02.04-.02.04-.03.05-.02.05-.02.05-.02.05-.02.05-.02.05-.02.05-.02.04-.02.05-.02.05V6l-.02.05-.01.05-.02.052-.02.05-.02.052-.01.05-.01.053v.053l-.01.05-.01.05-.01.05-.01.05-.01.05v.2l-.01.05-.01.06v232.79l.01.06v.06l.01.05v.32l.01.05.01.05.01.05.01.05.01.05.01.05.01.05.01.05.01.05.01.05.01.05.01.05.02.05.01.05.01.05.02.05.02.05.02.05.02.05.02.04.02.05.02.05.02.05.02.05.03.04.02.05.02.05.03.042.03.04.02.044.03.045.03.04.02.05.03.05.03.05.03.04.03.05.03.04.03.05.03.04.03.04.03.04.03.04.03.04.035.04.03.04.036.04.04.04.04.04.036.04.04.03.034.04.04.04.04.04.04.03.04.04.04.04.04.03.04.03.04.04.04.04.045.03.04.04.04.03.04.04.047.03.04.03.04.04.05.03.04.02.047.03.04.03.043.03.05.03.05.03.04.03.05.03.05.02.05.03.05.03.05.03.05.03.05.02.05.02.05.02.05.02.05.02.05.02.05.02.05.01.06.02.05.02.06.02.05.016.053.014.05.01.05.017.05.018.06.01.06.02.06.01.06.01.06.01.05.01.06.01.06.01.06.01.06.01h.06l.06.01.06.004.057.01.06.01H162.8l.06-.006h.114l.06-.004.058-.01.057-.004.06-.01.06-.004.06-.01.06-.01.06-.01.06-.01.06-.01.06-.01.06-.01.06-.01.06-.014.06-.01.06-.01.05-.01.05-.02.06-.01.05-.02.05-.02.05-.02.05-.02.05-.02.05-.02.05-.02.05-.02.05-.024.05-.02.05-.02.05-.02.05-.03.05-.02.04-.02.04-.024.04-.025.05-.03.05-.03.05-.03.05-.03.04-.03.04-.023.05-.03.04-.03.04-.03.04-.033.04-.03.04-.04.04-.03.04-.03.04-.04.04-.03.04-.03.04-.035.04-.04.04-.032.03-.04.04-.04.03-.04.03-.04.03-.04.03-.04.03-.04.03-.04.03-.04.03-.04.04-.04.03-.04.03-.04.03-.05.03-.04.03-.04.03-.04.03-.05.03-.04.03-.04.03-.05.03-.05.02-.05.02-.05.03-.043.03-.04.02-.05.02-.044.03-.044.02-.05.02-.04.02-.05.02-.05.02-.05.02-.05.02-.04.02-.05.01-.05.02-.05.02-.05.01-.05.02-.05.01-.05.01-.05.01-.05.01-.05.01-.05.01-.05.02-.05.01-.05.01-.05.01-.05v-.05l.01-.05.01-.05V240l.003-.06V6.978l-.01-.05v-.06l-.01-.06-.01-.05-.01-.05-.01-.058-.01-.06-.01-.06-.01-.05-.01-.05-.01-.06-.01-.05-.01-.05-.02-.05-.01-.05-.017-.05-.01-.05-.01-.05-.02-.05-.02-.05-.02-.05-.02-.05-.02-.05-.02-.05-.02-.05-.02-.05-.02-.05-.02-.05-.02-.05-.02-.05-.03-.05-.025-.05-.02-.05-.02-.04-.02-.05-.02-.04-.025-.04-.03-.05-.03-.05-.02-.04-.03-.04-.03-.05-.03-.04-.03-.04-.03-.04-.03-.04-.034-.04-.03-.04-.03-.04-.03-.05-.03-.04-.04-.04-.03-.04-.035-.04-.04-.04-.04-.04-.04-.04-.04-.04-.04-.04-.04-.04-.04-.04-.04-.04-.04-.03-.04-.03-.04-.03-.04-.04-.04-.03-.05-.04-.04-.04-.04-.03-.04-.03-.04-.03-.04-.03-.04-.03-.05-.02-.04-.03-.04-.03-.05-.03-.04-.02-.05-.03-.04-.03-.05-.03-.04-.03-.04-.03-.05-.03-.05-.03-.05-.03-.05-.02-.05-.02-.05-.02-.05-.02-.05-.02-.05-.02-.05-.02-.05-.02-.06-.02-.05-.02-.05-.02-.05-.02-.05-.02-.05-.02-.06-.02-.05-.013-.05-.01-.06-.01-.056-.01-.06-.01-.05-.01-.05-.01-.053-.01-.06-.01-.06-.01-.06-.01h-.1l-.06-.007h-.06l-.052-.01H7.46z"/><path fill="#fff" d="M9.138 7.15c-.837 0-1.5.65-1.5 1.456V238.24c0 .796.663 1.428 1.49 1.428H160.51c.817 0 1.43-.632 1.43-1.427V8.61c0-.815-.675-1.457-1.5-1.457H9.137z"/><path fill="#17067A" d="M160.51 5.783l.073.003.07.004.072.006.07.008.07.01.07.01.07.013.068.014.068.02.07.02.07.02.07.02.07.02.07.03.07.03.06.03.07.03.06.03.06.03.06.03.06.04.06.04.06.04.06.04.06.04.06.04.06.05.06.04.05.05.05.05.05.05.05.05.05.05.05.05.05.05.04.06.04.06.04.06.04.05.04.06.04.06.04.06.04.06.03.06.03.06.03.06.03.06.03.06.02.07.03.07.03.07.02.07.02.07.01.07.02.07.01.07.01.07.01.07.01.08.01.07.01.07.01.07v230.05l-.01.07-.01.07-.01.07-.01.07-.02.07-.02.07-.02.07-.02.07-.02.06-.02.06-.02.06-.02.07-.03.06-.03.06-.03.06-.03.06-.04.06-.03.06-.04.06-.03.06-.04.06-.04.05-.05.05-.04.05-.04.05-.05.05-.04.05-.05.05-.05.04-.05.05-.05.05-.06.04-.05.04-.05.04-.06.04-.06.04-.05.04-.06.04-.06.03-.06.03-.06.03-.07.03-.07.03-.06.03-.063.02-.064.02-.06.02-.065.02-.07.02-.06.01-.07.02-.07.02-.07.01-.07.01-.07.01H8.99l-.07-.01-.07-.004-.07-.01-.07-.01-.07-.01-.07-.01-.07-.01-.07-.016-.064-.02L8.3 241l-.07-.02-.07-.027-.07-.02-.06-.026-.06-.03-.07-.03-.06-.03-.06-.03-.06-.03-.06-.03-.06-.03-.05-.03-.06-.03-.06-.04-.05-.04-.06-.04-.05-.05-.05-.04-.05-.04-.05-.05-.05-.05-.05-.05-.05-.05-.05-.05-.05-.05-.04-.05-.05-.055-.04-.06-.04-.06-.04-.05-.04-.06-.04-.06-.04-.06-.03-.06-.03-.063-.02-.06-.03-.07-.03-.07-.02-.07-.02-.06-.02-.07-.02-.07-.02-.06-.01-.07-.02-.07-.01-.07-.01-.07-.01-.07-.01-.08-.01-.07V8.46l.006-.07.01-.07.01-.07.01-.07.016-.07.01-.07.01-.07.02-.06.02-.07.02-.07.02-.06.03-.06.03-.06.02-.07.03-.06.03-.06.03-.06.03-.06.03-.06.04-.06.04-.06.036-.055.04-.057.04-.05.04-.052.04-.05.05-.05.04-.05.05-.05.05-.05.05-.04.05-.048.05-.05.05-.05.05-.04.05-.04.055-.04.053-.04.06-.04.06-.04.06-.04.06-.04.06-.03.06-.03.06-.03.06-.03.07-.02.07-.03.07-.03.06-.02.07-.02.07-.02.07-.01.07-.02.065-.01.07-.01.07-.01.07-.01.07-.01.07-.01h151.5zM9.147 8.516H9.11l-.003.002h-.01l-.003.002H9.09l-.003.002h-.004l-.004.002h-.01l-.01.002-.01.002-.01.002-.01.002-.01.003v.003l-.01.002-.01.003V238.25l.01.01h.02l.01.003.01.01h.01l.01.004h151.48V8.59h-.01v-.03h-.01v-.02h-.01v-.005h-.03l-.01-.002H9.14z"/><path fill="#313390" d="M39.088 37.42c-.408 0-.714.326-.714.714v171.303c0 .388.306.693.714.693h89.973c.41 0 .72-.305.72-.693V38.134c0-.388-.3-.714-.71-.714H39.09z"/><path fill="none" stroke="#17067A" stroke-width="1.64" d="M38.66 37.1c-.4 0-.7.32-.7.7v168.07c0 .38.3.68.7.68h88.2c.4 0 .7-.3.7-.68V37.8c0-.38-.3-.7-.7-.7h-88.2z" transform="matrix(1.0201 0 0 1.01924 -.35 -.394)"/><path fill="#fff" d="M53.328 43.505c-4.713 0-8.508 3.69-8.508 8.276v143.21c0 4.59 3.795 8.26 8.508 8.26h61.104c4.723 0 8.517-3.67 8.517-8.25V51.79c0-4.585-3.8-8.285-8.51-8.285H53.33z"/><path fill="none" stroke="#17067A" stroke-width="2.07" d="M52.62 43.07c-4.62 0-8.34 3.62-8.34 8.12v140.5c0 4.5 3.72 8.1 8.34 8.1h59.9c4.63 0 8.35-3.6 8.35-8.1V51.2c0-4.5-3.72-8.13-8.34-8.13H52.62z" stroke-linejoin="round" transform="matrix(1.0201 0 0 1.01924 -.35 -.394)"/><path fill="#313390" d="M54.276 50.1c-1.59 0-2.856 1.222-2.856 2.782v141.062c0 1.55 1.265 2.793 2.856 2.793h58.84c1.58 0 2.856-1.223 2.856-2.752V52.912c0-1.56-1.275-2.792-2.856-2.792h-58.84v-.02z"/><path fill="none" stroke="#17067A" stroke-width="1.8" d="M53.55 49.54c-1.56 0-2.8 1.2-2.8 2.73v138.4c0 1.52 1.24 2.74 2.8 2.74h57.68c1.55 0 2.8-1.2 2.8-2.7V52.3c0-1.53-1.25-2.74-2.8-2.74H53.55v-.02z" stroke-linejoin="round" transform="matrix(1.0201 0 0 1.01924 -.35 -.394)"/><path fill="#17067A" d="M9.24 8.81h6.813L9.32 15.333 9.25 8.81h-.01z"/><path fill="none" stroke="#17067A" stroke-width=".86" d="M9.41 9.03h6.67l-6.6 6.4-.07-6.4z" transform="matrix(1.0201 0 0 1.01924 -.35 -.394)"/><path fill="#17067A" d="M160.295 8.88H153.5l6.734 6.545.06-6.524v-.02z"/><path fill="none" stroke="#17067A" stroke-width=".86" d="M157.48 9.1h-6.66l6.6 6.42.06-6.4V9.1z" transform="matrix(1.0201 0 0 1.01924 -.35 -.394)"/><path fill="#17067A" d="M160.418 238.23h-6.794l6.733-6.523.06 6.523z"/><path fill="none" stroke="#17067A" stroke-width=".86" d="M157.6 234.12h-6.66l6.6-6.4.06 6.4z" transform="matrix(1.0201 0 0 1.01924 -.35 -.394)"/><path fill="#17067A" d="M9.24 238.19h6.803l-6.733-6.523-.06 6.523h-.01z"/><path fill="none" stroke="#17067A" stroke-width=".86" d="M10.302 234.06l5.768.02-6.6-6.4-.06 6.4.892-.02z" transform="matrix(1.0201 0 0 1.01924 -.35 -.394)"/><path fill="#313390" d="M11.86 132.75v6.257l22.88-11.69v-6.42L11.86 132.75z"/><path fill="none" stroke="#17067A" stroke-width="1.32" d="M11.97 130.63v6.14L34.4 125.3V119l-22.43 11.63z" stroke-linecap="round" stroke-linejoin="round" transform="matrix(1.0201 0 0 1.01924 -.35 -.394)"/><path fill="#313390" d="M11.973 144.573v6.258l22.87-11.69v-6.42l-22.85 11.87-.02-.01z"/><path fill="none" stroke="#17067A" stroke-width="1.32" d="M12.08 142.23v6.14L34.5 136.9v-6.3l-22.4 11.64-.02-.01z" stroke-linecap="round" stroke-linejoin="round" transform="matrix(1.0201 0 0 1.01924 -.35 -.394)"/><path fill="#fff" d="M11.738 139.038v-6.258l22.88 11.69v6.422l-22.88-11.854z"/><path fill="none" stroke="#17067A" stroke-width="1.32" d="M11.85 136.8v-6.14l22.43 11.47v6.3L11.85 136.8z" stroke-linecap="round" stroke-linejoin="round" transform="matrix(1.0201 0 0 1.01924 -.35 -.394)"/><path fill="#313390" d="M12.024 120.763v6.248l22.88-11.69v-6.4l-22.88 11.85z"/><path fill="none" stroke="#17067A" stroke-width="1.32" d="M12.13 118.87V125l22.43-11.47v-6.28l-22.43 11.62z" stroke-linecap="round" stroke-linejoin="round" transform="matrix(1.0201 0 0 1.01924 -.35 -.394)"/><path fill="#fff" d="M11.912 127.276v-6.248l22.88 11.69v6.402l-22.88-11.844z"/><path fill="none" stroke="#17067A" stroke-width="1.32" d="M12.02 125.26v-6.13l22.43 11.47v6.28l-22.43-11.62z" stroke-linecap="round" stroke-linejoin="round" transform="matrix(1.0201 0 0 1.01924 -.35 -.394)"/><path fill="#313390" d="M11.912 108.94v6.258l22.87-11.63v-6.42l-22.87 11.822v-.03z"/><path fill="none" stroke="#17067A" stroke-width="1.32" d="M12.02 107.27v6.14L34.44 102v-6.3l-22.42 11.6v-.03z" stroke-linecap="round" stroke-linejoin="round" transform="matrix(1.0201 0 0 1.01924 -.35 -.394)"/><path fill="#fff" d="M11.79 115.23v-6.26l22.88 11.7v6.402L11.79 115.23z"/><path fill="none" stroke="#17067A" stroke-width="1.32" d="M11.9 113.44v-6.14l22.43 11.48v6.28L11.9 113.44z" stroke-linecap="round" stroke-linejoin="round" transform="matrix(1.0201 0 0 1.01924 -.35 -.394)"/><path fill="#fff" d="M11.963 103.467V97.22l22.88 11.69v6.4l-22.88-11.843z"/><path fill="none" stroke="#17067A" stroke-width="1.32" d="M12.07 101.9v-6.13l22.43 11.47v6.28L12.07 101.9z" stroke-linecap="round" stroke-linejoin="round" transform="matrix(1.0201 0 0 1.01924 -.35 -.394)"/><path fill="#313390" d="M11.993 156.508v6.248l22.89-11.69v-6.402l-22.89 11.844z"/><path fill="none" stroke="#17067A" stroke-width="1.32" d="M12.1 153.94v6.13l22.44-11.47v-6.28L12.1 153.94z" stroke-linecap="round" stroke-linejoin="round" transform="matrix(1.0201 0 0 1.01924 -.35 -.394)"/><path fill="#fff" d="M11.77 150.963v-6.248l22.88 11.69v6.402l-22.86-11.844h-.02z"/><path fill="none" stroke="#17067A" stroke-width="1.32" d="M11.88 148.5v-6.13l22.43 11.47v6.28L11.9 148.5h-.02z" stroke-linecap="round" stroke-linejoin="round" transform="matrix(1.0201 0 0 1.01924 -.35 -.394)"/><path fill="#313390" d="M11.77 73.195v6.238l22.87-11.69V61.32L11.79 73.196h-.02z"/><path fill="none" stroke="#17067A" stroke-width="1.32" d="M11.88 72.2v6.12L34.3 66.85v-6.3L11.9 72.2h-.02z" stroke-linecap="round" stroke-linejoin="round" transform="matrix(1.0201 0 0 1.01924 -.35 -.394)"/><path fill="#313390" d="M11.89 84.998v6.258l22.882-11.69v-6.422l-22.88 11.874v-.02z"/><path fill="none" stroke="#17067A" stroke-width="1.32" d="M12 83.78v6.14l22.43-11.47v-6.3L12 83.8v-.02z" stroke-linecap="round" stroke-linejoin="round" transform="matrix(1.0201 0 0 1.01924 -.35 -.394)"/><path fill="#fff" d="M11.657 79.463v-6.268l22.88 11.72v6.392l-22.88-11.844z"/><path fill="none" stroke="#17067A" stroke-width="1.32" d="M11.77 78.35V72.2L34.2 83.7v6.27L11.77 78.35z" stroke-linecap="round" stroke-linejoin="round" transform="matrix(1.0201 0 0 1.01924 -.35 -.394)"/><path fill="#313390" d="M11.942 61.188v6.26l22.88-11.682v-6.42l-22.88 11.842z"/><path fill="none" stroke="#17067A" stroke-width="1.32" d="M12.05 60.42v6.14L34.48 55.1v-6.3L12.05 60.42z" stroke-linecap="round" stroke-linejoin="round" transform="matrix(1.0201 0 0 1.01924 -.35 -.394)"/><path fill="#fff" d="M11.83 67.69v-6.216l22.88 11.69v6.4L11.83 67.692z"/><path fill="none" stroke="#17067A" stroke-width="1.32" d="M11.94 66.8v-6.1l22.43 11.47v6.28L11.94 66.8z" stroke-linecap="round" stroke-linejoin="round" transform="matrix(1.0201 0 0 1.01924 -.35 -.394)"/><path fill="#313390" d="M11.82 49.375v6.248l22.88-11.68v-6.42L11.82 49.385v-.01z"/><path fill="none" stroke="#17067A" stroke-width="1.32" d="M11.93 48.83v6.13L34.36 43.5v-6.3L11.93 48.84v-.01z" stroke-linecap="round" stroke-linejoin="round" transform="matrix(1.0201 0 0 1.01924 -.35 -.394)"/><path fill="#fff" d="M11.708 55.664v-6.258l22.88 11.69V67.5l-22.88-11.834z"/><path fill="none" stroke="#17067A" stroke-width="1.32" d="M11.82 55v-6.14l22.43 11.47v6.28L11.82 55z" stroke-linecap="round" stroke-linejoin="round" transform="matrix(1.0201 0 0 1.01924 -.35 -.394)"/><path fill="#fff" d="M11.89 43.892v-6.248l22.85 11.7v6.392L11.89 43.892z"/><path fill="none" stroke="#17067A" stroke-width="1.32" d="M12 43.45v-6.13L34.4 48.8v6.27L12 43.45z" stroke-linecap="round" stroke-linejoin="round" transform="matrix(1.0201 0 0 1.01924 -.35 -.394)"/><path fill="#313390" d="M11.922 96.943v6.238l22.88-11.69v-6.4l-22.88 11.86z"/><path fill="none" stroke="#17067A" stroke-width="1.32" d="M12.03 95.5v6.12l22.43-11.47v-6.28L12.03 95.5z" stroke-linecap="round" stroke-linejoin="round" transform="matrix(1.0201 0 0 1.01924 -.35 -.394)"/><path fill="#fff" d="M11.687 91.39v-6.25l22.88 11.7v6.392L11.687 91.39z"/><path fill="none" stroke="#17067A" stroke-width="1.32" d="M11.8 90.05v-6.13L34.23 95.4v6.27L11.8 90.05z" stroke-linecap="round" stroke-linejoin="round" transform="matrix(1.0201 0 0 1.01924 -.35 -.394)"/><path fill="#313390" d="M11.86 192.16v6.25l22.87-11.692v-6.4L11.78 192.16h.08z"/><path fill="none" stroke="#17067A" stroke-width="1.32" d="M11.97 188.92v6.13l22.42-11.47v-6.28l-22.5 11.62h.08z" stroke-linecap="round" stroke-linejoin="round" transform="matrix(1.0201 0 0 1.01924 -.35 -.394)"/><path fill="#313390" d="M11.973 203.984v6.248l22.88-11.69v-6.402l-22.85 11.844h-.03z"/><path fill="none" stroke="#17067A" stroke-width="1.32" d="M12.08 200.52v6.13l22.43-11.47v-6.28l-22.4 11.62h-.03z" stroke-linecap="round" stroke-linejoin="round" transform="matrix(1.0201 0 0 1.01924 -.35 -.394)"/><path fill="#fff" d="M11.738 198.44v-6.25l22.88 11.692v6.42L11.74 198.44z"/><path fill="none" stroke="#17067A" stroke-width="1.32" d="M11.85 195.08v-6.13l22.43 11.47v6.3l-22.43-11.64z" stroke-linecap="round" stroke-linejoin="round" transform="matrix(1.0201 0 0 1.01924 -.35 -.394)"/><path fill="#313390" d="M12.024 180.175v6.247l22.88-11.72v-6.422l-22.88 11.823v.072z"/><path fill="none" stroke="#17067A" stroke-width="1.32" d="M12.13 177.16v6.13l22.43-11.5v-6.3l-22.43 11.6v.07z" stroke-linecap="round" stroke-linejoin="round" transform="matrix(1.0201 0 0 1.01924 -.35 -.394)"/><path fill="#fff" d="M11.912 186.688v-6.26l22.88 11.723v6.43l-22.88-11.82v-.06z"/><path fill="none" stroke="#17067A" stroke-width="1.32" d="M12.02 183.55v-6.14l22.43 11.5v6.3l-22.43-11.6v-.06z" stroke-linecap="round" stroke-linejoin="round" transform="matrix(1.0201 0 0 1.01924 -.35 -.394)"/><path fill="#313390" d="M11.912 168.35v6.25l22.87-11.722v-6.42l-22.87 11.822v.07z"/><path fill="none" stroke="#17067A" stroke-width="1.32" d="M12.02 165.56v6.13l22.42-11.5v-6.3l-22.42 11.6v.07z" stroke-linecap="round" stroke-linejoin="round" transform="matrix(1.0201 0 0 1.01924 -.35 -.394)"/><path fill="#fff" d="M11.79 174.63v-6.248l22.88 11.63v6.4L11.79 174.61v.02z"/><path fill="none" stroke="#17067A" stroke-width="1.32" d="M11.9 171.72v-6.13L34.33 177v6.28L11.9 171.7v.02z" stroke-linecap="round" stroke-linejoin="round" transform="matrix(1.0201 0 0 1.01924 -.35 -.394)"/><path fill="#fff" d="M11.963 162.888v-6.268l22.88 11.69v6.422l-22.88-11.844z"/><path fill="none" stroke="#17067A" stroke-width="1.32" d="M12.07 160.2v-6.15l22.43 11.47v6.3L12.07 160.2z" stroke-linecap="round" stroke-linejoin="round" transform="matrix(1.0201 0 0 1.01924 -.35 -.394)"/><path fill="#313390" d="M134.242 115.106v-6.248l22.88 11.62v6.42l-22.88-11.883v.09z"/><path fill="none" stroke="#17067A" stroke-width="1.32" d="M131.94 113.32v-6.13l22.43 11.4v6.3l-22.43-11.66v.09z" stroke-linecap="round" stroke-linejoin="round" transform="matrix(1.0201 0 0 1.01924 -.35 -.394)"/><path fill="#313390" d="M134.354 103.283v-6.258l22.88 11.7v6.422l-22.88-11.864z"/><path fill="none" stroke="#17067A" stroke-width="1.32" d="M132.05 101.72v-6.14l22.43 11.48v6.3l-22.43-11.64z" stroke-linecap="round" stroke-linejoin="round" transform="matrix(1.0201 0 0 1.01924 -.35 -.394)"/><path fill="#fff" d="M134.13 108.828v6.248L157 103.354v-6.42l-22.87 11.822v.072z"/><path fill="none" stroke="#17067A" stroke-width="1.32" d="M131.83 107.16v6.13l22.42-11.5v-6.3l-22.42 11.6v.07z" stroke-linecap="round" stroke-linejoin="round" transform="matrix(1.0201 0 0 1.01924 -.35 -.394)"/><path fill="#313390" d="M134.405 127.113v-6.268l22.88 11.7v6.422l-22.88-11.854z"/><path fill="none" stroke="#17067A" stroke-width="1.32" d="M132.1 125.1v-6.15l22.43 11.48v6.3L132.1 125.1z" stroke-linecap="round" stroke-linejoin="round" transform="matrix(1.0201 0 0 1.01924 -.35 -.394)"/><path fill="#fff" d="M134.303 120.59v6.248l22.87-11.69v-6.422l-22.87 11.864z"/><path fill="none" stroke="#17067A" stroke-width="1.32" d="M132 118.7v6.13l22.42-11.47v-6.3L132 118.7z" stroke-linecap="round" stroke-linejoin="round" transform="matrix(1.0201 0 0 1.01924 -.35 -.394)"/><path fill="#313390" d="M134.303 138.936v-6.258l22.87 11.7v6.402l-22.87-11.844z"/><path fill="none" stroke="#17067A" stroke-width="1.32" d="M132 136.7v-6.14l22.42 11.48v6.28L132 136.7z" stroke-linecap="round" stroke-linejoin="round" transform="matrix(1.0201 0 0 1.01924 -.35 -.394)"/><path fill="#fff" d="M134.18 132.647v6.248l22.87-11.69v-6.422l-22.88 11.824.01.04z"/><path fill="none" stroke="#17067A" stroke-width="1.32" d="M131.88 130.53v6.13l22.42-11.47v-6.3l-22.43 11.6.01.04z" stroke-linecap="round" stroke-linejoin="round" transform="matrix(1.0201 0 0 1.01924 -.35 -.394)"/><path fill="#fff" d="M134.344 144.41v6.258l22.88-11.62v-6.42l-22.88 11.873v-.09z"/><path fill="none" stroke="#17067A" stroke-width="1.32" d="M132.04 142.07v6.14l22.43-11.4v-6.3l-22.43 11.65v-.09z" stroke-linecap="round" stroke-linejoin="round" transform="matrix(1.0201 0 0 1.01924 -.35 -.394)"/><path fill="#313390" d="M134.385 91.338V85.09l22.88 11.69v6.422l-22.86-11.864h-.02z"/><path fill="none" stroke="#17067A" stroke-width="1.32" d="M132.08 90v-6.13l22.43 11.47v6.3L132.1 90h-.02z" stroke-linecap="round" stroke-linejoin="round" transform="matrix(1.0201 0 0 1.01924 -.35 -.394)"/><path fill="#fff" d="M134.16 96.882v6.258l22.89-11.7v-6.422l-22.89 11.864z"/><path fill="none" stroke="#17067A" stroke-width="1.32" d="M131.86 95.44v6.14L154.3 90.1v-6.3l-22.44 11.64z" stroke-linecap="round" stroke-linejoin="round" transform="matrix(1.0201 0 0 1.01924 -.35 -.394)"/><path fill="#313390" d="M134.15 174.71v-6.247l22.88 11.7v6.402l-22.88-11.843v-.01z"/><path fill="none" stroke="#17067A" stroke-width="1.32" d="M131.85 171.8v-6.13l22.43 11.48v6.28l-22.43-11.62v-.01z" stroke-linecap="round" stroke-linejoin="round" transform="matrix(1.0201 0 0 1.01924 -.35 -.394)"/><path fill="#313390" d="M134.273 162.888v-6.258l22.88 11.7v6.422l-22.88-11.864z"/><path fill="none" stroke="#17067A" stroke-width="1.32" d="M131.97 160.2v-6.14l22.43 11.48v6.3l-22.43-11.64z" stroke-linecap="round" stroke-linejoin="round" transform="matrix(1.0201 0 0 1.01924 -.35 -.394)"/><path fill="#fff" d="M134.038 168.433v6.258l22.88-11.7v-6.42l-22.88 11.87z"/><path fill="none" stroke="#17067A" stroke-width="1.32" d="M131.74 165.64v6.14l22.43-11.48V154l-22.43 11.64z" stroke-linecap="round" stroke-linejoin="round" transform="matrix(1.0201 0 0 1.01924 -.35 -.394)"/><path fill="#313390" d="M134.324 186.708v-6.258l22.88 11.7v6.422l-22.88-11.823v-.05z"/><path fill="none" stroke="#17067A" stroke-width="1.32" d="M132.02 183.57v-6.14l22.43 11.48v6.3l-22.43-11.6v-.04z" stroke-linecap="round" stroke-linejoin="round" transform="matrix(1.0201 0 0 1.01924 -.35 -.394)"/><path fill="#fff" d="M134.2 180.195v6.258l22.892-11.7v-6.422l-22.89 11.89v-.02z"/><path fill="none" stroke="#17067A" stroke-width="1.32" d="M131.9 177.18v6.14l22.44-11.48v-6.3L131.9 177.2v-.02z" stroke-linecap="round" stroke-linejoin="round" transform="matrix(1.0201 0 0 1.01924 -.35 -.394)"/><path fill="#313390" d="M134.2 198.54v-6.257l22.882 11.7v6.422l-22.88-11.864z"/><path fill="none" stroke="#17067A" stroke-width="1.32" d="M131.9 195.18v-6.14l22.43 11.48v6.3l-22.43-11.64z" stroke-linecap="round" stroke-linejoin="round" transform="matrix(1.0201 0 0 1.01924 -.35 -.394)"/><path fill="#fff" d="M134.1 192.242v6.27l22.87-11.702v-6.42l-22.87 11.85z"/><path fill="none" stroke="#17067A" stroke-width="1.32" d="M131.8 189v6.15l22.42-11.48v-6.3L131.8 189z" stroke-linecap="round" stroke-linejoin="round" transform="matrix(1.0201 0 0 1.01924 -.35 -.394)"/><path fill="#fff" d="M134.262 204.025v6.248l22.88-11.722v-6.42l-22.95 11.83.07.07z"/><path fill="none" stroke="#17067A" stroke-width="1.32" d="M131.96 200.56v6.13l22.43-11.5v-6.3l-22.5 11.6.07.07z" stroke-linecap="round" stroke-linejoin="round" transform="matrix(1.0201 0 0 1.01924 -.35 -.394)"/><path fill="#313390" d="M134.303 150.963v-6.268l22.88 11.7v6.402l-22.88-11.834z"/><path fill="none" stroke="#17067A" stroke-width="1.32" d="M132 148.5v-6.15l22.43 11.48v6.28L132 148.5z" stroke-linecap="round" stroke-linejoin="round" transform="matrix(1.0201 0 0 1.01924 -.35 -.394)"/><path fill="#fff" d="M134.07 156.498v6.248l22.88-11.7v-6.402l-22.88 11.854z"/><path fill="none" stroke="#17067A" stroke-width="1.32" d="M131.77 153.93v6.13l22.43-11.48v-6.28l-22.43 11.63z" stroke-linecap="round" stroke-linejoin="round" transform="matrix(1.0201 0 0 1.01924 -.35 -.394)"/><path fill="#313390" d="M134.242 55.664v-6.258l22.88 11.7v6.422l-22.88-11.864z"/><path fill="none" stroke="#17067A" stroke-width="1.32" d="M131.94 55v-6.14l22.43 11.48v6.3L131.94 55z" stroke-linecap="round" stroke-linejoin="round" transform="matrix(1.0201 0 0 1.01924 -.35 -.394)"/><path fill="#313390" d="M134.354 43.84v-6.257l22.88 11.69v6.422l-22.88-11.854z"/><path fill="none" stroke="#17067A" stroke-width="1.32" d="M132.05 43.4v-6.14l22.43 11.47v6.3L132.05 43.4z" stroke-linecap="round" stroke-linejoin="round" transform="matrix(1.0201 0 0 1.01924 -.35 -.394)"/><path fill="#fff" d="M134.13 49.375v6.26L157 43.932v-6.42l-22.87 11.822v.04z"/><path fill="none" stroke="#17067A" stroke-width="1.32" d="M131.83 48.83v6.14l22.42-11.48v-6.3l-22.42 11.6v.04z" stroke-linecap="round" stroke-linejoin="round" transform="matrix(1.0201 0 0 1.01924 -.35 -.394)"/><path fill="#313390" d="M134.405 67.66v-6.257l22.88 11.7v6.422l-22.88-11.834v-.03z"/><path fill="none" stroke="#17067A" stroke-width="1.32" d="M132.1 66.77v-6.14l22.43 11.48v6.3L132.1 66.8v-.03z" stroke-linecap="round" stroke-linejoin="round" transform="matrix(1.0201 0 0 1.01924 -.35 -.394)"/><path fill="#fff" d="M134.303 61.148v6.248l22.87-11.62v-6.42l-22.87 11.812v-.02z"/><path fill="none" stroke="#17067A" stroke-width="1.32" d="M132 60.38v6.13l22.42-11.4v-6.3L132 60.4v-.02z" stroke-linecap="round" stroke-linejoin="round" transform="matrix(1.0201 0 0 1.01924 -.35 -.394)"/><path fill="#313390" d="M134.303 79.484v-6.248l22.85 11.68v6.422l-22.85-11.854z"/><path fill="none" stroke="#17067A" stroke-width="1.32" d="M132 78.37v-6.13l22.4 11.46V90L132 78.37z" stroke-linecap="round" stroke-linejoin="round" transform="matrix(1.0201 0 0 1.01924 -.35 -.394)"/><path fill="#fff" d="M134.18 73.195v6.258l22.87-11.69V61.34l-22.88 11.855h.01z"/><path fill="none" stroke="#17067A" stroke-width="1.32" d="M131.88 72.2v6.14l22.42-11.47v-6.3L131.87 72.2h.01z" stroke-linecap="round" stroke-linejoin="round" transform="matrix(1.0201 0 0 1.01924 -.35 -.394)"/><path fill="#fff" d="M134.344 84.967v6.258l22.88-11.72v-6.422l-22.88 11.823v.06z"/><path fill="none" stroke="#17067A" stroke-width="1.32" d="M132.04 83.75v6.14l22.43-11.5v-6.3l-22.43 11.6v.06z" stroke-linecap="round" stroke-linejoin="round" transform="matrix(1.0201 0 0 1.01924 -.35 -.394)"/><path fill="#313390" d="M69.578 11.327H63.15l12.008 22.25h6.58l-12.16-22.25z"/><path fill="none" stroke="#17067A" stroke-width="1.32" d="M68.55 11.5h-6.3l11.77 21.83h6.45L68.55 11.5z" stroke-linecap="round" stroke-linejoin="round" transform="matrix(1.0201 0 0 1.01924 -.35 -.394)"/><path fill="#313390" d="M57.44 11.45h-6.43l12.02 22.24h6.568l-12.16-22.24z"/><path fill="none" stroke="#17067A" stroke-width="1.32" d="M56.65 11.62h-6.3l11.78 21.82h6.44L56.65 11.62z" stroke-linecap="round" stroke-linejoin="round" transform="matrix(1.0201 0 0 1.01924 -.35 -.394)"/><path fill="#fff" d="M63.13 11.225h6.427L57.52 33.465h-6.56l12.18-22.24h-.01z"/><path fill="none" stroke="#17067A" stroke-width="1.32" d="M62.23 11.4h6.3l-11.8 21.82H50.3L62.24 11.4h-.01z" stroke-linecap="round" stroke-linejoin="round" transform="matrix(1.0201 0 0 1.01924 -.35 -.394)"/><path fill="#313390" d="M81.87 11.5h-6.406L87.46 33.72h6.58L81.87 11.5z"/><path fill="none" stroke="#17067A" stroke-width="1.32" d="M80.6 11.67h-6.28l11.76 21.8h6.45L80.6 11.67z" stroke-linecap="round" stroke-linejoin="round" transform="matrix(1.0201 0 0 1.01924 -.35 -.394)"/><path fill="#fff" d="M75.2 11.4h6.425L69.63 33.617h-6.6l12.158-22.22h.01z"/><path fill="none" stroke="#17067A" stroke-width="1.32" d="M74.06 11.57h6.3L68.6 33.37h-6.47l11.92-21.8h.01z" stroke-linecap="round" stroke-linejoin="round" transform="matrix(1.0201 0 0 1.01924 -.35 -.394)"/><path fill="#313390" d="M118.45 11.49h-6.426l12.007 22.24h6.58l-12.16-22.24z"/><path fill="none" stroke="#17067A" stroke-width="1.32" d="M116.46 11.66h-6.3l11.77 21.82h6.45l-11.92-21.82z" stroke-linecap="round" stroke-linejoin="round" transform="matrix(1.0201 0 0 1.01924 -.35 -.394)"/><path fill="#313390" d="M94.01 11.388h-6.427l12.037 22.24h6.57l-12.18-22.24z"/><path fill="none" stroke="#17067A" stroke-width="1.32" d="M92.5 11.56h-6.3L98 33.38h6.44L92.5 11.56z" stroke-linecap="round" stroke-linejoin="round" transform="matrix(1.0201 0 0 1.01924 -.35 -.394)"/><path fill="#fff" d="M87.562 11.276h6.427l-12.02 22.24h-6.56l12.14-22.24h.01z"/><path fill="none" stroke="#17067A" stroke-width="1.32" d="M86.18 11.45h6.3L80.7 33.27h-6.43l11.9-21.82h.01z" stroke-linecap="round" stroke-linejoin="round" transform="matrix(1.0201 0 0 1.01924 -.35 -.394)"/><path fill="#313390" d="M106.312 11.602h-6.427l12.017 22.24h6.57l-12.16-22.32v.08z"/><path fill="none" stroke="#17067A" stroke-width="1.32" d="M104.56 11.77h-6.3l11.78 21.82h6.44l-11.92-21.9v.08z" stroke-linecap="round" stroke-linejoin="round" transform="matrix(1.0201 0 0 1.01924 -.35 -.394)"/><path fill="#fff" d="M99.64 11.43h6.427L94.03 33.69h-6.55l12.16-22.26z"/><path fill="none" stroke="#17067A" stroke-width="1.32" d="M98.02 11.6h6.3l-11.8 21.84H86.1L98.02 11.6z" stroke-linecap="round" stroke-linejoin="round" transform="matrix(1.0201 0 0 1.01924 -.35 -.394)"/><path fill="#fff" d="M112.004 11.378h6.426l-12.006 22.24h-6.58l12.16-22.24z"/><path fill="none" stroke="#17067A" stroke-width="1.32" d="M110.14 11.55h6.3l-11.77 21.82h-6.45l11.92-21.82z" stroke-linecap="round" stroke-linejoin="round" transform="matrix(1.0201 0 0 1.01924 -.35 -.394)"/><path fill="#313390" d="M130.733 11.55h-6.427l11.997 22.22h6.57l-12.14-22.22z"/><path fill="none" stroke="#17067A" stroke-width="1.32" d="M128.5 11.72h-6.3l11.76 21.8h6.44l-11.9-21.8z" stroke-linecap="round" stroke-linejoin="round" transform="matrix(1.0201 0 0 1.01924 -.35 -.394)"/><path fill="#fff" d="M124.072 11.53h6.426l-12.006 22.26h-6.58l12.16-22.24v-.02z"/><path fill="none" stroke="#17067A" stroke-width="1.32" d="M121.97 11.7h6.3L116.5 33.54h-6.45l11.92-21.82v-.02z" stroke-linecap="round" stroke-linejoin="round" transform="matrix(1.0201 0 0 1.01924 -.35 -.394)"/><path fill="#313390" d="M45.197 11.48H38.77l12.007 22.24h6.58l-12.16-22.24z"/><path fill="none" stroke="#17067A" stroke-width="1.32" d="M44.65 11.65h-6.3l11.77 21.82h6.45L44.65 11.65z" stroke-linecap="round" stroke-linejoin="round" transform="matrix(1.0201 0 0 1.01924 -.35 -.394)"/><path fill="#313390" d="M33.18 11.256h-6.426l12.007 22.24h6.58L33.1 11.256h.08z"/><path fill="none" stroke="#17067A" stroke-width="1.32" d="M32.87 11.43h-6.3l11.77 21.82h6.45l-12-21.82h.08z" stroke-linecap="round" stroke-linejoin="round" transform="matrix(1.0201 0 0 1.01924 -.35 -.394)"/><path fill="#fff" d="M50.88 11.256h6.426L45.29 33.496h-6.57l12.16-22.24z"/><path fill="none" stroke="#17067A" stroke-width="1.32" d="M50.22 11.43h6.3L44.74 33.25H38.3l11.92-21.82z" stroke-linecap="round" stroke-linejoin="round" transform="matrix(1.0201 0 0 1.01924 -.35 -.394)"/><path fill="#313390" d="M21.03 11.256h-6.425l12.006 22.24h6.58l-12.16-22.24z"/><path fill="none" stroke="#17067A" stroke-width="1.32" d="M20.96 11.43h-6.3l11.77 21.82h6.45L20.96 11.43z" stroke-linecap="round" stroke-linejoin="round" transform="matrix(1.0201 0 0 1.01924 -.35 -.394)"/><path fill="#fff" d="M38.76 11.256h6.427L33.17 33.496h-6.59l12.17-22.24h.01z"/><path fill="none" stroke="#17067A" stroke-width="1.32" d="M38.34 11.43h6.3L32.86 33.25H26.4l11.93-21.82h.01z" stroke-linecap="round" stroke-linejoin="round" transform="matrix(1.0201 0 0 1.01924 -.35 -.394)"/><path fill="#fff" d="M26.764 11.256h6.427l-12.01 22.24h-6.56l12.14-22.24h.01z"/><path fill="none" stroke="#17067A" stroke-width="1.32" d="M26.58 11.43h6.3L21.1 33.25h-6.43l11.9-21.82h.01z" stroke-linecap="round" stroke-linejoin="round" transform="matrix(1.0201 0 0 1.01924 -.35 -.394)"/><path fill="#313390" d="M142.852 11.43h-6.427l12.017 22.24h6.57l-12.16-22.22v-.02z"/><path fill="none" stroke="#17067A" stroke-width="1.32" d="M140.38 11.6h-6.3l11.78 21.82h6.44l-11.92-21.8v-.02z" stroke-linecap="round" stroke-linejoin="round" transform="matrix(1.0201 0 0 1.01924 -.35 -.394)"/><path fill="#fff" d="M136.405 11.327h6.426l-11.99 22.22h-6.6l12.16-22.22h.01z"/><path fill="none" stroke="#17067A" stroke-width="1.32" d="M134.06 11.5h6.3L128.6 33.3h-6.47l11.92-21.8h.01z" stroke-linecap="round" stroke-linejoin="round" transform="matrix(1.0201 0 0 1.01924 -.35 -.394)"/><path fill="#fff" d="M148.483 11.49h6.406l-12 22.24h-6.58l12.16-22.24h.01z"/><path fill="none" stroke="#17067A" stroke-width="1.32" d="M145.9 11.66h6.28l-11.76 21.82h-6.45l11.92-21.82h.01z" stroke-linecap="round" stroke-linejoin="round" transform="matrix(1.0201 0 0 1.01924 -.35 -.394)"/><path fill="#313390" d="M69.935 213.575h-6.427l11.997 22.24h6.58l-12.14-22.24h-.01z"/><path fill="none" stroke="#17067A" stroke-width="1.32" d="M68.9 209.93h-6.3l11.76 21.82h6.45l-11.9-21.82h-.01z" stroke-linecap="round" stroke-linejoin="round" transform="matrix(1.0201 0 0 1.01924 -.35 -.394)"/><path fill="#313390" d="M57.796 213.687H51.37l12.006 22.24h6.57l-12.15-22.24z"/><path fill="none" stroke="#17067A" stroke-width="1.32" d="M57 210.04h-6.3l11.77 21.82h6.44L57 210.04z" stroke-linecap="round" stroke-linejoin="round" transform="matrix(1.0201 0 0 1.01924 -.35 -.394)"/><path fill="#fff" d="M63.478 213.473h6.426l-12.016 22.22h-6.63l12.138-22.22h.082z"/><path fill="none" stroke="#17067A" stroke-width="1.32" d="M62.57 209.83h6.3l-11.78 21.8h-6.5l11.9-21.8h.08z" stroke-linecap="round" stroke-linejoin="round" transform="matrix(1.0201 0 0 1.01924 -.35 -.394)"/><path fill="#313390" d="M82.227 213.748H75.8l12.007 22.22h6.58l-12.16-22.22z"/><path fill="none" stroke="#17067A" stroke-width="1.32" d="M80.95 210.1h-6.3l11.77 21.8h6.45l-11.92-21.8z" stroke-linecap="round" stroke-linejoin="round" transform="matrix(1.0201 0 0 1.01924 -.35 -.394)"/><path fill="#fff" d="M75.545 213.646h6.427l-12.007 22.22h-6.58l12.16-22.22z"/><path fill="none" stroke="#17067A" stroke-width="1.32" d="M74.4 210h6.3l-11.77 21.8h-6.45L74.4 210z" stroke-linecap="round" stroke-linejoin="round" transform="matrix(1.0201 0 0 1.01924 -.35 -.394)"/><path fill="#313390" d="M118.798 213.728h-6.427l12.02 22.24h6.57l-12.16-22.24z"/><path fill="none" stroke="#17067A" stroke-width="1.32" d="M116.8 210.08h-6.3l11.78 21.82h6.44l-11.92-21.82z" stroke-linecap="round" stroke-linejoin="round" transform="matrix(1.0201 0 0 1.01924 -.35 -.394)"/><path fill="#313390" d="M94.366 213.626H87.94l12.006 22.24h6.57l-12.14-22.24h-.01z"/><path fill="none" stroke="#17067A" stroke-width="1.32" d="M92.85 209.98h-6.3l11.77 21.82h6.44l-11.9-21.82h-.01z" stroke-linecap="round" stroke-linejoin="round" transform="matrix(1.0201 0 0 1.01924 -.35 -.394)"/><path fill="#fff" d="M87.91 213.514h6.426l-12.007 22.25h-6.58l12.16-22.25z"/><path fill="none" stroke="#17067A" stroke-width="1.32" d="M86.52 209.87h6.3L81.05 231.7H74.6l11.92-21.83z" stroke-linecap="round" stroke-linejoin="round" transform="matrix(1.0201 0 0 1.01924 -.35 -.394)"/><path fill="#313390" d="M106.658 213.85h-6.426l12.037 22.22h6.56l-12.14-22.22h-.04z"/><path fill="none" stroke="#17067A" stroke-width="1.32" d="M104.9 210.2h-6.3l11.8 21.8h6.44l-11.9-21.8h-.04z" stroke-linecap="round" stroke-linejoin="round" transform="matrix(1.0201 0 0 1.01924 -.35 -.394)"/><path fill="#fff" d="M99.987 213.687h6.427l-12.017 22.22h-6.57l12.16-22.22z"/><path fill="none" stroke="#17067A" stroke-width="1.32" d="M98.36 210.04h6.3l-11.78 21.8h-6.44l11.92-21.8z" stroke-linecap="round" stroke-linejoin="round" transform="matrix(1.0201 0 0 1.01924 -.35 -.394)"/><path fill="#fff" d="M112.35 213.616h6.427l-12.016 22.25h-6.57l12.16-22.25z"/><path fill="none" stroke="#17067A" stroke-width="1.32" d="M110.48 209.97h6.3L105 231.8h-6.44l11.92-21.83z" stroke-linecap="round" stroke-linejoin="round" transform="matrix(1.0201 0 0 1.01924 -.35 -.394)"/><path fill="#313390" d="M130.886 213.85h-6.427l12.01 22.24h6.57l-12.16-22.22v-.02z"/><path fill="none" stroke="#17067A" stroke-width="1.32" d="M128.65 210.2h-6.3l11.78 21.82h6.44l-11.92-21.8v-.02z" stroke-linecap="round" stroke-linejoin="round" transform="matrix(1.0201 0 0 1.01924 -.35 -.394)"/><path fill="#fff" d="M124.408 213.79h6.427l-11.997 22.22h-6.58l12.14-22.22h.01z"/><path fill="none" stroke="#17067A" stroke-width="1.32" d="M122.3 210.14h6.3l-11.76 21.8h-6.45l11.9-21.8h.01z" stroke-linecap="round" stroke-linejoin="round" transform="matrix(1.0201 0 0 1.01924 -.35 -.394)"/><path fill="#313390" d="M45.554 213.718h-6.426l11.996 22.24h6.58l-12.15-22.312v.072z"/><path fill="none" stroke="#17067A" stroke-width="1.32" d="M45 210.07h-6.3l11.76 21.82h6.45L45 210v.07z" stroke-linecap="round" stroke-linejoin="round" transform="matrix(1.0201 0 0 1.01924 -.35 -.394)"/><path fill="#313390" d="M33.313 213.77h-6.426l12.006 22.218h6.58l-12.16-22.22z"/><path fill="none" stroke="#17067A" stroke-width="1.32" d="M33 210.12h-6.3l11.77 21.8h6.45L33 210.12z" stroke-linecap="round" stroke-linejoin="round" transform="matrix(1.0201 0 0 1.01924 -.35 -.394)"/><path fill="#fff" d="M51.226 213.494h6.427l-11.996 22.24h-6.59l12.14-22.24h.02z"/><path fill="none" stroke="#17067A" stroke-width="1.32" d="M50.56 209.85h6.3L45.1 231.67h-6.46l11.9-21.82h.02z" stroke-linecap="round" stroke-linejoin="round" transform="matrix(1.0201 0 0 1.01924 -.35 -.394)"/><path fill="#313390" d="M143.025 213.748h-6.427l12.007 22.24h6.58l-12.16-22.24z"/><path fill="none" stroke="#17067A" stroke-width="1.32" d="M140.55 210.1h-6.3l11.77 21.82h6.45l-11.92-21.82z" stroke-linecap="round" stroke-linejoin="round" transform="matrix(1.0201 0 0 1.01924 -.35 -.394)"/><path fill="#fff" d="M136.578 213.646h6.427l-12.017 22.22h-6.57l12.242-22.22h-.082z"/><path fill="none" stroke="#17067A" stroke-width="1.32" d="M134.23 210h6.3l-11.78 21.8h-6.44l12-21.8h-.08z" stroke-linecap="round" stroke-linejoin="round" transform="matrix(1.0201 0 0 1.01924 -.35 -.394)"/><path fill="#fff" d="M148.646 213.8h6.426l-12.016 22.24h-6.57l12.16-22.24z"/><path fill="none" stroke="#17067A" stroke-width="1.32" d="M146.06 210.15h6.3l-11.78 21.82h-6.44l11.92-21.82z" stroke-linecap="round" stroke-linejoin="round" transform="matrix(1.0201 0 0 1.01924 -.35 -.394)"/><path fill="#fff" d="M38.995 213.544h6.427l-12.007 22.22h-6.57l12.14-22.22h.01z"/><path fill="none" stroke="#17067A" stroke-width="1.32" d="M38.57 209.9h6.3L33.1 231.7h-6.44l11.9-21.8h.01z" stroke-linecap="round" stroke-linejoin="round" transform="matrix(1.0201 0 0 1.01924 -.35 -.394)"/><path fill="#313390" d="M21.072 213.8h-6.427l12.007 22.22h6.57L21.07 213.8z"/><path fill="none" stroke="#17067A" stroke-width="1.32" d="M21 210.15h-6.3l11.77 21.8h6.44L21 210.15z" stroke-linecap="round" stroke-linejoin="round" transform="matrix(1.0201 0 0 1.01924 -.35 -.394)"/><path fill="#fff" d="M26.754 213.575h6.427l-12 22.22H14.6l12.16-22.22z"/><path fill="none" stroke="#17067A" stroke-width="1.32" d="M26.57 209.93h6.3l-11.77 21.8h-6.45l11.92-21.8z" stroke-linecap="round" stroke-linejoin="round" transform="matrix(1.0201 0 0 1.01924 -.35 -.394)"/></svg>
