<svg xmlns="http://www.w3.org/2000/svg" fill-rule="evenodd" viewBox="0 0 170 247" clip-rule="evenodd"><path fill="#fff" fill-rule="nonzero" stroke="#FB0F0C" stroke-width=".5" d="M166.83 235.55c0 3.77-3.1 6.87-6.87 6.87H7.1c-3.76 0-6.85-3.1-6.85-6.87V7.12c0-1.65.6-3.18 1.57-4.36C3.1 1.23 5 .26 7.1.26h152.86c3.78 0 6.87 3.1 6.87 6.86v228.43z" transform="matrix(1.0172 0 0 1.01773 .028 .01)"/><path fill="#FB0F0C" stroke="#FB0F0C" stroke-width=".03" stroke-miterlimit="10" d="M27.63 32.6h103.45c.8 0 8.63-.36 8.63.3v174.87c0 .26.2 1.42-.1 1.42H28.3c-1.45 0-.67-4.1-.67-5.3V32.6" transform="matrix(1.0172 0 0 1.01773 .028 .01)"/><path fill="#fff" stroke="#fff" stroke-width=".03" stroke-miterlimit="10" d="M61.66 96.1c4.47 0 44.03-.33 44.03.3v50.27c0 .5-44.1.06-44.1.2V96.1" transform="matrix(1.0172 0 0 1.01773 .028 .01)"/><path fill="#fff" stroke="#fff" stroke-width=".03" stroke-miterlimit="10" d="M83.67 91.47l-13 15-8.78 10.12c-.7.7-4.3 3.8-4.3 4.8s3.3 3.7 3.9 4.5c3 3.5 6.1 7 9.1 10.5 4.3 5 8.7 10 13 15l13-15 8.8-10.1c.7-.8 4.2-3.8 4.2-4.9 0-1-3.3-3.8-3.9-4.5l-9.1-10.5-13-15" transform="matrix(1.0172 0 0 1.01773 .028 .01)"/><path fill="#FB0F0C" stroke="#FB0F0C" stroke-width=".03" stroke-miterlimit="10" d="M63.66 98.4h38.23c2.3 0 1.7.2 1.7 2.5v42.33c0 2.1-1.2 1.33-3.2 1.33H64.6c-1.6 0-1-1.02-1-2.5V98.4" transform="matrix(1.0172 0 0 1.01773 .028 .01)"/><path fill="#FB0F0C" stroke="#FB0F0C" stroke-width=".03" stroke-miterlimit="10" d="M83.67 93.78l-11.78 13.6-8.4 9.67c-.7.7-3.9 3.44-3.9 4.43 0 .9 2.9 3.4 3.5 4.04l8.3 9.55 12.2 14.1 11.8-13.57 8.4-9.7c.6-.7 3.8-3.5 3.8-4.47 0-.9-3-3.4-3.5-4.04l-8.3-9.6-12.2-14.1" transform="matrix(1.0172 0 0 1.01773 .028 .01)"/><path fill="#fff" stroke="#fff" stroke-width=".03" stroke-miterlimit="10" d="M67.66 103h26.07c1.1 0 5.95-.72 5.95.6v11.75c0 1.73.02 24.6-.02 24.6h-26.6c-1.06 0-5.4.72-5.4-.6V103" transform="matrix(1.0172 0 0 1.01773 .028 .01)"/><path fill="#fff" stroke="#fff" stroke-width=".03" stroke-miterlimit="10" d="M83.67 98.4l-10 11.54-6.7 7.73c-.54.6-3.3 2.96-3.3 3.8 0 .77 2.47 2.88 2.95 3.42l7.05 8.1 10 11.5 10-11.6 6.7-7.8c.54-.6 3.3-3 3.3-3.8 0-.8-2.47-2.9-2.94-3.4l-7.05-8.2-10-11.6" transform="matrix(1.0172 0 0 1.01773 .028 .01)"/><path fill="#FB0F0C" stroke="#FB0F0C" stroke-width=".03" stroke-miterlimit="10" d="M69.66 105.32h25.6c3.1 0 2.42.27 2.42 3.36v28.3c0 1.5-5.24.66-6.46.66H74.98c-1.9 0-5.32 1.1-5.32-1.17v-31.15" transform="matrix(1.0172 0 0 1.01773 .028 .01)"/><path fill="#FB0F0C" stroke="#FB0F0C" stroke-width=".03" stroke-miterlimit="10" d="M83.67 100.7l-8.78 10.13-6.4 7.3c-.5.54-2.9 2.6-2.9 3.35 0 .66 2.1 2.48 2.5 2.95l6.2 7.17 9.2 10.65 8.7-10.12 6.3-7.3c.4-.54 2.9-2.6 2.9-3.35 0-.66-2.2-2.48-2.6-2.95l-6.2-7.17-9.3-10.65" transform="matrix(1.0172 0 0 1.01773 .028 .01)"/><path fill="#fff" stroke="#fff" stroke-width=".03" stroke-miterlimit="10" d="M83.67 103l-7.78 9-5.5 6.3c-.5.5-2.8 2.47-2.8 3.18 0 .62 2 2.34 2.4 2.8 1.8 2.05 3.5 4.1 5.3 6.17l8.2 9.5 7.8-8.98 5.4-6.3c.4-.52 2.7-2.48 2.7-3.2 0-.6-2.1-2.33-2.4-2.78l-5.4-6.2-8.3-9.5" transform="matrix(1.0172 0 0 1.01773 .028 .01)"/><path fill="#fff" stroke="#fff" stroke-width=".03" stroke-miterlimit="10" d="M71.66 107.63h23.92c.2 0 .1 22.66.1 24.82 0 .44.3 2.54 0 2.88-.35.38-3.26 0-3.75 0H71.77c-.24 0-.1-2.2-.1-2.45v-25.25" transform="matrix(1.0172 0 0 1.01773 .028 .01)"/><path fill="#FB0F0C" d="M85.14 109.55l-6.1 7.04-4.2 4.8c-.3.3-1.92 1.7-1.92 2.2 0 .5 1.6 1.8 1.9 2.2l4.2 4.8 6.12 7 6.1-7.1 4.2-4.9c.3-.4 1.9-1.7 1.9-2.2 0-.5-1.6-1.9-1.9-2.2l-4.2-4.9-6.1-7.1"/><path fill="#fff" stroke="#fff" stroke-width=".03" stroke-miterlimit="10" d="M113.7 93.78h-4c1.32 1.54 2.66 3.08 4 4.62v-4.62m0 6.92l-4-4.6v4.48c0 .27 3.48.13 4 .13m-60.05-6.9h4l-4 4.7v-4.7m0 7l4-4.6v4.5c0 .3-3.48.2-4 .2m4 41.6h-4l4 4.6v-4.6m0 7l-4-4.6v4.5c0 .3 3.5.1 4 .1m52.05-6.9h4l-4 4.6v-4.6m0 7l4-4.6v4.5c0 .3-3.5.1-4 .1m-52.05-23.1h-4l4 4.6v-4.6m0 6.9l-4-4.6v4.5c0 .3 3.5.1 4 .1m-4-23.1h4l-4 4.6V110m0 6.9l4-4.6v4.47c0 .27-3.48.13-4 .13m60.05-6.94h-4c1.32 1.54 2.66 3.08 4 4.6v-4.6m0 6.92l-4-4.6v4.46c0 .27 3.48.13 4 .13m-4 9.23h4l-4 4.6v-4.6m0 6.92c1.32-1.54 2.66-3.08 4-4.62v4.5c0 .26-3.5.12-4 .12" transform="matrix(1.0172 0 0 1.01773 .028 .01)"/><path fill="#FB0F0C" d="M70.93 25.27c-.82-2.06-1.7-4.17-2.27-6.3-.5-1.94-.92-6.7 1.66-7.62 2.47-.9 3.35 3.4 3.33 5.1-.05 2.5-1.25 5.07-2.15 7.42l-.56 1.4"/><path fill="#FB0F0C" d="M70.93 25.32c-2.04-.86-4.33-1.7-6.14-3-1.6-1.13-4.2-4.6-2.7-6.73 1.5-2.1 4.6.4 5.6 1.8 1.5 2 2.2 4.9 2.9 7.2l.3.7"/><path fill="#FB0F0C" d="M70.93 25.32c2.05-.86 4.33-1.7 6.14-3 1.6-1.13 4.17-4.6 2.67-6.73-1.5-2.1-4.65.4-5.67 1.8-1.53 2.1-2.24 5-3.05 7.4l-.2.6m-5.3.3c-1.72-.5-3.76-.3-4.78 1.2-.6.8-.7 3.9 1.02 3.3.3-.1.6-1.5.92-1.9.7-.6 2.03-.6 2.95-.6 1.12-.2 2.44.1 3.56-.2-1.2-.8-2.6-1.5-3.9-2m10.4 0c1.6-.5 3.6-.3 4.7 1.2.5.8.6 3.9-1.1 3.3-.3-.1-.6-1.4-1-1.9-.7-.6-2.2-.5-3-.6-1.3-.1-2.5.1-3.7-.1h-.1c1.1-.8 2.5-1.6 3.8-2M69 30.3c.23 2.06 3.82 1.04 2.1-1.8-1.2-1.96-1.9-.1-2.1 1.8m30-4.78c-.8-2.05-1.7-4.17-2.28-6.3-.55-1.94-.96-6.7 1.6-7.64 2.48-.8 3.36 3.4 3.36 5.1-.05 2.6-1.25 5.1-2.16 7.5L99 25.6"/><path fill="#FB0F0C" d="M99.43 25.32c-2.04-.86-4.32-1.7-6.13-3-1.63-1.13-4.18-4.6-2.75-6.73 1.52-2.1 4.58.4 5.6 1.8 1.42 2 2.13 4.9 2.84 7.2l.2.7m0 0c2-.8 4.2-1.7 6.1-3 1.6-1.1 4.1-4.6 2.6-6.7-1.5-2.1-4.7.4-5.7 1.8-1.5 2.1-2.2 4.9-3 7.4l-.2.6m-5.3.3c-1.8-.5-3.8-.3-4.8 1.2-.6.8-.7 3.9 1 3.3.3-.1.5-1.5.9-1.9.7-.6 2-.5 2.9-.6 1.1-.1 2.4.1 3.5-.1-1.1-.9-2.6-1.6-3.9-2m10.4 0c1.6-.5 3.6-.3 4.7 1.2.5.8.7 4-1.1 3.3-.4-.1-.7-1.6-1.1-1.9-.7-.6-2.2-.6-3-.6-1.2-.1-2.5.1-3.6-.1 1.1-.9 2.4-1.6 3.8-2M97.3 30c.3 2.1 3.88 1.06 2.1-1.78-1.2-2-1.9-.1-2.1 1.8m29.9-4.9c-.8-2.03-1.7-4.17-2.3-6.3-.5-1.94-.9-6.7 1.6-7.64 2.5-.9 3.4 3.3 3.4 5.1-.1 2.5-1.3 5.1-2.2 7.4l-.6 1.4m0 0c-2.1-.9-4.4-1.7-6.2-3-1.7-1.1-4.2-4.6-2.7-6.7 1.5-2.1 4.7.4 5.7 1.8 1.4 2.1 2.18 5 3 7.4l.2.6m.6-.3c2.1-.9 4.37-1.7 6.2-3 1.6-1.2 4.2-4.6 2.7-6.8-1.5-2.1-4.6.4-5.66 1.8-1.5 2.1-2.2 5-2.96 7.4l-.2.6m-5.2.3c-1.7-.5-3.7-.3-4.8 1.2-.6.8-.7 3.96 1.1 3.35.3-.1.5-1.46.9-1.86.7-.6 2.1-.6 3-.6 1.1-.1 2.4.1 3.5-.1-1.1-.8-2.5-1.5-3.82-1.9m10.3 0c1.6-.5 3.6-.3 4.8 1.2.5.8.6 3.96-1.1 3.35-.3-.1-.6-1.4-1-1.83-.7-.6-2.2-.5-3-.6-1.2-.1-2.47.1-3.7-.1 1.1-.8 2.43-1.6 3.86-2m-6.6 4.6c.2 2.1 3.8 1.1 2.1-1.8-1.2-1.9-1.94-.1-2.15 1.8m-84-5c-.9-2.1-1.8-4.2-2.4-6.3-.5-2-.9-6.6 1.6-7.7 2.45-.8 3.37 3.4 3.27 5.1-.1 2.5-1.2 5.1-2.1 7.4l-.6 1.5"/><path fill="#FB0F0C" d="M42.42 25.32c-2.03-.86-4.32-1.7-6.13-3-1.7-1.13-4.2-4.6-2.7-6.73 1.5-2.1 4.6.4 5.6 1.8 1.4 2 2.1 4.9 2.9 7.2l.2.7m0 0c2-.8 4.3-1.7 6.1-3 1.6-1.1 4.2-4.6 2.7-6.7-1.5-2.1-4.7.4-5.7 1.8-1.5 2-2.2 4.8-2.9 7.2l-.2.7m-5.2.3c-1.7-.4-3.7-.3-4.8 1.2-.6.8-.8 3.9 1.1 3.3.3-.1.6-1.5.9-1.8.7-.6 2.1-.6 2.9-.7 1.2-.1 2.4.1 3.5-.1-1-.8-2.5-1.6-3.9-2m10.5 0c1.7-.5 3.7-.3 4.8 1.2.6.8.7 4-1.1 3.3-.4-.1-.6-1.6-1-1.9-.7-.6-2.1-.6-3-.7-1.2-.2-2.4.1-3.6-.2 1.1-.8 2.5-1.5 3.8-2m-6.3 5c.3 2 3.8 1.1 2.1-1.8-1.3-2.1-1.9-.1-2.2 1.8m29.6 190.3c-.8 2.2-1.8 4.2-2.3 6.3-.5 2-.9 6.7 1.8 7.7 2.6.9 3.4-3.4 3.4-5 0-2.6-1.2-5.1-2.1-7.4-.1-.4-.3-.9-.5-1.4"/><path fill="#FB0F0C" d="M70.67 220.8c-2.03.85-4.32 1.7-6.13 3-1.6 1.17-4.17 4.6-2.68 6.73 1.43 2.1 4.58-.3 5.6-1.75 1.42-2.07 2.13-4.9 2.85-7.26l.2-.7"/><path fill="#FB0F0C" d="M70.68 220.8c2.04.85 4.33 1.7 6.14 3 1.52 1.17 4.07 4.6 2.64 6.73-1.52 2.1-4.68-.3-5.7-1.75-1.52-2.1-2.23-5-2.95-7.4l-.2-.58m-5.2-.3c-1.7.5-3.7.34-4.8-1.2-.6-.8-.7-3.98 1.1-3.37.3.1.5 1.5.9 1.83.7.6 2.1.58 3 .65 1.1.2 2.4 0 3.6.2-1.1.9-2.5 1.5-3.8 2m10.4 0c1.7.5 3.7.4 4.8-1.2.5-.8.7-3.9-1.1-3.3-.3.1-.6 1.5-.9 1.9-.8.6-2.1.6-3 .7-1.2.1-2.4 0-3.6.2 1.1.9 2.5 1.5 3.8 2M69 216c.2-2.07 3.76-1.07 2.13 1.78-1.2 2-1.92.14-2.13-1.78m29.9 4.9c-.8 2-1.77 4.1-2.38 6.3-.5 1.9-.9 6.6 1.64 7.6 2.43.9 3.34-3.4 3.34-5.1-.1-2.5-1.3-5.1-2.1-7.4l-.6-1.47"/><path fill="#FB0F0C" d="M99.17 220.8c-2.03.85-4.32 1.7-6.13 3-1.6 1.17-4.17 4.6-2.67 6.73 1.52 2.1 4.67-.3 5.7-1.75 1.52-2.1 2.23-5 2.94-7.4l.3-.58"/><path fill="#FB0F0C" d="M99.17 220.8c2.06.85 4.33 1.7 6.14 3 1.7 1.17 4.2 4.6 2.7 6.73-1.5 2.1-4.6-.3-5.6-1.75-1.5-2.1-2.2-5-2.9-7.4l-.2-.58m-5.2-.3c-1.6.5-3.7.34-4.7-1.2-.5-.8-.7-3.98 1.1-3.37.3.1.6 1.5 1 1.83.7.6 2.1.58 3 .65 1.2.2 2.5 0 3.6.2-1 .9-2.4 1.5-3.7 2m10.4 0c1.8.5 3.8.4 4.8-1.2.6-.8.7-3.9-1.1-3.3-.3.1-.5 1.5-.9 1.9-.7.6-2 .6-3 .7-1.1.1-2.4 0-3.5.2 1.1.9 2.6 1.5 3.9 2m-6.9-4.9c.3-2 3.9-1 2.2 1.8-1.2 2-1.8.2-2-1.8m29.9 4.9c-.8 2-1.7 4.1-2.2 6.3-.5 1.9-.9 6.6 1.8 7.6 2.6.9 3.4-3.4 3.4-5.1 0-2.5-1.22-5.1-2.14-7.4l-.6-1.5m-.4-.1c-2.1.8-4.3 1.7-6.1 3-1.6 1.2-4.1 4.6-2.6 6.7 1.5 2.1 4.7-.3 5.7-1.8 1.5-2.1 2.2-4.9 2.9-7.3l.3-.7"/><path fill="#FB0F0C" d="M127.7 220.8c2.02.85 4.3 1.7 6.1 3 1.62 1.17 4.18 4.6 2.7 6.73-1.52 2.1-4.66-.3-5.68-1.75-1.47-2.07-2.14-4.9-2.9-7.26l-.24-.7m-5.3-.32c-1.72.5-3.76.34-4.77-1.2-.6-.8-.7-3.98 1.2-3.37.3.1.5 1.5.9 1.83.7.6 2.1.58 3 .65 1.1.2 2.4 0 3.6.2-1.1.9-2.5 1.5-3.8 2m10.4 0c1.7.5 3.7.4 4.7-1.2.6-.8.7-3.9-1.1-3.3-.3.1-.6 1.5-1 1.9-.7.6-2 .6-2.9.7-1.2.1-2.4 0-3.5.2 1.1.9 2.4 1.5 3.9 2m-6.6-4.5c.2-2.1 3.8-1.1 2.2 1.8-1.3 2-2 .2-2.2-1.7M41.9 221c-.8 2.03-1.7 4.14-2.2 6.3-.5 1.9-.9 6.66 1.6 7.6 2.47.9 3.4-3.4 3.4-5.08-.1-2.54-1.24-5.1-2.15-7.43l-.6-1.5"/><path fill="#FB0F0C" d="M42.17 220.8c-2.03.85-4.32 1.7-6.13 3-1.6 1.17-4.17 4.6-2.68 6.73 1.5 2.1 4.66-.3 5.68-1.75 1.45-2.07 2.13-4.9 2.9-7.26l.23-.7m0 0c2.03.83 4.33 1.7 6.14 3 1.7 1.15 4.2 4.6 2.7 6.7-1.5 2.12-4.6-.3-5.7-1.74-1.4-2.1-2.1-5-2.9-7.4l-.2-.58m-5.2-.3c-1.6.5-3.7.34-4.7-1.2-.5-.8-.7-3.98 1.1-3.37.3.1.6 1.5 1 1.83.7.6 2.1.58 3 .65 1.2.2 2.5 0 3.6.2-1.1.9-2.5 1.5-3.8 2m10.4 0c1.7.5 3.7.4 4.8-1.2.6-.8.7-3.9-1.1-3.3-.3.1-.5 1.5-.9 1.9-.7.6-2.1.6-2.9.7-1.2.1-2.4 0-3.6.2 1.1.9 2.6 1.5 3.9 2m-6.6-4.6c.3-2 3.8-1 2.1 1.8-1.2 2-1.9.2-2.1-1.8m108.3 6.3c2 1 4.1 2.3 6.2 2.8 2 .6 5.7.1 6-2.5.4-2.5-3.1-3.6-5.1-3.4-2.3.3-4.8 1.9-6.9 3l-.1.1"/><path fill="#FB0F0C" d="M149.05 222.25c.8 2.65 3.4 12.74 8.07 10.36 2.27-1.1.44-5-.75-6.3-1.67-1.8-4.45-2.8-6.7-3.7l-.62-.3m0 0c.8-2.6 3.4-12.7 8.07-10.3 2.27 1.1.44 5-.75 6.3-1.68 1.9-4.45 2.8-6.7 3.8l-.62.2m-.26 6c.3 1.7.4 4.3-1.1 5.5-1 .8-3.5.5-2.9-1.3.1-.4 1.3-.7 1.5-1.1.6-.9.5-2.4.5-3.4 0-1.4-.1-2.7.1-4.1.7 1.4 1.3 3 1.6 4.5m0-12c.4-1.7.4-4.3-1-5.5-1-.8-3.6-.6-3 1.2.1.3 1.2.7 1.5 1.1.6.8.5 2.5.5 3.5 0 1.3-.1 2.8.1 4.1.7-1.3 1.3-2.9 1.6-4.4m-4 7.5c-2-.5-1.2-4.5 1.5-2.4 1.5 1.3.4 2.2-1.6 2.5m4.2-34.5c1.9 1 4.1 2.2 6.2 2.8 1.9.5 5.7 0 6-2.5.3-2.5-3.2-3.6-5.1-3.3-2.4.3-4.9 1.9-6.9 3l-.2.1"/><path fill="#FB0F0C" d="M149.05 189.37c.8 2.64 3.4 12.74 8.07 10.35 2.27-1.16.44-5-.75-6.3-1.68-1.84-4.45-2.82-6.7-3.78-.22-.1-.42-.2-.62-.27m0 0c.8-2.65 3.4-12.75 8.07-10.38 2.27 1.1.44 5-.75 6.3-1.68 1.8-4.45 2.8-6.7 3.8l-.62.2m-.26 6c.3 1.6.4 4.1-1.1 5.5-1 .7-3.5.5-2.9-1.4.1-.3 1.3-.7 1.5-1.1.6-1 .5-2.5.5-3.5 0-1.5-.1-2.9.1-4.2.7 1.3 1.3 2.8 1.6 4.4m0-12c.4-1.8.4-4.3-1-5.5-1-.9-3.6-.7-3 1.2.1.3 1.2.7 1.5 1.1.6.8.5 2.4.5 3.4 0 1.3-.1 2.7.1 4 .7-1.4 1.3-3 1.6-4.5m-4 7.5c-2-.5-1.2-4.5 1.5-2.5 1.5 1.2.4 2-1.6 2.4m4.2-34.5c1.9 1 4.1 2.2 6.2 2.8 1.9.5 5.7 0 6-2.6.3-2.6-3.2-3.7-5.1-3.5-2.4.2-4.9 1.9-6.9 3l-.2.1"/><path fill="#FB0F0C" d="M149.05 156.48c.8 2.64 3.4 12.74 8.07 10.36 2.27-1.16.44-5-.75-6.3-1.68-1.87-4.45-2.83-6.7-3.8l-.62-.26m0 0c.8-2.65 3.4-12.76 8.07-10.36 2.27 1.16.44 5-.75 6.3-1.68 1.84-4.45 2.8-6.7 3.77-.22.1-.42.2-.62.2m-.26 6c.3 1.7.4 4.2-1.1 5.5-1 .8-3.5.5-2.9-1.3.1-.4 1.3-.7 1.5-1.1.6-.9.5-2.5.5-3.5 0-1.4-.1-2.8.1-4.2.8 1.3 1.3 2.9 1.6 4.5m0-12c.4-1.7.4-4.3-1-5.5-1-.9-3.6-.5-3 1.3.1.4 1.2.7 1.5 1.1.6.9.5 2.4.5 3.4 0 1.4-.1 2.8.1 4.1.7-1.2 1.3-3 1.6-4.4m-4 7.6c-2-.4-1.2-4.5 1.5-2.5 1.5 1.2.3 2.1-1.6 2.4m4.2-67.3c1.9 1.1 4.1 2.3 6.2 3 1.9.5 5.6.1 6-2.6.3-2.4-3.2-3.5-5.1-3.3-2.4.3-4.9 1.9-7 3l-.2.1"/><path fill="#FB0F0C" d="M149.05 90.7c.8 2.64 3.4 12.74 8.07 10.37 2.27-1.18.44-5.03-.75-6.33-1.67-1.83-4.45-2.8-6.7-3.77l-.62-.27m0 0c.8-2.65 3.4-12.72 8.07-10.28 2.27 1.22.44 5-.75 6.3-1.68 1.84-4.45 2.86-6.7 3.78l-.62.3m-.26 6.1c.3 1.74.4 4.28-1.1 5.5-1.1.92-3.5.5-2.9-1.32.1-.2 1.3-.7 1.6-1.12.5-.9.4-2.44.5-3.46 0-1.22-.1-2.65.1-3.97.8 1.32 1.4 2.95 1.7 4.48m0-12c.3-1.6.4-4.1-1.1-5.5-1-.8-3.5-.5-2.9 1.4.1.4 1.3.7 1.5 1.1.6.9.5 2.5.5 3.5 0 1.5-.1 2.9.1 4.2.7-1.3 1.3-2.9 1.6-4.3m-4 7.6c-1.9-.4-1.1-4.5 1.5-2.4 1.5 1.2.4 2.2-1.6 2.5m4.1-34.6c1.9 1 3.9 2.3 6.2 2.8 1.9.5 5.6.1 6-2.5.3-2.4-3.2-3.6-5.1-3.4-2.3.3-4.9 2-6.9 3l-.2.1"/><path fill="#FB0F0C" d="M149.05 57.82c.8 2.64 3.4 12.74 8.07 10.35 2.27-1.16.44-5-.75-6.3-1.68-1.84-4.45-2.83-6.7-3.78l-.62-.3"/><path fill="#FB0F0C" d="M149.05 57.82c.8-2.65 3.4-12.76 8.07-10.38 2.27 1.17.44 5-.75 6.3-1.68 1.86-4.45 2.84-6.7 3.8l-.62.27m-.26 6c.3 1.7.4 4.2-1.1 5.5-1 .9-3.5.6-2.9-1.3.1-.4 1.3-.7 1.5-1.1.6-.9.5-2.4.5-3.4 0-1.4-.1-2.8.1-4.1.7 1.3 1.3 2.9 1.6 4.4m0-12c.4-1.7.4-4.2-1-5.5-1-.8-3.6-.6-3 1.3.1.3 1.2.6 1.5 1 .6.8.5 2.5.5 3.5 0 1.4-.1 2.8.1 4.1.7-1.3 1.3-2.9 1.6-4.4m-4 7.7c-1.9-.5-1.1-4.5 1.5-2.4 1.5 1.2.4 2.1-1.6 2.5m4.2-34.6c1.9 1.1 4 2.4 6.2 2.9 2 .5 5.7 0 6-2.5.3-2.5-3.2-3.6-5.1-3.4-2.4.2-4.8 1.8-6.9 2.9l-.2.1"/><path fill="#FB0F0C" d="M149.05 24.92c.8 2.65 3.4 12.75 8.07 10.35 2.27-1.16.44-4.98-.75-6.3-1.68-1.84-4.45-2.8-6.7-3.77l-.62-.28m0 0c.8-2.64 3.4-12.75 8.07-10.36 2.27 1.16.44 5-.75 6.3-1.68 1.85-4.45 2.82-6.7 3.78l-.62.27m-.25 6.1c.36 1.7.43 4.3-1.06 5.5-.98.8-3.5.6-2.92-1.2.1-.3 1.28-.7 1.56-1.1.6-.9.5-2.5.5-3.4 0-1.4-.1-2.8.1-4.1.82 1.3 1.33 3 1.63 4.5m0-12c.4-1.7.4-4.2-1-5.5-1-.8-3.5-.6-2.9 1.3.1.3 1.2.6 1.6 1 .6.8.5 2.5.5 3.4 0 1.4-.1 2.8.1 4.2.7-1.3 1.3-2.9 1.7-4.4m-3.8 7.7c-1.9-.5-1.1-4.5 1.6-2.4 1.5 1.3.4 2.1-1.5 2.5m4.2 97c2 1 4.1 2.3 6.2 2.8 2 .5 5.7 0 6-2.5.3-2.4-3.1-3.5-5-3.3-2.3.2-4.8 1.9-6.9 3l-.2.1"/><path fill="#FB0F0C" d="M149.05 123.6c.8 2.64 3.4 12.73 8.07 10.34 2.27-1.16.44-5-.75-6.3-1.68-1.84-4.45-2.82-6.7-3.77l-.62-.28m0 0c.8-2.7 3.4-12.8 8.07-10.4 2.27 1.1.44 5-.75 6.3-1.68 1.8-4.45 2.8-6.7 3.8l-.62.2m-.26 6c.3 1.7.4 4.2-1.1 5.5-1 .8-3.5.5-2.9-1.3.1-.3 1.3-.6 1.5-1.1.6-.8.5-2.4.5-3.4 0-1.4-.1-2.8.1-4.1.7 1.3 1.3 2.9 1.6 4.4m0-12c.4-1.7.4-4.2-1-5.5-1-.8-3.6-.5-3 1.3.1.4 1.2.7 1.5 1.1.6.9.5 2.4.5 3.4 0 1.3-.1 2.8.1 4.1.7-1.3 1.3-2.9 1.6-4.5m-4 7.6c-2-.4-1.2-4.5 1.5-2.4 1.5 1.2.3 2.1-1.6 2.5M21.1 222c-2 1-4.1 2.3-6.2 2.84-2 .5-5.7 0-6-2.53-.4-2.4 3.1-3.5 5.1-3.3 2.3.3 4.8 2 6.9 3.1l.2.1"/><path fill="#FB0F0C" d="M21.24 222.25c-.84 2.65-3.42 12.74-8.08 10.36-2.24-1.1-.4-5 .8-6.3 1.74-1.8 4.5-2.8 6.73-3.7l.6-.3m0 0c-.9-2.6-3.4-12.7-8.1-10.3-2.3 1.1-.4 5 .8 6.3 1.7 1.9 4.4 2.8 6.7 3.8.2.1.4.1.6.2m.3 6c-.3 1.7-.4 4.3 1 5.5 1 .8 3.5.5 2.9-1.3-.1-.4-1.2-.7-1.5-1.1-.6-.9-.5-2.4-.5-3.4 0-1.4.1-2.7-.1-4.1-.8 1.4-1.4 3-1.7 4.5m0-12c-.4-1.7-.4-4.3 1-5.5 1-.8 3.5-.6 2.9 1.2-.1.3-1.3.7-1.6 1.1-.6.8-.5 2.5-.5 3.5 0 1.3.1 2.8-.1 4.1-.8-1.3-1.3-2.9-1.7-4.4m4 7.5c1.8-.5 1-4.4-1.6-2.4-1.5 1.2-.4 2.1 1.5 2.4M21 189.5c-1.93 1-4 2.3-6.16 2.9-1.95.5-5.65 0-6-2.6-.35-2.44 3.2-3.56 5.1-3.36 2.35.3 4.83 1.94 6.9 3.06l.2.1"/><path fill="#FB0F0C" d="M21.25 189.37c-.85 2.64-3.43 12.74-8.1 10.35-2.23-1.16-.4-5 .82-6.3 1.73-1.84 4.48-2.82 6.72-3.78.2-.1.4-.2.6-.27m0 0c-.9-2.65-3.4-12.75-8.1-10.38-2.3 1.1-.4 5 .8 6.3 1.7 1.8 4.4 2.8 6.7 3.8l.6.2m.3 6c-.4 1.6-.4 4.1 1 5.5 1 .7 3.5.5 2.9-1.4-.1-.3-1.3-.7-1.5-1.1-.6-1-.5-2.5-.6-3.5 0-1.5.1-2.9-.1-4.2-.7 1.3-1.4 2.8-1.7 4.4m0-12c-.3-1.8-.4-4.3 1-5.5 1-.9 3.5-.7 2.9 1.2-.1.3-1.2.7-1.5 1.1-.6.8-.5 2.4-.5 3.4-.1 1.3.1 2.7-.1 4-.9-1.4-1.4-3-1.8-4.5m4 7.5c1.8-.5 1.1-4.5-1.6-2.5-1.5 1.2-.4 2 1.5 2.4m-4.4-34.4c-1.9 1-4.1 2.3-6.2 2.8-1.9.5-5.6 0-6-2.6-.3-2.6 3.2-3.7 5.1-3.5 2.3.3 4.9 2 6.9 3.1l.2.1"/><path fill="#FB0F0C" d="M21.25 156.48c-.85 2.64-3.43 12.74-8.1 10.36-2.23-1.16-.4-5 .82-6.3 1.73-1.87 4.48-2.83 6.72-3.8l.6-.26m0 0c-.9-2.65-3.5-12.76-8.1-10.36-2.3 1.16-.4 5 .8 6.3 1.7 1.84 4.4 2.8 6.7 3.77.2.1.4.2.6.2m.3 6c-.3 1.7-.4 4.2 1 5.5 1 .8 3.5.5 2.9-1.3-.1-.4-1.3-.7-1.5-1.1-.6-.9-.5-2.5-.5-3.5 0-1.4.1-2.8-.1-4.2-.9 1.3-1.4 2.9-1.7 4.5m0-12c-.4-1.7-.4-4.3 1-5.5 1-.9 3.5-.5 2.9 1.3-.1.4-1.3.7-1.6 1.1-.6.9-.5 2.4-.5 3.4 0 1.4.1 2.8-.1 4.1-.8-1.3-1.3-3-1.7-4.4m4 7.6c1.8-.4 1-4.5-1.6-2.5-1.7 1.2-.4 2.1 1.5 2.4M21 90.3c-1.97 1.1-4.1 2.4-6.25 3-1.94.5-5.6 0-6-2.53-.3-2.46 3.2-3.6 5.1-3.3 2.34.22 4.84 1.82 6.9 2.93l.2.1"/><path fill="#FB0F0C" d="M21.24 90.7c-.84 2.64-3.42 12.74-8.08 10.37-2.24-1.18-.4-5.03.8-6.33 1.74-1.83 4.5-2.8 6.73-3.77l.6-.27m0 0c-.9-2.65-3.4-12.72-8.1-10.28-2.3 1.22-.4 5 .8 6.3 1.7 1.84 4.4 2.86 6.7 3.78l.6.3m.3 6.1c-.3 1.74-.4 4.28 1 5.5 1 .92 3.4.5 2.9-1.32-.1-.2-1.3-.7-1.7-1.12-.5-.9-.5-2.44-.5-3.46 0-1.22.1-2.65-.1-3.97-.7 1.32-1.4 2.95-1.7 4.48m0-12c-.4-1.6-.5-4.1 1-5.5 1-.8 3.5-.5 2.9 1.4-.1.4-1.3.7-1.6 1.1-.6.9-.5 2.5-.5 3.5 0 1.5.1 2.9-.1 4.2-.8-1.3-1.4-2.9-1.7-4.3m4 7.6c1.8-.5 1-4.5-1.6-2.4-1.6 1.2-.4 2.2 1.5 2.5m-4.3-34.6c-2 1-4 2.3-6.2 2.8-2 .5-5.6 0-6-2.5-.3-2.4 3.1-3.6 5.1-3.4 2.3.3 4.8 2 6.9 3.1l.2.1"/><path fill="#FB0F0C" d="M21.25 57.82c-.85 2.64-3.43 12.74-8.1 10.35-2.23-1.16-.4-5 .82-6.3 1.73-1.84 4.48-2.83 6.72-3.78l.6-.3m0 0c-.9-2.7-3.4-12.9-8.1-10.4-2.3 1.1-.4 5 .8 6.3 1.7 1.8 4.4 2.7 6.7 3.7l.6.2m.3 6c-.3 1.6-.4 4.1 1.1 5.5 1 .8 3.5.5 2.9-1.4-.1-.4-1.2-.7-1.5-1.1-.6-.9-.5-2.5-.5-3.5-.1-1.5.1-2.9-.1-4.2h-.3c-.8 1.3-1.4 2.9-1.7 4.3m0-12c-.4-1.8-.5-4.3 1-5.5.9-.8 3.5-.6 2.9 1.2-.1.3-1.3.6-1.6 1-.6.8-.5 2.4-.6 3.5-.1 1.3.1 2.7-.1 4.1v.1c-.7-1.3-1.4-3-1.7-4.5m4 7.5c1.8-.5 1.1-4.5-1.5-2.5-1.5 1.2-.3 2 1.6 2.4M21 24.3c-1.9 1-4.05 2.3-6.2 2.84-1.95.5-5.64 0-6-2.6-.34-2.5 3.17-3.6 5.1-3.4 2.34.3 4.83 1.9 6.9 3l.2.1"/><path fill="#FB0F0C" d="M21.25 24.92c-.85 2.65-3.43 12.75-8.1 10.35-2.23-1.16-.4-4.98.82-6.3 1.73-1.84 4.48-2.8 6.72-3.77l.6-.28m0 0c-.9-2.64-3.5-12.75-8.1-10.36-2.3 1.16-.4 5 .8 6.3 1.7 1.85 4.4 2.82 6.7 3.78l.6.27m.3 6.1c-.3 1.7-.4 4.3 1 5.5 1 .8 3.5.6 2.9-1.3-.1-.3-1.3-.7-1.5-1.1-.6-.9-.5-2.5-.5-3.4 0-1.4.1-2.8-.1-4.1-.9 1.3-1.4 3-1.7 4.5m0-12c-.4-1.7-.4-4.2 1-5.5 1-.8 3.5-.6 2.9 1.3-.1.3-1.3.6-1.6 1-.6.8-.5 2.5-.5 3.4 0 1.4.1 2.8-.1 4.2-.8-1.3-1.3-2.9-1.7-4.4m4 7.7c1.8-.5 1.1-4.5-1.6-2.4-1.5 1.2-.4 2.1 1.5 2.5m-4.6 97c-2 1-4.1 2.3-6.2 2.8-2 .6-5.7.1-6-2.5-.4-2.4 3.2-3.5 5.1-3.3 2.3.3 4.8 1.9 6.9 3l.2.1"/><path fill="#FB0F0C" d="M21.25 123.6c-.85 2.64-3.43 12.73-8.1 10.34-2.23-1.16-.4-5 .82-6.3 1.73-1.84 4.48-2.82 6.72-3.77.2-.1.4-.2.6-.28m0 0c-.9-2.7-3.5-12.8-8.1-10.4-2.3 1.1-.4 5 .8 6.3 1.7 1.8 4.4 2.8 6.7 3.8.2.1.4.1.6.2m.3 6c-.3 1.7-.4 4.2 1 5.5 1 .8 3.5.5 2.9-1.3-.1-.3-1.3-.6-1.5-1.1-.6-.8-.5-2.4-.5-3.4 0-1.4.1-2.8-.1-4.1-.8 1.3-1.4 2.9-1.7 4.4m0-12c-.4-1.7-.4-4.2 1-5.5 1-.8 3.5-.5 2.9 1.3-.1.4-1.3.7-1.6 1.1-.6.9-.5 2.4-.5 3.4 0 1.3.1 2.8-.1 4.1-.8-1.3-1.3-2.9-1.7-4.5m3.4 7.2c1.8-.5 1-4.5-1.6-2.5-1.6 1.2-.4 2.1 1.5 2.4"/><path fill="none" stroke="#000" stroke-width=".03" stroke-miterlimit="10" d="M73.15 146.58h.03" transform="matrix(1.0172 0 0 1.01773 .028 .01)"/><path fill="#FB0F0C" stroke="#FB0F0C" stroke-width=".03" stroke-miterlimit="10" d="M75.67 112.25c1.64 0 16-.14 16 .13v15.45c0 .43.32 2.55 0 2.88-1 1.1-16-.6-16-.1v-18.3" transform="matrix(1.0172 0 0 1.01773 .028 .01)"/><path fill="#fff" d="M78.02 117.76l2.03-2.34 1.02 3.52-3.05-1.17m12.2-2.34l2.04 2.34L89.2 119l1.02-3.47m.07 16.4l2-2.35-3.1-1.12 1 3.56m-10.3.1l-2-2.34c1-.4 2-.8 3-1.12l-1 3.56"/><path fill="#fff" d="M85.14 114.25l-2.02 6.96c-.3.9-5.18 2.1-6.2 2.4.9.3 5.9 1.6 6.1 2.5l1.93 7L87 126c.2-.9 5.07-2.04 6.1-2.45-1.03-.4-5.9-1.63-6.2-2.44l-2.05-7"/><path fill="#fff" stroke="#fff" stroke-width=".03" stroke-miterlimit="10" d="M132.7 115.7l-.97 4.52c-.12.52-3.42 1.08-4.03 1.26.6.18 3.9.74 4.03 1.26l.97 4.5.98-4.5c.1-.52 3.4-1.08 4.03-1.26-.6-.18-3.9-.74-4-1.26l-1-4.5m0-16.18l-.9 4.5c-.1.54-3.4 1.1-4 1.27.6.2 3.9.8 4 1.3l1 4.5 1-4.5c.1-.5 3.4-1.1 4.1-1.2-.6-.1-3.9-.7-4-1.2l-1-4.5m.1 32.3l-1 4.5c-.1.5-3.4 1.1-4 1.3.6.2 3.9.8 4 1.3l1 4.5 1-4.5c.1-.5 3.4-1.1 4-1.2-.6-.2-3.9-.7-4-1.3l-.9-4.5M119 115.9l-1 4.6c-.1.57-3.4 1.1-4 1.3.6.2 3.9.75 4 1.27l.93 4.5 1-4.5c.1-.55 3.4-1.1 4.04-1.3-.6-.2-3.9-.74-4-1.26l-.9-4.5m0-16.1l-.96 4.5c-.1.6-3.4 1.1-4 1.3.6.2 3.9.8 4 1.3l1 4.5 1-4.5c.1-.5 3.4-1.1 4-1.2-.6-.1-3.9-.7-4-1.2l-1-4.5m0 32.3c-.3 1.5-.6 3-1 4.5-.1.5-3.4 1.1-4 1.3.7.2 4 .7 4.1 1.3l1 4.5 1-4.5c.1-.6 3.4-1.1 4-1.3-.6-.2-3.9-.7-4-1.3l-1-4.5m-28.2 31l-1 4.5c-.1.5-3.4 1.1-4 1.3.7.2 4 .8 4.1 1.3l1 4.5 1-4.5c.1-.5 3.4-1.1 4.1-1.2-.6-.2-3.9-.8-4-1.3l-1-4.5m-14 0l-1 4.5c-.1.5-3.4 1.1-4 1.2.6.1 3.9.7 4.1 1.2l.9 4.5 1-4.5c.2-.6 3.5-1.1 4.1-1.3-.6-.2-3.9-.8-4-1.3l-.9-4.5m28 0l-1 4.5c-.1.5-3.4 1.1-4 1.3.6.2 3.9.7 4 1.3l1 4.5 1-4.5c.1-.5 3.4-1 4.1-1.2-.6-.2-3.9-.7-4-1.3l-1-4.5m-42 .1l-1 4.5c-.1.5-3.4 1.1-4 1.3.6.2 3.9.7 4 1.3l1 4.5 1-4.5c.1-.6 3.4-1.1 4-1.3-.6-.2-3.9-.7-4-1.3l-1-4.5m70 0l-1 4.5c-.1.6-3.4 1.1-4 1.3.6.2 3.9.8 4.1 1.3l1 4.5 1-4.5c.1-.5 3.4-1.1 4-1.2-.6-.2-3.9-.7-4-1.3l-1-4.5m-14 0l-.9 4.5c-.1.5-3.4 1.1-4 1.3.6.2 3.9.7 4.1 1.3.3 1.5.7 3 1 4.5l1-4.5c.1-.5 3.4-1.1 4-1.3-.6-.2-3.9-.7-4-1.3l-1-4.5m-28 16.3l-1 4.5c-.1.5-3.4 1.1-4 1.3.6.1 3.9.7 4 1.2l1 4.5.9-4.5c.1-.5 3.4-1.1 4-1.2-.6-.2-3.9-.7-4.1-1.3l-1-4.5m-14 0l-1 4.5c-.1.5-3.4 1.1-4 1.3.6.2 3.9.7 4 1.3l.9 4.5 1-4.5c.1-.5 3.4-1.1 4-1.2-.6-.2-3.9-.8-4-1.3l-.9-4.5m28 0l-1 4.5c-.1.5-3.4 1.1-4 1.2.6.2 3.9.7 4 1.3l1 4.5.9-4.5c.2-.6 3.4-1.1 4.1-1.3-.6-.2-3.9-.8-4-1.3l-1-4.5m-42 0l-.9 4.5c-.1.5-3.4 1.1-4 1.2.6.2 3.9.7 4 1.3l1 4.5 1-4.5c.1-.6 3.4-1.1 4-1.3-.6-.2-3.9-.8-4-1.3l-1-4.5m70 0l-1 4.5c-.1.5-3.4 1.1-4 1.2.6.2 3.9.7 4 1.3l1 4.6 1-4.5c.1-.5 3.4-1.1 4.1-1.3-.6-.1-3.9-.7-4-1.2l-.9-4.5m-14 0l-1 4.5c-.1.5-3.4 1.1-4 1.3.6.2 3.9.7 4 1.3l.9 4.5 1-4.5c.1-.5 3.4-1.1 4-1.2-.6-.2-3.9-.8-4-1.3l-.9-4.6M91.7 196l-1 4.5c-.1.5-3.4 1.1-4.04 1.2.66.2 3.96.8 4.07 1.3l1 4.5 1-4.5c.18-.5 3.48-1.1 4.1-1.3-.6-.2-3.9-.7-4.1-1.3l-1-4.5m-14 0l-1 4.5c-.1.6-3.4 1.1-4 1.3.64.2 3.94.74 4.1 1.3l1 4.5 1-4.5c.1-.56 3.4-1.1 4-1.3-.6-.16-3.9-.7-4-1.25l-1-4.5m28.05-.1l-1 4.5c-.1.5-3.4 1.1-4 1.28.6.2 3.9.74 4.04 1.3l1 4.5.9-4.5c.15-.5 3.4-1.1 4.06-1.3-.6-.2-3.9-.7-4-1.26l-.9-4.5m-42 .06l-1 4.5c-.1.5-3.4 1.1-4 1.3.6.2 3.9.7 4 1.2l1 4.5 1-4.5c.1-.5 3.4-1.1 4-1.2-.6-.2-3.9-.73-4.06-1.25l-1-4.5m70-.1l-1 4.5c-.1.5-3.4 1.1-4 1.3.6.2 3.9.7 4 1.3l1 4.5 1-4.5c.1-.6 3.4-1.1 4-1.3-.6-.2-3.9-.73-4-1.3l-1-4.5m-14 0l-1 4.5c-.1.6-3.4 1.1-4.1 1.3.6.2 3.9.8 4 1.3.3 1.5.7 3 1 4.5l1-4.5c.1-.5 3.4-1.1 4.04-1.23-.7-.2-3.9-.7-4.1-1.2l-1-4.5m-28-47.4l-1 4.5c-.1.5-3.4 1.1-4 1.3.6.1 3.9.7 4 1.2l1 4.5 1-4.5c.1-.5 3.4-1.1 4-1.2-.6-.17-3.9-.7-4.1-1.26l-1-4.5m-14 0l-1 4.5c-.1.5-3.4 1.1-4 1.2.6.2 3.9.7 4.1 1.3l.9 4.5 1-4.5c.1-.6 3.4-1.1 4-1.3-.6-.1-3.9-.7-4-1.2l-1-4.5m28.1-.1l-1 4.5c-.1.6-3.4 1.1-4 1.3.6.2 3.9.7 4 1.2l1 4.5.9-4.5c.1-.5 3.4-1.1 4-1.2-.64-.2-3.9-.8-4.1-1.3l-1-4.5m-42 0l-1 4.5c-.1.5-3.4 1.1-4 1.3.6.2 3.9.8 4 1.3l1 4.5 1-4.5c.1-.5 3.4-1.1 4-1.3-.6-.1-3.9-.7-4-1.2l-.96-4.5m70 0l-1 4.5c-.1.5-3.4 1.1-4.04 1.2.6.2 3.9.8 4.06 1.3l.95 4.5.98-4.5c.1-.6 3.4-1.1 4.1-1.3-.6-.2-3.9-.7-4-1.3l-.94-4.5m-14 0l-1 4.5c-.2.5-3.5 1.1-4.1 1.3.6.2 3.9.7 4 1.3l.9 4.5 1-4.5c.1-.5 3.4-1.1 4-1.3-.6-.2-3.9-.8-4.1-1.3l-1-4.5M77 83.6l-1 4.5c-.1.5-3.4 1.1-4 1.23.6.2 3.9.74 4 1.3l.9 4.5.9-4.5c.1-.58 3.4-1.1 4-1.3-.6-.2-3.9-.77-4.1-1.3l-1-4.5m-14 0l-1 4.5c-.1.53-3.4 1.1-4.1 1.26.6.2 3.9.7 4 1.2l1 4.5.9-4.5c.1-.5 3.4-1.1 4-1.2-.6-.1-3.9-.7-4-1.2l-1-4.5m42 0l-1 4.5c-.1.6-3.4 1.1-4 1.3.6.2 3.9.8 4 1.3l.9 4.5 1-4.5c.1-.5 3.4-1.1 4-1.2-.7-.2-4-.7-4.1-1.3l-1-4.5m-14 0l-.9 4.5c-.2.5-3.5 1.1-4.1 1.3.6.2 3.9.8 4 1.3l1 4.5 1-4.5c.1-.5 3.4-1.1 4-1.3-.6-.1-3.9-.7-4-1.2l-1-4.5M62 67.6l-.96 4.5c-.16.5-3.46 1.1-4.07 1.2.6.14 3.9.7 4.1 1.2.3 1.5.7 3 1 4.5l1-4.5c.1-.5 3.4-1.1 4.04-1.24-.6-.2-3.9-.8-4-1.3l-1-4.5m14 0l-1 4.5c-.1.5-3.4 1.1-4 1.25.7.2 4 .8 4.1 1.3l1 4.5 1-4.5c.1-.5 3.4-1.1 4-1.2-.6-.1-3.9-.7-4-1.2l-.9-4.5m14 0l-1 4.5c-.1.6-3.4 1.1-4 1.3.6.2 3.9.8 4.1 1.3l1 4.5 1-4.5c.2-.5 3.5-1.1 4.1-1.3-.6-.1-3.9-.7-4-1.2l-.9-4.5m14 0l-1 4.5c-.1.6-3.4 1.1-4 1.3.6.2 3.9.8 4 1.3l1 4.5.9-4.5c.1-.5 3.4-1.1 4.1-1.3-.6-.1-3.9-.7-4-1.2l-.9-4.5m28 16.1l-1 4.5c-.1.6-3.4 1.1-4 1.3.6.2 3.9.7 4 1.3l1 4.5 1-4.5c.1-.5 3.4-1.1 4-1.3-.6-.2-3.9-.7-4-1.3l-1-4.5m0-16.1l-1 4.5c-.1.5-3.4 1.1-4 1.3.6.2 3.9.8 4.1 1.3l1 4.5 1-4.5c.1-.5 3.4-1.1 4.1-1.2-.6-.2-3.9-.7-4-1.3l-1-4.5m-14 16.1l-.9 4.5c-.1.6-3.4 1.1-4 1.3.6.2 3.9.7 4.1 1.3l.9 4.5 1-4.5c.1-.5 3.4-1.1 4.1-1.2-.6-.2-3.9-.7-4-1.2l-.9-4.5m0-16.1l-1 4.5c-.1.5-3.4 1.1-4 1.3.6.2 3.9.8 4 1.3l1 4.5 1-4.5c.1-.5 3.4-1.1 4.1-1.2-.7-.2-4-.8-4.1-1.3l-1-4.5M76.8 52l-1 4.5c-.1.5-3.4 1.1-4 1.24.6.2 3.9.7 4 1.2l1 4.56 1-4.5c.1-.5 3.4-1.1 4-1.3-.6-.15-3.9-.7-4-1.2l-1-4.5m-14 0l-.9 4.5c-.1.5-3.4 1.1-4 1.22.7.2 4 .7 4.1 1.2l1 4.5 1-4.5c.17-.56 3.47-1.1 4.1-1.3-.6-.2-3.9-.75-4.07-1.27l-1-4.5m42 0l-.9 4.5c-.1.56-3.4 1.1-4 1.3.6.2 3.9.8 4.04 1.3l1 4.5 1-4.5c.1-.5 3.4-1.1 4-1.2-.7-.2-4-.8-4.1-1.3l-1-4.5m-14 0l-1 4.5c-.1.5-3.4 1.1-4.1 1.25.6.18 3.9.7 4 1.26l1 4.5.9-4.5c.1-.5 3.4-1.1 4-1.3-.6-.13-3.9-.7-4-1.2l-1-4.54M62.6 35l-1 4.5c-.14.53-3.44 1.1-4.05 1.27.6.18 3.9.74 4.05 1.26.3 1.5.64 3 .96 4.5l1-4.5c.1-.52 3.4-1.08 4-1.26-.6-.18-3.9-.74-4.1-1.26l-.9-4.5m14 0l-.97 4.5c-.2.6-3.5 1.1-4.1 1.3.6.2 3.9.7 4 1.3l1 4.5.9-4.5c.1-.5 3.4-1.1 4-1.2-.6-.2-3.9-.7-4-1.2l-1-4.5m14 0l-1 4.5c-.1.6-3.4 1.1-4.1 1.3.6.2 3.9.7 4 1.3l1 4.5 1-4.5c.1-.5 3.4-1.1 4-1.2-.6-.2-3.9-.7-4-1.3l-1-4.5m14 0l-1 4.5c-.1.6-3.4 1.1-4 1.3.6.2 3.9.7 4 1.3l1 4.5.9-4.5c.1-.5 3.4-1 4-1.2-.6-.2-3.9-.7-4-1.2l-1-4.5m28 16.2l-1 4.5c-.1.6-3.4 1.1-4 1.3.6.2 3.9.8 4 1.3l1 4.5.9-4.5c.1-.5 3.4-1.1 4-1.2-.7-.2-4-.8-4.1-1.3l-1-4.5m0-16.1l-1 4.5c-.1.6-3.4 1.1-4.1 1.3.6.2 3.9.7 4 1.3l.9 4.5 1-4.5c.1-.5 3.4-1 4-1.2-.6-.2-3.9-.8-4-1.3l-1-4.5m-13.8 16l-1 4.5c-.1.5-3.4 1.1-4 1.3.6.2 3.9.7 4 1.3l.9 4.5 1-4.5c.1-.6 3.4-1.1 4-1.3-.6-.2-3.9-.7-4-1.3l-1-4.5m0-16.2l-1 4.5c-.1.6-3.4 1.1-4.1 1.3.6.2 3.9.7 4 1.3l1 4.5 1-4.5c.1-.5 3.4-1 4-1.2-.6-.2-3.9-.7-4-1.3l-1-4.5M34.5 132l-1 4.5c-.1.52-3.4 1.1-4 1.25.6.17 3.9.73 4.02 1.26l.96 4.5 1-4.5c.12-.5 3.42-1.1 4.03-1.3-.6-.2-3.9-.7-4-1.2l-1-4.5m0-16.1l-.9 4.5c-.1.5-3.4 1.1-4.1 1.3.6.2 3.9.8 4.1 1.3l1 4.5 1-4.5c.2-.5 3.5-1.1 4.1-1.2-.6-.1-3.9-.7-4-1.2l-.9-4.5m0-16.2l-1 4.5c-.1.5-3.4 1.1-4 1.3.6.2 3.9.8 4 1.3l1 4.5 1-4.5c.1-.5 3.4-1.1 4-1.2-.6-.2-3.9-.8-4-1.3l-.9-4.5m-.1 63.5l-.9 4.5c-.1.5-3.4 1.1-4 1.3.6.2 3.9.8 4 1.3l1 4.5 1-4.5c.1-.5 3.4-1 4-1.2-.6-.1-3.9-.7-4-1.2l-1-4.5m0 16.2l-1 4.5c-.1.6-3.4 1.1-4 1.3.6.2 3.9.8 4 1.3l1 4.5 1-4.5c.1-.5 3.4-1.1 4-1.3-.6-.1-3.9-.7-4-1.2L35 180m0 16.2l-1 4.5c-.1.6-3.4 1.1-4 1.3.6.2 3.9.8 4 1.3l1 4.5.95-4.5c.1-.5 3.4-1.1 4.07-1.3-.6-.2-3.9-.7-4.1-1.2l-.93-4.5m0-47.4l-1 4.5c-.1.5-3.4 1.1-4 1.28.6.2 3.9.8 4 1.3l1 4.5 1-4.5c.1-.5 3.4-1.1 4.1-1.23-.6-.2-3.9-.73-4-1.26l-1-4.5m0-64.6l-1 4.5c-.1.5-3.4 1.1-4 1.3.6.2 3.9.7 4 1.2l1 4.5 1-4.5c.1-.5 3.4-1.1 4-1.3-.6-.2-3.9-.8-4-1.3l-1-4.5m0-16.2l-1 4.5c-.1.5-3.4 1.1-4 1.3.6.2 3.9.7 4 1.2l1 4.5 1-4.5c.1-.5 3.4-1.1 4-1.3-.6-.1-3.9-.7-4-1.2l-1-4.5m0-16.2l-1 4.5c-.1.5-3.4 1.1-4 1.3.6.2 3.9.7 4 1.3l1 4.5.9-4.5c.1-.5 3.4-1.1 4-1.3-.6-.1-3.9-.7-4-1.2L35 52m0-16.2l-1 4.5c-.1.5-3.4 1.1-4 1.3.6.2 3.9.8 4 1.3l1 4.5.9-4.5c.1-.54 3.4-1.1 4-1.3-.6-.2-3.9-.7-4-1.25l-1-4.76m14 97l-.9 4.5c-.1.5-3.4 1.1-4.1 1.3.67.2 3.97.7 4.08 1.2l1 4.5 1-4.5c.1-.5 3.4-1.1 4-1.2-.6-.2-3.9-.7-4-1.3l-1-4.5m0-16.1L48 121c-.1.58-3.4 1.1-4.03 1.3.6.2 3.9.76 4 1.28.3 1.5.68 3 1 4.5l.97-4.5c.1-.5 3.4-1.07 4-1.25-.6-.2-3.9-.8-4-1.3l-.96-4.5m0-16.2l-1 4.5c-.1.5-3.4 1.1-4 1.3.6.2 3.9.7 4 1.3l1 4.5 1-4.5c.1-.6 3.4-1.1 4-1.3-.7-.2-4-.8-4.1-1.3l-1-4.5m-.05 63.5l-.97 4.5c-.1.5-3.4 1.1-4 1.3.6.2 3.9.76 4 1.3l.94 4.5 1-4.5c.1-.5 3.4-1.1 4-1.3-.6-.2-3.9-.74-4-1.3l-1-4.5m0 16.2l-1 4.5c-.1.52-3.4 1.1-4 1.26.6.1 3.9.7 4.1 1.2l1 4.5 1-4.5c.1-.5 3.4-1.1 4-1.3-.6-.2-3.9-.8-4-1.3l-1-4.5m0 16.1l-1 4.5c-.1.5-3.4 1.1-4 1.3.6.2 3.9.7 4.02 1.3l.96 4.5 1-4.5c.1-.6 3.4-1.1 4-1.3-.6-.2-3.9-.7-4-1.3l-1-4.5m0-47.4l-.95 4.5c-.1.5-3.4 1.1-4 1.3.6.1 3.9.7 4 1.2l1 4.5 1-4.5c.1-.6 3.4-1.1 4-1.3-.6-.2-3.9-.8-4-1.3l-1-4.5m0-64.6l-.7 4.4c-.1.5-3.4 1.1-4 1.2.6.1 3.9.7 4.06 1.2l.9 4.5 1-4.5c.1-.5 3.4-1.1 4-1.3-.6-.2-3.9-.8-4-1.3l-1-4.5m0-16.1l-1 4.5c-.1.5-3.4 1.1-4 1.3.6.2 3.9.7 4 1.3l1 4.5 1-4.5c.1-.6 3.4-1.1 4-1.3-.6-.1-3.9-.7-4-1.2l-1-4.5m0-16.2l-1 4.1c-.1.5-3.4 1.1-4.1 1.2.6.2 3.9.8 4 1.3l.9 5 1-4.5c.1-.5 3.4-1.1 4-1.3-.6-.2-3.9-.8-4-1.3l-1-4.5m0-16.2l-1 4.5c-.1.5-3.4 1.1-4 1.3.6.1 3.9.7 4 1.2l1 4.5.9-4.5c.1-.5 3.4-1.1 4-1.3-.6-.2-3.9-.8-4-1.3l-1-4.5" transform="matrix(1.0172 0 0 1.01773 .028 .01)"/><path fill="none" stroke="#FB0F0C" stroke-width="1.29" stroke-miterlimit="10" d="M8.37 6.64c-2.35 0-1.5 6.42-1.5 7.7v215.9c0 1.75-.66 5.5 1.93 5.5H158c2.76 0 2.22-2.95 2.22-4.93V15.1c0-2.04.47-4.72 0-6.72 0-2.98-8.46-1.74-10.12-1.74H8.37" transform="matrix(1.0172 0 0 1.01773 .028 .01)"/></svg>
